<?xml version="1.0" encoding="UTF-8" standalone="no"?>
<!-- Created with Inkscape (http://www.inkscape.org/) -->

<svg
   xmlns:dc="http://purl.org/dc/elements/1.1/"
   xmlns:cc="http://creativecommons.org/ns#"
   xmlns:rdf="http://www.w3.org/1999/02/22-rdf-syntax-ns#"
   xmlns:svg="http://www.w3.org/2000/svg"
   xmlns="http://www.w3.org/2000/svg"
   xmlns:sodipodi="http://sodipodi.sourceforge.net/DTD/sodipodi-0.dtd"
   xmlns:inkscape="http://www.inkscape.org/namespaces/inkscape"
   width="600"
   height="400"
   id="svg2"
   version="1.1"
   inkscape:version="0.48.0 r9654"
   sodipodi:docname="Neues Dokument 1">
  <defs
     id="defs4">
    <filter
       inkscape:collect="always"
       id="filter3869">
      <feGaussianBlur
         inkscape:collect="always"
         stdDeviation="3.5100757"
         id="feGaussianBlur3871" />
    </filter>
  </defs>
  <sodipodi:namedview
     id="base"
     pagecolor="#ffffff"
     bordercolor="#666666"
     borderopacity="1.0"
     inkscape:pageopacity="0.0"
     inkscape:pageshadow="2"
     inkscape:zoom="1.4654788"
     inkscape:cx="295.75017"
     inkscape:cy="193.51609"
     inkscape:document-units="px"
     inkscape:current-layer="layer1"
     showgrid="false"
     inkscape:window-width="1920"
     inkscape:window-height="1018"
     inkscape:window-x="-8"
     inkscape:window-y="-8"
     inkscape:window-maximized="1" />
  <metadata
     id="metadata7">
    <rdf:RDF>
      <cc:Work
         rdf:about="">
        <dc:format>image/svg+xml</dc:format>
        <dc:type
           rdf:resource="http://purl.org/dc/dcmitype/StillImage" />
        <dc:title></dc:title>
      </cc:Work>
    </rdf:RDF>
  </metadata>
  <g
     inkscape:label="Ebene 1"
     inkscape:groupmode="layer"
     id="layer1"
     transform="translate(0,-652.36215)">
    <flowRoot
       xml:space="preserve"
       id="flowRoot2985"
       style="font-size:40px;font-style:normal;font-variant:normal;font-weight:bold;font-stretch:normal;line-height:125%;letter-spacing:0px;word-spacing:0px;fill:#000000;fill-opacity:1;stroke:none;font-family:Segoe UI;-inkscape-font-specification:Segoe UI Bold"
       transform="matrix(1.7621394,0,0,1.7621394,-78.288652,795.23255)"><flowRegion
         id="flowRegion2987"><rect
           id="rect2989"
           width="494.57178"
           height="94.089264"
           x="64.656212"
           y="93.124245"
           style="font-style:normal;font-variant:normal;font-weight:bold;font-stretch:normal;font-family:Segoe UI;-inkscape-font-specification:Segoe UI Bold" /></flowRegion><flowPara
         id="flowPara2991">ACCESS DENIED</flowPara></flowRoot>    <path
       inkscape:connector-curvature="0"
       id="path3778"
       d="m 291.62716,886.17469 c -12.28633,-0.55571 -20.48271,-2.8027 -27.57101,-7.55844 -3.98477,-2.67347 -7.5082,-6.29645 -10.44879,-10.74394 -7.9658,-12.04789 -12.06395,-30.12329 -12.91001,-56.94132 -0.15076,-4.7788 -0.15129,-15.15148 -0.001,-21.08106 0.78003,-30.7904 4.1272,-45.36141 11.21298,-48.81265 1.41814,-0.69076 2.13574,-0.85569 3.68192,-0.84618 1.38272,0.008 2.26305,0.19749 3.70273,0.79511 0.62495,0.25937 0.91716,0.328 1.00844,0.23667 0.0778,-0.0778 0.16781,-1.24121 0.22819,-2.95106 0.11606,-3.28614 0.26409,-4.11737 1.00784,-5.65906 1.6949,-3.51335 5.40296,-5.75372 10.94996,-6.61587 1.56793,-0.24369 5.25764,-0.27857 6.76647,-0.0639 0.56156,0.0799 1.60032,0.28196 2.30836,0.4491 0.70803,0.16709 1.34316,0.26934 1.41141,0.22716 0.0741,-0.0459 0.12532,-0.66669 0.12717,-1.54107 0.006,-2.96454 0.27652,-4.53742 1.07957,-6.28345 1.75857,-3.82357 5.44197,-6.39081 10.82201,-7.54273 3.9846,-0.85315 8.9058,-0.70282 12.65985,0.38671 4.68929,1.3609 7.62941,3.83461 8.53258,7.17906 0.13755,0.50935 0.22265,1.65199 0.29901,4.01522 0.0587,1.81687 0.10913,3.37679 0.11204,3.46664 0.007,0.20859 0.44791,0.1407 1.80609,-0.27811 1.72291,-0.53132 3.07966,-0.69818 5.10612,-0.62802 2.66772,0.0923 4.83543,0.71538 6.95868,2.00008 4.04772,2.44919 6.41826,6.63365 7.0454,12.4364 0.22429,2.07528 -0.0154,46.33414 -0.32186,59.42936 -0.0806,3.44591 -0.0803,3.45345 0.16958,3.45345 0.52397,0 3.15542,-3.61081 5.51502,-7.56755 0.53187,-0.8919 1.91802,-3.25499 3.08033,-5.25133 5.51938,-9.47995 8.21979,-13.39906 11.72361,-17.01456 3.99216,-4.11942 7.80114,-6.1492 12.01536,-6.40294 2.05574,-0.12378 4.11213,0.27107 6.42642,1.23393 0.90665,0.37722 1.20722,0.57723 1.8629,1.23965 1.15732,1.16923 1.85983,2.69368 2.23618,4.85251 0.29028,1.66513 0.17308,5.43408 -0.24325,7.82232 -1.46076,8.37973 -5.44601,19.81656 -12.33769,35.40668 -3.39584,7.68193 -6.10065,13.37352 -11.17699,23.51908 -4.37279,8.73944 -7.45962,14.64962 -8.71308,16.68243 -2.76665,4.48684 -6.01267,8.5204 -10.36196,12.87593 -4.52168,4.52814 -8.37359,7.54683 -13.08264,10.25265 -5.77813,3.32014 -11.79859,5.29281 -17.79298,5.83006 -1.5728,0.14098 -11.72944,0.13625 -14.89488,-0.007 z m 16.01478,-7.47845 c 4.28063,-0.72796 7.41054,-1.77619 11.33234,-3.79534 7.45796,-3.83974 14.78839,-10.46131 20.6185,-18.62462 2.02614,-2.83703 3.72932,-5.92745 9.08576,-16.48619 12.5818,-24.80155 21.36101,-46.01796 23.67205,-57.20741 0.67034,-3.24558 0.92903,-6.68248 0.59383,-7.88933 -0.10833,-0.39005 -0.19632,-0.46742 -0.75007,-0.65957 -0.45829,-0.15903 -0.96727,-0.21584 -1.88861,-0.21082 -1.12446,0.006 -1.36583,0.0482 -2.22535,0.38767 -3.52165,1.39094 -7.25934,5.42427 -11.90564,12.84736 -0.73372,1.17221 -2.48401,4.10426 -3.88955,6.51566 -4.19692,7.20044 -5.46449,9.23518 -7.14639,11.47146 -2.49326,3.31512 -4.63826,5.04543 -7.08303,5.7137 -1.73707,0.47482 -3.75405,0.17577 -5.35422,-0.79384 -1.07014,-0.64843 -2.21798,-1.77539 -2.59938,-2.5521 -0.40925,-0.83338 -0.40349,-0.45579 -0.18266,-11.97736 0.16503,-8.60929 0.38044,-35.14779 0.3832,-47.20716 0.002,-7.9522 -0.0512,-8.80308 -0.66341,-10.64587 -0.75657,-2.27735 -2.21878,-3.81389 -4.34339,-4.56421 -0.97604,-0.34464 -2.93006,-0.42974 -4.11923,-0.17932 -1.67857,0.35342 -3.50896,1.48049 -4.02495,2.47829 -0.10132,0.19596 -0.26011,0.79103 -0.35289,1.32246 -0.32938,1.88673 -1.34811,2.93476 -3.16347,3.25455 -0.40149,0.0707 -0.75362,0.19103 -0.78251,0.26741 -0.0289,0.0763 0.0187,10.27394 0.10568,22.66128 0.087,12.38737 0.16172,24.73871 0.16599,27.44741 0.005,2.70871 0.0508,4.99271 0.10344,5.07557 0.0526,0.0829 0.94729,0.36476 1.98818,0.62647 2.20153,0.5535 4.6005,1.28531 4.69042,1.4308 0.0856,0.13851 -0.95281,3.05758 -1.10584,3.10858 -0.0675,0.0225 -0.84436,-0.1766 -1.72627,-0.44246 -4.57249,-1.37842 -9.55255,-2.27761 -15.47735,-2.79454 -2.27222,-0.19826 -9.62394,-0.19801 -11.89188,0 -8.80377,0.77019 -15.61429,2.5383 -21.89438,5.68409 -3.88204,1.94457 -6.98161,4.11712 -10.05263,7.04611 -1.31368,1.25291 -1.00241,1.28174 -2.6459,-0.24509 l -0.99211,-0.92169 0.33223,-0.39524 c 0.56663,-0.6741 2.92939,-2.81666 4.22468,-3.83095 0.67913,-0.5318 1.92477,-1.41984 2.7681,-1.97342 0.84333,-0.5536 1.66846,-1.11177 1.83362,-1.2404 l 0.3003,-0.23386 0.0309,-23.96556 c 0.0195,-15.15782 -0.0116,-24.07742 -0.0848,-24.26992 -0.0838,-0.22054 -0.25786,-0.34221 -0.63151,-0.44152 -0.75557,-0.20094 -1.16996,-0.49202 -2.59582,-1.82343 -2.06829,-1.93129 -3.5701,-2.97869 -4.52944,-3.15886 -0.74858,-0.14064 -1.57764,0.73119 -2.51519,2.64487 -3.49726,7.13846 -5.35205,24.74411 -5.34668,50.75068 0.002,12.26104 0.50411,21.63086 1.62684,30.39035 1.98353,15.47553 5.7162,26.65843 11.46032,34.3346 1.2774,1.70705 3.65841,4.21889 5.10791,5.38858 5.82608,4.7014 13.12595,7.07789 23.72369,7.72327 3.22305,0.19627 3.58749,0.20263 10.33032,0.18014 5.27072,-0.0176 6.50006,-0.054 7.48625,-0.22168 z m -11.6304,-17.36372 c -1.51665,-0.31324 -1.56041,-0.331 -1.52193,-0.61732 0.0668,-0.49712 0.73065,-3.44463 1.17558,-5.2197 2.42022,-9.65565 5.86468,-17.82914 10.22194,-24.25607 3.17553,-4.68389 7.15071,-8.67185 11.14542,-11.18131 1.86475,-1.17143 5.12838,-2.60419 5.37414,-2.35928 0.15274,0.15219 0.71833,3.16416 0.61233,3.26086 -0.0553,0.0504 -0.42491,0.20998 -0.82131,0.35447 -1.81561,0.66181 -4.38108,2.2378 -6.43408,3.95251 -6.64182,5.54738 -12.09111,14.97043 -15.6645,27.0874 -0.49937,1.69333 -1.75797,6.71356 -2.12522,8.47693 -0.0883,0.42403 -0.21461,0.78291 -0.28068,0.7975 -0.0661,0.0146 -0.82282,-0.11859 -1.68168,-0.29599 z m -26.48645,-62.95283 c 4.24081,-1.81065 9.58708,-3.2413 14.98652,-4.01037 1.07442,-0.15304 1.99334,-0.31809 2.04204,-0.36678 0.10301,-0.10301 0.19059,-54.35453 0.0887,-54.92599 -0.0615,-0.34487 -0.13515,-0.40245 -0.7392,-0.57809 -1.5035,-0.43704 -2.38785,-1.37019 -2.69787,-2.84665 -0.0735,-0.35014 -0.22218,-0.73713 -0.33035,-0.85999 -0.61282,-0.69591 -2.97113,-1.43157 -5.28554,-1.64871 -3.98694,-0.37414 -8.33766,0.77705 -9.39355,2.48554 -0.24019,0.38864 -0.2624,0.72241 -0.47669,7.16434 -0.20307,6.10443 -0.24851,6.83069 -0.47066,7.52309 -0.24439,0.76175 -0.24588,0.91151 -0.24425,24.56454 0.001,13.08897 0.0356,23.92478 0.077,24.07955 0.10177,0.38013 0.30962,0.33076 2.44389,-0.58048 z m 40.12279,-6.45768 c 0.007,-6.83137 -0.37721,-63.48063 -0.45551,-67.19945 l -0.0877,-4.16646 -0.36036,-0.37799 c -0.81109,-0.85065 -3.30641,-1.73822 -5.74722,-2.04419 -1.5935,-0.19981 -4.81444,-0.084 -6.32483,0.22739 -2.85681,0.58889 -5.03114,1.84386 -5.81248,3.35481 -0.35692,0.69019 -0.42898,1.98587 -0.43566,7.83358 -0.005,4.65741 -0.0416,5.97036 -0.18069,6.54657 -0.1494,0.61874 -0.17405,4.70559 -0.17426,28.88883 -1.2e-4,15.49247 0.0337,28.29484 0.0751,28.44971 l 0.0754,0.28157 3.19624,-0.0829 c 4.56243,-0.11833 9.72814,0.17259 13.64668,0.76857 0.79279,0.12058 1.6982,0.22676 2.01201,0.23596 l 0.57057,0.0167 0.003,-2.73273 z"
       style="fill:#000000"
       sodipodi:nodetypes="cssccsccssssccssscssccccssssssssssssssssscccsssssscsssssscscccccsccsccsscsscssscsssccsccscscsssssccssssssccssscssccccsccsscccscccccssccsscssccccc" />
    <path
       inkscape:connector-curvature="0"
       id="path3847"
       d="m 218.30386,725.87302 c -45.15556,46.22744 -44.28677,120.29604 1.94068,165.4516 46.22744,45.15557 120.29603,44.28678 165.4516,-1.94066 45.15555,-46.22743 44.28677,-120.29604 -1.94067,-165.4516 -46.22744,-45.15556 -120.29605,-44.28677 -165.45161,1.94066 z m 13.60263,12.32616 c 37.78209,-38.67893 97.01707,-42.05329 132.32615,-7.56294 l -68.3916,70.01503 -68.41343,70.03739 c -35.30907,-34.49035 -33.3032,-93.81055 4.47888,-132.48948 z m 11.19179,147.7968 68.41343,-70.03739 68.39159,-70.01503 c 34.2307,33.43699 31.35782,91.86659 -6.42426,130.54552 -37.78208,38.67893 -96.15005,42.94389 -130.38076,9.5069 z"
       style="fill:#000000;fill-opacity:0.47692309;stroke:none;filter:url(#filter3869)" />
    <path
       style="fill:#ef0000;fill-opacity:1;stroke:none"
       d="m 216.30386,723.87302 c -45.15556,46.22744 -44.28677,120.29604 1.94068,165.4516 46.22744,45.15557 120.29603,44.28678 165.4516,-1.94066 45.15555,-46.22743 44.28677,-120.29604 -1.94067,-165.4516 -46.22744,-45.15556 -120.29605,-44.28677 -165.45161,1.94066 z m 13.60263,12.32616 c 37.78209,-38.67893 97.01707,-42.05329 132.32615,-7.56294 l -68.3916,70.01503 -68.41343,70.03739 c -35.30907,-34.49035 -33.3032,-93.81055 4.47888,-132.48948 z m 11.19179,147.7968 68.41343,-70.03739 68.39159,-70.01503 c 34.2307,33.43699 31.35782,91.86659 -6.42426,130.54552 -37.78208,38.67893 -96.15005,42.94389 -130.38076,9.5069 z"
       id="path2993"
       inkscape:connector-curvature="0" />
  </g>
</svg>
