<svg xmlns="http://www.w3.org/2000/svg" viewBox="0 0 24 24" fill="none" stroke="currentColor" stroke-width="2" stroke-linecap="round" stroke-linejoin="round" class="icon icon-tabler icons-tabler-outline icon-tabler-ad-circle-off" id="icon"><path d="M0 0h24v24H0z" stroke="none"/><path d="M4.91 4.949A9.968 9.968 0 0 0 2 12c0 5.523 4.477 10 10 10a9.968 9.968 0 0 0 7.05-2.909M20.778 16.793A9.955 9.955 0 0 0 22 12c0-5.523-4.477-10-10-10-1.74 0-3.376.444-4.8 1.225"/><path d="M7 15v-4.5a1.5 1.5 0 0 1 2.138-1.358M9.854 9.853c.094.196.146.415.146.647V15M7 13h3M14 14v1h1M17 13v-2a2 2 0 0 0-2-2h-1v1M3 3l18 18"/></svg>