<svg xmlns="http://www.w3.org/2000/svg" viewBox="0 0 24 24" fill="none" stroke="currentColor" stroke-width="2" stroke-linecap="round" stroke-linejoin="round" class="icon icon-tabler icons-tabler-outline icon-tabler-adjustments-dollar" id="icon"><path d="M0 0h24v24H0z" stroke="none"/><path d="M4 10a2 2 0 1 0 4 0 2 2 0 0 0-4 0M6 4v4M6 12v8M13.366 14.54a2 2 0 1 0-.216 3.097M12 4v10M12 18v2M16 7a2 2 0 1 0 4 0 2 2 0 0 0-4 0M18 4v1M18 9v1M21 15h-2.5a1.5 1.5 0 0 0 0 3h1a1.5 1.5 0 0 1 0 3H17M19 21v1m0-8v1"/></svg>