<svg xmlns="http://www.w3.org/2000/svg" viewBox="0 0 24 24" fill="none" stroke="currentColor" stroke-width="2" stroke-linecap="round" stroke-linejoin="round" class="icon icon-tabler icons-tabler-outline icon-tabler-adjustments-pin" id="icon"><path d="M0 0h24v24H0z" stroke="none"/><path d="M4 10a2 2 0 1 0 4 0 2 2 0 0 0-4 0M6 4v4M6 12v8M13.071 14.31A2 2 0 1 0 12 18M12 4v10M12 18v2M16 7a2 2 0 1 0 4 0 2 2 0 0 0-4 0M18 4v1M18 9v2.5M21.121 20.121a3 3 0 1 0-4.242 0c.418.419 1.125 1.045 2.121 1.879 1.051-.89 1.759-1.516 2.121-1.879zM19 18v.01"/></svg>