<svg xmlns="http://www.w3.org/2000/svg" viewBox="0 0 24 24" fill="none" stroke="currentColor" stroke-width="2" stroke-linecap="round" stroke-linejoin="round" class="icon icon-tabler icons-tabler-outline icon-tabler-adjustments-spark" id="icon"><path d="M0 0h24v24H0z" stroke="none"/><path d="M4 10a2 2 0 1 0 4 0 2 2 0 0 0-4 0M6 4v4M6 12v8M13.879 15.312a2 2 0 1 0-2.26 2.652M12 4v10M16 7a2 2 0 1 0 4 0 2 2 0 0 0-4 0M18 4v1M18 9v2.5M19 22.5a4.75 4.75 0 0 1 3.5-3.5 4.75 4.75 0 0 1-3.5-3.5 4.75 4.75 0 0 1-3.5 3.5 4.75 4.75 0 0 1 3.5 3.5"/></svg>