<svg xmlns="http://www.w3.org/2000/svg" viewBox="0 0 24 24" fill="none" stroke="currentColor" stroke-width="2" stroke-linecap="round" stroke-linejoin="round" class="icon icon-tabler icons-tabler-outline icon-tabler-alarm-smoke" id="icon"><path d="M0 0h24v24H0z" stroke="none"/><path d="m18 8-.8 3a1.25 1.25 0 0 1-1.2 1H8a1.25 1.25 0 0 1-1.2-1L6 8M3 5a1 1 0 0 1 1-1h16a1 1 0 0 1 1 1v2a1 1 0 0 1-1 1H4a1 1 0 0 1-1-1zM12 16c.643.288 1.017.756 1 1.25.017.494-.357.962-1 1.25s-1.017.756-1 1.25c-.017.494.357.962 1 1.25M7 16c.643.288 1.017.756 1 1.25.017.494-.357.962-1 1.25s-1.017.756-1 1.25c-.017.494.357.962 1 1.25M17 16c.643.288 1.017.756 1 1.25.017.494-.357.962-1 1.25s-1.017.756-1 1.25c-.017.494.357.962 1 1.25"/></svg>