<svg xmlns="http://www.w3.org/2000/svg" viewBox="0 0 24 24" fill="none" stroke="currentColor" stroke-width="2" stroke-linecap="round" stroke-linejoin="round" class="icon icon-tabler icons-tabler-outline icon-tabler-alert-hexagon-off" id="icon"><path d="M0 0h24v24H0z" stroke="none"/><path d="m18.36 18.387-5.268 3.333a2.269 2.269 0 0 1-2.184 0l-6.75-4.27A2.225 2.225 0 0 1 3 15.502V8.217c0-.809.443-1.554 1.158-1.947l1.317-.777M8.01 4l2.898-1.709a2.33 2.33 0 0 1 2.25 0l6.75 3.98h-.033c.7.398 1.13 1.143 1.125 1.948v7.284c0 .414-.116.812-.326 1.155M12 7v1M12 8v.01M3 3l18 18M12 16h.01"/></svg>