<svg xmlns="http://www.w3.org/2000/svg" viewBox="0 0 24 24" fill="none" stroke="currentColor" stroke-width="" stroke-linecap="round" stroke-linejoin="round" class="icon icon-tabler icons-tabler-outline icon-tabler-api-book" id="icon"><path d="M0 0h24v24H0z" stroke="none"/><path d="M3 19a9 9 0 0 1 9 0 9 9 0 0 1 1.006-.5M3 6a9 9 0 0 1 9 0 9 9 0 0 1 9 0M3 6v13M12 6v13M21 6v6M17.001 19a2 2 0 1 0 4 0 2 2 0 1 0-4 0M19.001 15.5V17M19.001 21v1.5M22.032 17.25l-1.299.75M17.27 20l-1.3.75M15.97 17.25l1.3.75M20.733 20l1.3.75"/></svg>