<svg xmlns="http://www.w3.org/2000/svg" viewBox="0 0 24 24" fill="none" stroke="currentColor" stroke-width="2" stroke-linecap="round" stroke-linejoin="round" class="icon icon-tabler icons-tabler-outline icon-tabler-apps-off" id="icon"><path d="M0 0h24v24H0z" stroke="none"/><path d="M8 4h1a1 1 0 0 1 1 1v1m-.29 3.704A1 1 0 0 1 9 10H5a1 1 0 0 1-1-1V5c0-.276.111-.525.292-.706M18 14h1a1 1 0 0 1 1 1v1m-.29 3.704A1 1 0 0 1 19 20h-4a1 1 0 0 1-1-1v-4c0-.276.111-.525.292-.706M4 15a1 1 0 0 1 1-1h4a1 1 0 0 1 1 1v4a1 1 0 0 1-1 1H5a1 1 0 0 1-1-1zM14 7h6M17 4v6M3 3l18 18"/></svg>