<svg xmlns="http://www.w3.org/2000/svg" viewBox="0 0 24 24" fill="none" stroke="currentColor" stroke-width="2" stroke-linecap="round" stroke-linejoin="round" class="icon icon-tabler icons-tabler-outline icon-tabler-backhoe" id="icon"><path d="M0 0h24v24H0z" stroke="none"/><path d="M2 17a2 2 0 1 0 4 0 2 2 0 1 0-4 0M11 17a2 2 0 1 0 4 0 2 2 0 1 0-4 0M13 19H4M4 15h9"/><path d="M8 12V7h2a3 3 0 0 1 3 3v5"/><path d="M5 15v-2a1 1 0 0 1 1-1h7M21.12 9.88 18 5l-5 5"/><path d="M21.12 9.88A3 3 0 0 1 19 15a3 3 0 0 1-2.12-.88l4.24-4.24z"/></svg>