<svg xmlns="http://www.w3.org/2000/svg" viewBox="0 0 24 24" fill="none" stroke="currentColor" stroke-width="2" stroke-linecap="round" stroke-linejoin="round" class="icon icon-tabler icons-tabler-outline icon-tabler-ball-volleyball" id="icon"><path d="M0 0h24v24H0z" stroke="none"/><path d="M3 12a9 9 0 1 0 18 0 9 9 0 1 0-18 0"/><path d="M12 12a8 8 0 0 0 8 4M7.5 13.5A12 12 0 0 0 16 20"/><path d="M12 12a8 8 0 0 0-7.464 4.928M12.951 7.353a12 12 0 0 0-9.88 4.111"/><path d="M12 12a8 8 0 0 0-.536-8.928M15.549 15.147a12 12 0 0 0 1.38-10.611"/></svg>