<svg xmlns="http://www.w3.org/2000/svg" viewBox="0 0 24 24" fill="none" stroke="currentColor" stroke-width="2" stroke-linecap="round" stroke-linejoin="round" class="icon icon-tabler icons-tabler-outline icon-tabler-basket-dollar" id="icon"><path d="M0 0h24v24H0z" stroke="none"/><path d="m17 10-2-6M7 10l2-6M13 20H7.244a3 3 0 0 1-2.965-2.544l-1.255-7.152A2 2 0 0 1 5.001 8H19a2 2 0 0 1 1.977 2.304"/><path d="M10 14a2 2 0 1 0 4 0 2 2 0 0 0-4 0M21 15h-2.5a1.5 1.5 0 0 0 0 3h1a1.5 1.5 0 0 1 0 3H17M19 21v1m0-8v1"/></svg>