<svg xmlns="http://www.w3.org/2000/svg" viewBox="0 0 24 24" fill="none" stroke="currentColor" stroke-width="2" stroke-linecap="round" stroke-linejoin="round" class="icon icon-tabler icons-tabler-outline icon-tabler-basket-cog" id="icon"><path d="M0 0h24v24H0z" stroke="none"/><path d="m17 10-2-6M7 10l2-6M12 20H7.244a3 3 0 0 1-2.965-2.544l-1.255-7.152A2 2 0 0 1 5.001 8H19a2 2 0 0 1 1.977 2.304l-.267 1.522"/><path d="M10 14a2 2 0 1 0 4 0 2 2 0 0 0-4 0M17.001 19a2 2 0 1 0 4 0 2 2 0 1 0-4 0M19.001 15.5V17M19.001 21v1.5M22.032 17.25l-1.299.75M17.27 20l-1.3.75M15.97 17.25l1.3.75M20.733 20l1.3.75"/></svg>