<svg xmlns="http://www.w3.org/2000/svg" viewBox="0 0 24 24" fill="none" stroke="currentColor" stroke-width="2" stroke-linecap="round" stroke-linejoin="round" class="icon icon-tabler icons-tabler-outline icon-tabler-basket-question" id="icon"><path d="M0 0h24v24H0z" stroke="none"/><path d="m17 10-2-6M7 10l2-6M15 20H7.244a3 3 0 0 1-2.965-2.544l-1.255-7.152A2 2 0 0 1 5.001 8H19a2 2 0 0 1 1.977 2.304l-.161.918"/><path d="M12 16a2 2 0 1 0 0-4 2 2 0 0 0 0 4zM19 22v.01M19 19a2.003 2.003 0 0 0 .914-3.782 1.98 1.98 0 0 0-2.414.483"/></svg>