<svg xmlns="http://www.w3.org/2000/svg" viewBox="0 0 24 24" fill="none" stroke="currentColor" stroke-width="2" stroke-linecap="round" stroke-linejoin="round" class="icon icon-tabler icons-tabler-outline icon-tabler-battery-eco" id="icon"><path d="M0 0h24v24H0z" stroke="none"/><path d="M4 9a2 2 0 0 1 2-2h11a2 2 0 0 1 2 2v.5a.5.5 0 0 0 .5.5.5.5 0 0 1 .5.5v3a.5.5 0 0 1-.5.5.5.5 0 0 0-.5.5v.5a2 2 0 0 1-2 2h-5.5"/><path d="M3 16.143C3 13.303 5.09 11 7.667 11H10v.857C10 14.697 7.91 17 5.333 17H3v-.857zM3 20v-3"/></svg>