<svg xmlns="http://www.w3.org/2000/svg" viewBox="0 0 24 24" fill="none" stroke="currentColor" stroke-width="2" stroke-linecap="round" stroke-linejoin="round" class="icon icon-tabler icons-tabler-outline icon-tabler-battery-vertical-eco" id="icon"><path d="M0 0h24v24H0z" stroke="none"/><path d="M7 18V7a2 2 0 0 1 2-2h.5c.276 0 .5-.224.5-.5s.224-.5.5-.5h3c.276 0 .5.224.5.5s.224.5.5.5h.5a2 2 0 0 1 2 2v1M9 20a2 2 0 0 1-2-2M13 17.143C13 14.303 15.09 12 17.667 12H20v.857C20 15.697 17.91 18 15.333 18H13zM13 21v-3"/></svg>