<svg xmlns="http://www.w3.org/2000/svg" viewBox="0 0 24 24" fill="none" stroke="currentColor" stroke-width="2" stroke-linecap="round" stroke-linejoin="round" class="icon icon-tabler icons-tabler-outline icon-tabler-battery-vertical-charging-2" id="icon"><path d="M0 0h24v24H0z" stroke="none"/><path d="M7 18V7a2 2 0 0 1 2-2h.5c.276 0 .5-.224.5-.5s.224-.5.5-.5h3c.276 0 .5.224.5.5s.224.5.5.5h.5a2 2 0 0 1 2 2v1M7 18a2 2 0 0 0 2 2h1M12 14h6v2a2 2 0 0 1-2 2h-2a2 2 0 0 1-2-2zM15 21v-3M13 14v-2.5M17 14v-2.5"/></svg>