<svg xmlns="http://www.w3.org/2000/svg" viewBox="0 0 24 24" fill="none" stroke="currentColor" stroke-width="2" stroke-linecap="round" stroke-linejoin="round" class="icon icon-tabler icons-tabler-outline icon-tabler-bell-heart" id="icon"><path d="M0 0h24v24H0z" stroke="none"/><path d="M10 17H4a4 4 0 0 0 2-3v-3a7 7 0 0 1 4-6 2 2 0 1 1 4 0 7 7 0 0 1 4 6M9 17v1c0 1.408.97 2.59 2.28 2.913M18 22l3.35-3.284a2.143 2.143 0 0 0 .005-3.071 2.242 2.242 0 0 0-3.129-.006l-.224.22-.223-.22a2.242 2.242 0 0 0-3.128-.006 2.143 2.143 0 0 0-.006 3.071L18 22z"/></svg>