<svg xmlns="http://www.w3.org/2000/svg" viewBox="0 0 24 24" fill="none" stroke="currentColor" stroke-width="2" stroke-linecap="round" stroke-linejoin="round" class="icon icon-tabler icons-tabler-outline icon-tabler-binary-tree" id="icon"><path d="M0 0h24v24H0z" stroke="none"/><path d="M6 20a2 2 0 1 0-4 0 2 2 0 0 0 4 0zM16 4a2 2 0 1 0-4 0 2 2 0 0 0 4 0zM16 20a2 2 0 1 0-4 0 2 2 0 0 0 4 0zM11 12a2 2 0 1 0-4 0 2 2 0 0 0 4 0zM21 12a2 2 0 1 0-4 0 2 2 0 0 0 4 0zM5.058 18.306l2.88-4.606M10.061 10.303l2.877-4.604M10.065 13.705l2.876 4.6M15.063 5.7l2.881 4.61"/></svg>