<svg xmlns="http://www.w3.org/2000/svg" viewBox="0 0 24 24" fill="none" stroke="currentColor" stroke-width="2" stroke-linecap="round" stroke-linejoin="round" class="icon icon-tabler icons-tabler-outline icon-tabler-binary-off" id="icon"><path d="M0 0h24v24H0z" stroke="none"/><path d="M11 7V5h-1M18 19v-1M15.5 5h2a.5.5 0 0 1 .5.5v4a.5.5 0 0 1-.5.5h-2a.5.5 0 0 1-.5-.5v-4a.5.5 0 0 1 .5-.5zM10.5 14h2a.5.5 0 0 1 .5.5v4a.5.5 0 0 1-.5.5h-2a.5.5 0 0 1-.5-.5v-4a.5.5 0 0 1 .5-.5zM6 10v.01M6 19v.01M3 3l18 18"/></svg>