<svg xmlns="http://www.w3.org/2000/svg" viewBox="0 0 24 24" fill="none" stroke="currentColor" stroke-width="2" stroke-linecap="round" stroke-linejoin="round" class="icon icon-tabler icons-tabler-outline icon-tabler-blade" id="icon"><path d="M0 0h24v24H0z" stroke="none"/><path d="m17.707 3.707 2.586 2.586a1 1 0 0 1 0 1.414l-.586.586a1 1 0 0 0 0 1.414l.586.586a1 1 0 0 1 0 1.414l-8.586 8.586a1 1 0 0 1-1.414 0l-.586-.586a1 1 0 0 0-1.414 0l-.586.586a1 1 0 0 1-1.414 0l-2.586-2.586a1 1 0 0 1 0-1.414l.586-.586a1 1 0 0 0 0-1.414l-.586-.586a1 1 0 0 1 0-1.414l8.586-8.586a1 1 0 0 1 1.414 0l.586.586a1 1 0 0 0 1.414 0l.586-.586a1 1 0 0 1 1.414 0zM8 16l3.2-3.2M12.8 11.2 16 8M14 8l2 2M8 14l2 2"/><path d="M11 12a1 1 0 1 0 2 0 1 1 0 1 0-2 0"/></svg>