<svg xmlns="http://www.w3.org/2000/svg" viewBox="0 0 24 24" fill="none" stroke="currentColor" stroke-width="2" stroke-linecap="round" stroke-linejoin="round" class="icon icon-tabler icons-tabler-outline icon-tabler-body-scan" id="icon"><path d="M0 0h24v24H0z" stroke="none"/><path d="M4 8V6a2 2 0 0 1 2-2h2M4 16v2a2 2 0 0 0 2 2h2M16 4h2a2 2 0 0 1 2 2v2M16 20h2a2 2 0 0 0 2-2v-2M11 8a1 1 0 1 0 2 0 1 1 0 1 0-2 0M10 17v-1a2 2 0 1 1 4 0v1M8 10c.666.666 1.334 1 2 1h4c.666 0 1.334-.334 2-1M12 11v3"/></svg>