<svg xmlns="http://www.w3.org/2000/svg" viewBox="0 0 24 24" fill="none" stroke="currentColor" stroke-width="" stroke-linecap="round" stroke-linejoin="round" class="icon icon-tabler icons-tabler-outline icon-tabler-bot-id" id="icon"><path d="M0 0h24v24H0z" stroke="none"/><path d="M7 10.5C7 9.672 7.746 9 8.667 9h6.666c.92 0 1.667.672 1.667 1.5v3c0 .828-.746 1.5-1.667 1.5H8.667C7.747 15 7 14.328 7 13.5v-3M12 7v2M10 12v.01M14 12v.01M4 8V6a2 2 0 0 1 2-2h2M4 16v2a2 2 0 0 0 2 2h2M16 4h2a2 2 0 0 1 2 2v2M16 20h2a2 2 0 0 0 2-2v-2"/></svg>