<svg xmlns="http://www.w3.org/2000/svg" viewBox="0 0 24 24" fill="none" stroke="currentColor" stroke-width="2" stroke-linecap="round" stroke-linejoin="round" class="icon icon-tabler icons-tabler-outline icon-tabler-brand-python" id="icon"><path d="M0 0h24v24H0z" stroke="none"/><path d="M12 9H5a2 2 0 0 0-2 2v4a2 2 0 0 0 2 2h3M12 15h7a2 2 0 0 0 2-2V9a2 2 0 0 0-2-2h-3"/><path d="M8 9V5a2 2 0 0 1 2-2h4a2 2 0 0 1 2 2v5a2 2 0 0 1-2 2h-4a2 2 0 0 0-2 2v5a2 2 0 0 0 2 2h4a2 2 0 0 0 2-2v-4M11 6v.01M13 18v.01"/></svg>