<svg xmlns="http://www.w3.org/2000/svg" viewBox="0 0 24 24" fill="none" stroke="currentColor" stroke-width="2" stroke-linecap="round" stroke-linejoin="round" class="icon icon-tabler icons-tabler-outline icon-tabler-brand-sentry" id="icon"><path d="M0 0h24v24H0z" stroke="none"/><path d="M3 18a1.93 1.93 0 0 0 .306 1.076A2 2 0 0 0 4.89 20c.646.033-.537 0 .11 0h3a4.992 4.992 0 0 0-3.66-4.81c.558-.973 1.24-2.149 2.04-3.531A9 9 0 0 1 12 20h7a2 2 0 0 0 1.84-2.75L13.74 5a2 2 0 0 0-3.5 0L8.4 8.176C12.882 10.226 16 14.747 16 20"/></svg>