<svg xmlns="http://www.w3.org/2000/svg" viewBox="0 0 24 24" fill="none" stroke="currentColor" stroke-width="2" stroke-linecap="round" stroke-linejoin="round" class="icon icon-tabler icons-tabler-outline icon-tabler-brand-sugarizer" id="icon"><path d="M0 0h24v24H0z" stroke="none"/><path d="m14.277 16 3.252-3.252a1.61 1.61 0 0 0-2.277-2.276L12 13.723l-3.252-3.251a1.61 1.61 0 0 0-2.276 2.276L9.723 16l-3.251 3.252a1.61 1.61 0 1 0 2.276 2.277L12 18.277l3.252 3.252a1.61 1.61 0 1 0 2.277-2.277L14.277 16zM9 5a3 3 0 1 0 6 0 3 3 0 1 0-6 0"/></svg>