<svg xmlns="http://www.w3.org/2000/svg" viewBox="0 0 24 24" fill="none" stroke="currentColor" stroke-width="2" stroke-linecap="round" stroke-linejoin="round" class="icon icon-tabler icons-tabler-outline icon-tabler-brand-dropbox" id="icon"><path d="M0 0h24v24H0z" stroke="none"/><path d="M7.5 10.625 3 7.812 7.5 5 12 7.813m-4.5 2.812L12 7.812m-4.5 2.813L3 13.448l4.5 2.802m0-5.625 4.5 2.823m0-5.636 4.5 2.791L21 7.791 16.5 5 12 7.813zM7.5 16.25l4.5-2.802M7.5 16.25v1.123L12 20l4.5-2.627V16.25M12 13.448l4.5-2.823 4.5 2.823-4.5 2.802M12 13.448l4.5 2.802"/></svg>