<svg xmlns="http://www.w3.org/2000/svg" viewBox="0 0 24 24" fill="none" stroke="currentColor" stroke-width="2" stroke-linecap="round" stroke-linejoin="round" class="icon icon-tabler icons-tabler-outline icon-tabler-brand-itch" id="icon"><path d="M0 0h24v24H0z" stroke="none"/><path d="M2 7v1c0 1.087 1.078 2 2 2 1.107 0 2-.91 2-2 0 1.09.893 2 2 2s2-.91 2-2c0 1.09.893 2 2 2s2-.91 2-2c0 1.09.893 2 2 2s2-.91 2-2c0 1.09.893 2 2 2 .922 0 2-.913 2-2V7c-.009-.275-.538-.964-1.588-2.068A3 3 0 0 0 18.238 4H5.762a3 3 0 0 0-2.174.932C2.538 6.036 2.008 6.725 2 7zM4 10c-.117 6.28.154 9.765.814 10.456 1.534.367 4.355.535 7.186.536 2.83-.001 5.652-.169 7.186-.536.99-1.037.898-9.559.814-10.456"/><path d="m10 16 2-2 2 2M12 14v4"/></svg>