<svg xmlns="http://www.w3.org/2000/svg" viewBox="0 0 24 24" fill="none" stroke="currentColor" stroke-width="2" stroke-linecap="round" stroke-linejoin="round" class="icon icon-tabler icons-tabler-outline icon-tabler-brand-bumble" id="icon"><path d="M0 0h24v24H0z" stroke="none"/><path d="M7 12h10M9 8h6M10 16h4M16.268 3H7.732a1.46 1.46 0 0 0-1.268.748l-4.268 7.509a1.507 1.507 0 0 0 0 1.486l4.268 7.509c.26.462.744.747 1.268.748h8.536a1.46 1.46 0 0 0 1.268-.748l4.268-7.509a1.507 1.507 0 0 0 0-1.486l-4.268-7.509A1.46 1.46 0 0 0 16.268 3z"/></svg>