<svg xmlns="http://www.w3.org/2000/svg" viewBox="0 0 24 24" fill="none" stroke="currentColor" stroke-width="2" stroke-linecap="round" stroke-linejoin="round" class="icon icon-tabler icons-tabler-outline icon-tabler-brand-tripadvisor" id="icon"><path d="M0 0h24v24H0z" stroke="none"/><path d="M5 13.5a1.5 1.5 0 1 0 3 0 1.5 1.5 0 1 0-3 0M16 13.5a1.5 1.5 0 1 0 3 0 1.5 1.5 0 1 0-3 0"/><path d="M17.5 9a4.5 4.5 0 1 0 3.5 1.671L22 9h-4.5zM6.5 9A4.5 4.5 0 1 1 3 10.671L2 9h4.5z"/><path d="m10.5 15.5 1.5 2 1.5-2M9 6.75c2-.667 4-.667 6 0"/></svg>