<svg xmlns="http://www.w3.org/2000/svg" viewBox="0 0 24 24" fill="none" stroke="currentColor" stroke-width="" stroke-linecap="round" stroke-linejoin="round" class="icon icon-tabler icons-tabler-outline icon-tabler-brand-denodo" id="icon"><path d="M0 0h24v24H0z" stroke="none"/><path d="M11 11h2v2h-2v-2M3.634 15.634l1.732-1 1 1.732-1.732 1-1-1.732M11 19h2v2h-2v-2M18.634 14.634l1.732 1-1 1.732-1.732-1 1-1.732M17.634 7.634l1.732-1 1 1.732-1.732 1-1-1.732M11 3h2v2h-2V3M3.634 8.366l1-1.732 1.732 1-1 1.732-1.732-1"/></svg>