<svg xmlns="http://www.w3.org/2000/svg" viewBox="0 0 24 24" fill="none" stroke="currentColor" stroke-width="2" stroke-linecap="round" stroke-linejoin="round" class="icon icon-tabler icons-tabler-outline icon-tabler-brand-golang" id="icon"><path d="M0 0h24v24H0z" stroke="none"/><path d="M15.695 14.305c1.061 1.06 2.953.888 4.226-.384 1.272-1.273 1.444-3.165.384-4.226-1.061-1.06-2.953-.888-4.226.384-1.272 1.273-1.444 3.165-.384 4.226zM12.68 9.233c-1.084-.497-2.545-.191-3.591.846-1.284 1.273-1.457 3.165-.388 4.226 1.07 1.06 2.978.888 4.261-.384A3.669 3.669 0 0 0 14 12h-2.427M5.5 15H4M6 9H4M5 12H2"/></svg>