<svg xmlns="http://www.w3.org/2000/svg" viewBox="0 0 24 24" fill="none" stroke="currentColor" stroke-width="2" stroke-linecap="round" stroke-linejoin="round" class="icon icon-tabler icons-tabler-outline icon-tabler-brand-cakephp" id="icon"><path d="M0 0h24v24H0z" stroke="none"/><path d="m12 11 8 2c1.361-.545 2-1.248 2-2V7.2C22 5.435 17.521 4 11.998 4 6.476 4 2 5.435 2 7.2V10c0 1.766 4.478 4 10 4v-3zM12 14v3l8 2c1.362-.547 2-1.246 2-2v-3c0 .754-.638 1.453-2 2l-8-2zM2 17c0 1.766 4.476 3 9.998 3L12 17c-5.522 0-10-1.734-10-3.5V17zM2 10v4M22 10v4"/></svg>