<svg xmlns="http://www.w3.org/2000/svg" viewBox="0 0 24 24" fill="none" stroke="currentColor" stroke-width="2" stroke-linecap="round" stroke-linejoin="round" class="icon icon-tabler icons-tabler-outline icon-tabler-brand-blackberry" id="icon"><path d="M0 0h24v24H0z" stroke="none"/><path d="M7 6a1 1 0 0 0-1-1H4l-.5 2H6a1 1 0 0 0 1-1zM6 12a1 1 0 0 0-1-1H3l-.5 2H5a1 1 0 0 0 1-1zM13 12a1 1 0 0 0-1-1h-2l-.5 2H12a1 1 0 0 0 1-1zM14 6a1 1 0 0 0-1-1h-2l-.5 2H13a1 1 0 0 0 1-1zM12 18a1 1 0 0 0-1-1H9l-.5 2H11a1 1 0 0 0 1-1zM20 15a1 1 0 0 0-1-1h-2l-.5 2H19a1 1 0 0 0 1-1zM21 9a1 1 0 0 0-1-1h-2l-.5 2H20a1 1 0 0 0 1-1z"/></svg>