<svg xmlns="http://www.w3.org/2000/svg" viewBox="0 0 24 24" fill="none" stroke="currentColor" stroke-width="2" stroke-linecap="round" stroke-linejoin="round" class="icon icon-tabler icons-tabler-outline icon-tabler-brand-evernote" id="icon"><path d="M0 0h24v24H0z" stroke="none"/><path d="M4 8h5V3"/><path d="M17.9 19c.6-2.5 1.1-5.471 1.1-9 0-4.5-2-5-3-5-1.906 0-3-.5-3.5-1-.354-.354-.5-1-1.5-1H9L4 8c0 6 2.5 8 5 8 1 0 1.5-.5 2-1.5s1.414-.326 2.5 0c1.044.313 2.01.255 2.5.5 1 .5 2 1.5 2 3 0 .5 0 3-3 3s-3-3-1-3M15 10h1"/></svg>