<svg xmlns="http://www.w3.org/2000/svg" viewBox="0 0 24 24" fill="none" stroke="currentColor" stroke-width="2" stroke-linecap="round" stroke-linejoin="round" class="icon icon-tabler icons-tabler-outline icon-tabler-brand-weibo" id="icon"><path d="M0 0h24v24H0z" stroke="none"/><path d="M19 14.127C19 17.2 15.498 20 11 20c-4.126 0-8-2.224-8-5.565 0-1.78.984-3.737 2.7-5.567 2.362-2.51 5.193-3.687 6.551-2.238.415.44.752 1.39.749 2.062 2-1.615 4.308.387 3.5 2.693 1.26.557 2.5.538 2.5 2.742zM15 4h1a5 5 0 0 1 5 5v1"/></svg>