<svg xmlns="http://www.w3.org/2000/svg" viewBox="0 0 24 24" fill="none" stroke="currentColor" stroke-width="2" stroke-linecap="round" stroke-linejoin="round" class="icon icon-tabler icons-tabler-outline icon-tabler-brand-adobe-xd" id="icon"><path d="M0 0h24v24H0z" stroke="none"/><path d="M3 12c0-4.243 0-6.364 1.318-7.682S7.758 3 12 3s6.364 0 7.682 1.318S21 7.758 21 12s0 6.364-1.318 7.682S16.242 21 12 21s-6.364 0-7.682-1.318S3 16.242 3 12M6.316 8.21 12 15.79m-5.684 0L12 8.21"/><path d="M17.684 11.053v3.79c0 1.044-.49.946-1.42.946a2.368 2.368 0 0 1 0-4.736zm0 0V8.21"/></svg>