<svg xmlns="http://www.w3.org/2000/svg" viewBox="0 0 24 24" fill="none" stroke="currentColor" stroke-width="2" stroke-linecap="round" stroke-linejoin="round" class="icon icon-tabler icons-tabler-outline icon-tabler-brand-monday" id="icon"><path d="M0 0h24v24H0z" stroke="none"/><path d="M18 15.5a1.5 1.5 0 1 0 3 0 1.5 1.5 0 1 0-3 0M9.5 7a1.5 1.5 0 0 1 1.339 2.177l-4.034 7.074c-.264.447-.75.749-1.305.749a1.5 1.5 0 0 1-1.271-2.297l3.906-6.827A1.5 1.5 0 0 1 9.5 7zM16.5 7a1.5 1.5 0 0 1 1.339 2.177l-4.034 7.074c-.264.447-.75.749-1.305.749a1.5 1.5 0 0 1-1.271-2.297l3.906-6.827A1.5 1.5 0 0 1 16.5 7z"/></svg>