<svg xmlns="http://www.w3.org/2000/svg" viewBox="0 0 24 24" fill="none" stroke="currentColor" stroke-width="2" stroke-linecap="round" stroke-linejoin="round" class="icon icon-tabler icons-tabler-outline icon-tabler-brand-vlc" id="icon"><path d="M0 0h24v24H0z" stroke="none"/><path d="m13.79 4.337 3.101 9.305c.33.985-.113 2.07-1.02 2.499a9.148 9.148 0 0 1-7.742 0c-.907-.428-1.35-1.514-1.02-2.499l3.1-9.305C10.476 3.537 11.194 3 12 3c.807 0 1.525.537 1.79 1.337z"/><path d="M7 14H5.571a2 2 0 0 0-1.923 1.45l-.571 2A2 2 0 0 0 5 20h13.998a2 2 0 0 0 1.923-2.55l-.572-2A2 2 0 0 0 18.426 14H17"/></svg>