<svg xmlns="http://www.w3.org/2000/svg" viewBox="0 0 24 24" fill="none" stroke="currentColor" stroke-width="2" stroke-linecap="round" stroke-linejoin="round" class="icon icon-tabler icons-tabler-outline icon-tabler-brand-graphql" id="icon"><path d="M0 0h24v24H0z" stroke="none"/><path d="m4 8 8-5 8 5v8l-8 5-8-5z"/><path d="m12 4 7.5 12h-15z"/><path d="M11 3a1 1 0 1 0 2 0 1 1 0 0 0-2 0M11 21a1 1 0 1 0 2 0 1 1 0 0 0-2 0M3 8a1 1 0 1 0 2 0 1 1 0 0 0-2 0M3 16a1 1 0 1 0 2 0 1 1 0 0 0-2 0M19 16a1 1 0 1 0 2 0 1 1 0 0 0-2 0M19 8a1 1 0 1 0 2 0 1 1 0 0 0-2 0"/></svg>