<svg xmlns="http://www.w3.org/2000/svg" viewBox="0 0 24 24" fill="none" stroke="currentColor" stroke-width="" stroke-linecap="round" stroke-linejoin="round" class="icon icon-tabler icons-tabler-outline icon-tabler-brand-dropbox" id="icon"><path d="M0 0h24v24H0z" stroke="none"/><path d="M7.5 10.625 3 7.812 7.5 5 12 7.813m-4.5 2.812L12 7.812m-4.5 2.813L3 13.448l4.5 2.802m0-5.625 4.5 2.823m0-5.636 4.5 2.791L21 7.791 16.5 5 12 7.813m-4.5 8.438 4.5-2.802m-4.5 2.802v1.123l4.5 2.627 4.5-2.627v-1.123M12 13.449l4.5-2.823 4.5 2.823-4.5 2.802M12 13.449l4.5 2.802"/></svg>