<svg xmlns="http://www.w3.org/2000/svg" viewBox="0 0 24 24" fill="none" stroke="currentColor" stroke-width="2" stroke-linecap="round" stroke-linejoin="round" class="icon icon-tabler icons-tabler-outline icon-tabler-brand-notion" id="icon"><path d="M0 0h24v24H0z" stroke="none"/><path d="M11 17.5V11h.5l4 6h.5v-6.5"/><path d="m19.077 20.071-11.53.887a1 1 0 0 1-.876-.397L4.2 17.267a1 1 0 0 1-.2-.6V5.926a1 1 0 0 1 .923-.997l11.389-.876a2 2 0 0 1 1.262.33l1.535 1.023A2 2 0 0 1 20 7.07v12.004a1 1 0 0 1-.923.997zM4.5 5.5 7 8"/><path d="M20 7 7 8v12.5"/></svg>