<svg xmlns="http://www.w3.org/2000/svg" viewBox="0 0 24 24" fill="none" stroke="currentColor" stroke-width="2" stroke-linecap="round" stroke-linejoin="round" class="icon icon-tabler icons-tabler-outline icon-tabler-brand-google-home" id="icon"><path d="M0 0h24v24H0z" stroke="none"/><path d="M19.072 21H4.928A1.928 1.928 0 0 1 3 19.072v-6.857c0-.512.203-1 .566-1.365l7.07-7.063a1.928 1.928 0 0 1 2.727 0l7.071 7.063c.363.362.566.853.566 1.365v6.857A1.928 1.928 0 0 1 19.072 21z"/><path d="M7 13v4h10v-4l-5-5M14.8 5.2 3 17M7 17v4M17 17v4"/></svg>