<svg xmlns="http://www.w3.org/2000/svg" viewBox="0 0 24 24" fill="none" stroke="currentColor" stroke-width="2" stroke-linecap="round" stroke-linejoin="round" class="icon icon-tabler icons-tabler-outline icon-tabler-brand-blogger" id="icon"><path d="M0 0h24v24H0z" stroke="none"/><path d="M8 21h8a5 5 0 0 0 5-5v-3a3 3 0 0 0-3-3h-1V8a5 5 0 0 0-5-5H8a5 5 0 0 0-5 5v8a5 5 0 0 0 5 5z"/><path d="M7 8.5A1.5 1.5 0 0 1 8.5 7h3A1.5 1.5 0 0 1 13 8.5v0a1.5 1.5 0 0 1-1.5 1.5h-3A1.5 1.5 0 0 1 7 8.5zM7 15.5A1.5 1.5 0 0 1 8.5 14h7a1.5 1.5 0 0 1 1.5 1.5v0a1.5 1.5 0 0 1-1.5 1.5h-7A1.5 1.5 0 0 1 7 15.5z"/></svg>