<svg xmlns="http://www.w3.org/2000/svg" viewBox="0 0 24 24" fill="none" stroke="currentColor" stroke-width="2" stroke-linecap="round" stroke-linejoin="round" class="icon icon-tabler icons-tabler-outline icon-tabler-brand-terraform" id="icon"><path d="M0 0h24v24H0z" stroke="none"/><path d="M15 15.5 3.524 9.284A1 1 0 0 1 3 8.404V4.35a1.35 1.35 0 0 1 2.03-1.166L15 9v10.65a1.35 1.35 0 0 1-2.03 1.166l-3.474-2.027A1 1 0 0 1 9 17.926V6M15 15.5l5.504-3.21a1 1 0 0 0 .496-.864V7.85a1.35 1.35 0 0 0-2.03-1.166L15 9"/></svg>