<svg xmlns="http://www.w3.org/2000/svg" viewBox="0 0 24 24" fill="none" stroke="currentColor" stroke-width="2" stroke-linecap="round" stroke-linejoin="round" class="icon icon-tabler icons-tabler-outline icon-tabler-brand-ubuntu" id="icon"><path d="M0 0h24v24H0z" stroke="none"/><path d="M10 5a2 2 0 1 0 4 0 2 2 0 1 0-4 0"/><path d="M17.723 7.41a7.992 7.992 0 0 0-3.74-2.162m-3.971 0a7.993 7.993 0 0 0-3.789 2.216m-1.881 3.215A8 8 0 0 0 4 12.999c0 .738.1 1.453.287 2.132m1.96 3.428a7.993 7.993 0 0 0 3.759 2.19m4 0a7.993 7.993 0 0 0 3.747-2.186m1.962-3.43a8.008 8.008 0 0 0 .287-2.131c0-.764-.107-1.503-.307-2.203"/><path d="M3 17a2 2 0 1 0 4 0 2 2 0 1 0-4 0M17 17a2 2 0 1 0 4 0 2 2 0 1 0-4 0"/></svg>