<svg xmlns="http://www.w3.org/2000/svg" viewBox="0 0 24 24" fill="none" stroke="currentColor" stroke-width="2" stroke-linecap="round" stroke-linejoin="round" class="icon icon-tabler icons-tabler-outline icon-tabler-bucket-off" id="icon"><path d="M0 0h24v24H0z" stroke="none"/><path d="M5.029 5.036C4.374 5.616 4 6.286 4 7c0 2.033 3.033 3.712 6.96 3.967m3.788-.21C17.812 10.198 20 8.728 20 7c0-2.21-3.582-4-8-4-1.605 0-3.1.236-4.352.643"/><path d="M4 7c0 .664.088 1.324.263 1.965L7 19c.5 1.5 2.239 2 5 2s4.5-.5 5-2c.1-.3.252-.812.457-1.535m.862-3.146c.262-.975.735-2.76 1.418-5.354A7.45 7.45 0 0 0 20 7M3 3l18 18"/></svg>