<svg xmlns="http://www.w3.org/2000/svg" viewBox="0 0 24 24" fill="none" stroke="currentColor" stroke-width="2" stroke-linecap="round" stroke-linejoin="round" class="icon icon-tabler icons-tabler-outline icon-tabler-building-carousel" id="icon"><path d="M0 0h24v24H0z" stroke="none"/><path d="M6 12a6 6 0 1 0 12 0 6 6 0 1 0-12 0"/><path d="M3 8a2 2 0 1 0 4 0 2 2 0 1 0-4 0M10 4a2 2 0 1 0 4 0 2 2 0 1 0-4 0M17 8a2 2 0 1 0 4 0 2 2 0 1 0-4 0M3 16a2 2 0 1 0 4 0 2 2 0 1 0-4 0M17 16a2 2 0 1 0 4 0 2 2 0 1 0-4 0M8 22l4-10 4 10"/></svg>