<svg xmlns="http://www.w3.org/2000/svg" viewBox="0 0 24 24" fill="none" stroke="currentColor" stroke-width="2" stroke-linecap="round" stroke-linejoin="round" class="icon icon-tabler icons-tabler-outline icon-tabler-building-mosque" id="icon"><path d="M0 0h24v24H0z" stroke="none"/><path d="M3 21h7v-2a2 2 0 1 1 4 0v2h7M4 21V11M20 21V11M4 16h3v-3h10v3h3M17 13a5 5 0 0 0-10 0M21 10.5c0-.329-.077-.653-.224-.947L20 8l-.776 1.553A2.118 2.118 0 0 0 19 10.5a.5.5 0 0 0 .5.5h1a.5.5 0 0 0 .5-.5zM5 10.5c0-.329-.077-.653-.224-.947L4 8l-.776 1.553A2.118 2.118 0 0 0 3 10.5a.5.5 0 0 0 .5.5h1a.5.5 0 0 0 .5-.5zM12 2a2 2 0 1 0 2 2M12 6v2"/></svg>