<svg xmlns="http://www.w3.org/2000/svg" viewBox="0 0 24 24" fill="none" stroke="currentColor" stroke-width="2" stroke-linecap="round" stroke-linejoin="round" class="icon icon-tabler icons-tabler-outline icon-tabler-calculator" id="icon"><path d="M0 0h24v24H0z" stroke="none"/><path d="M4 5a2 2 0 0 1 2-2h12a2 2 0 0 1 2 2v14a2 2 0 0 1-2 2H6a2 2 0 0 1-2-2z"/><path d="M8 8a1 1 0 0 1 1-1h6a1 1 0 0 1 1 1v1a1 1 0 0 1-1 1H9a1 1 0 0 1-1-1zM8 14v.01M12 14v.01M16 14v.01M8 17v.01M12 17v.01M16 17v.01"/></svg>