<svg xmlns="http://www.w3.org/2000/svg" viewBox="0 0 24 24" fill="none" stroke="currentColor" stroke-width="2" stroke-linecap="round" stroke-linejoin="round" class="icon icon-tabler icons-tabler-outline icon-tabler-camera-spark" id="icon"><path d="M0 0h24v24H0z" stroke="none"/><path d="M11.5 20H5a2 2 0 0 1-2-2V9a2 2 0 0 1 2-2h1a2 2 0 0 0 2-2 1 1 0 0 1 1-1h6a1 1 0 0 1 1 1 2 2 0 0 0 2 2h1a2 2 0 0 1 2 2v3"/><path d="M9 13a3 3 0 1 0 6 0 3 3 0 0 0-6 0M19 22.5a4.75 4.75 0 0 1 3.5-3.5 4.75 4.75 0 0 1-3.5-3.5 4.75 4.75 0 0 1-3.5 3.5 4.75 4.75 0 0 1 3.5 3.5"/></svg>