<svg xmlns="http://www.w3.org/2000/svg" viewBox="0 0 24 24" fill="none" stroke="currentColor" stroke-width="2" stroke-linecap="round" stroke-linejoin="round" class="icon icon-tabler icons-tabler-outline icon-tabler-camera-cancel" id="icon"><path d="M0 0h24v24H0z" stroke="none"/><path d="M12 20H5a2 2 0 0 1-2-2V9a2 2 0 0 1 2-2h1a2 2 0 0 0 2-2 1 1 0 0 1 1-1h6a1 1 0 0 1 1 1 2 2 0 0 0 2 2h1a2 2 0 0 1 2 2v3.5"/><path d="M14.984 13.307a3 3 0 1 0-2.32 2.62M16 19a3 3 0 1 0 6 0 3 3 0 1 0-6 0M17 21l4-4"/></svg>