<svg xmlns="http://www.w3.org/2000/svg" viewBox="0 0 24 24" fill="none" stroke="currentColor" stroke-width="2" stroke-linecap="round" stroke-linejoin="round" class="icon icon-tabler icons-tabler-outline icon-tabler-car-turbine" id="icon"><path d="M0 0h24v24H0z" stroke="none"/><path d="M7 13a4 4 0 1 0 8 0 4 4 0 1 0-8 0"/><path d="M18.86 11c.088.66.14 1.512.14 2a8 8 0 1 1-8-8h6"/><path d="M11 9c2.489.108 4.489.108 6 0M17 4a1 1 0 0 1 1-1h2a1 1 0 0 1 1 1v6a1 1 0 0 1-1 1h-2a1 1 0 0 1-1-1zM11 13l-3.5-1.5M11 13l2.5 3M8.5 16l2.5-3M11 13l3.5-1.5M11 9v4"/></svg>