<svg xmlns="http://www.w3.org/2000/svg" viewBox="0 0 24 24" fill="none" stroke="currentColor" stroke-width="2" stroke-linecap="round" stroke-linejoin="round" class="icon icon-tabler icons-tabler-outline icon-tabler-car-suv" id="icon"><path d="M0 0h24v24H0z" stroke="none"/><path d="M5 17a2 2 0 1 0 4 0 2 2 0 0 0-4 0M16 17a2 2 0 1 0 4 0 2 2 0 0 0-4 0M5 9l2-4h7.438a2 2 0 0 1 1.94 1.515L17 9h3a2 2 0 0 1 2 2v3M10 9V5M2 7v4"/><path d="M22.001 14.001A4.992 4.992 0 0 0 18 12a4.992 4.992 0 0 0-4 2h-3a4.998 4.998 0 0 0-8.003.003"/><path d="M5 12V9h13"/></svg>