<svg xmlns="http://www.w3.org/2000/svg" viewBox="0 0 24 24" fill="none" stroke="currentColor" stroke-width="" stroke-linecap="round" stroke-linejoin="round" class="icon icon-tabler icons-tabler-outline icon-tabler-car-4wd" id="icon"><path d="M0 0h24v24H0z" stroke="none"/><path d="M5 5a2 2 0 0 1 2-2 2 2 0 0 1 2 2v2a2 2 0 0 1-2 2 2 2 0 0 1-2-2V5M5 17a2 2 0 0 1 2-2 2 2 0 0 1 2 2v2a2 2 0 0 1-2 2 2 2 0 0 1-2-2v-2M15 5a2 2 0 0 1 2-2 2 2 0 0 1 2 2v2a2 2 0 0 1-2 2 2 2 0 0 1-2-2V5M15 17a2 2 0 0 1 2-2 2 2 0 0 1 2 2v2a2 2 0 0 1-2 2 2 2 0 0 1-2-2v-2M9 18h6M9 6h6M12 6.5V6v12"/></svg>