<svg xmlns="http://www.w3.org/2000/svg" viewBox="0 0 24 24" fill="none" stroke="currentColor" stroke-width="2" stroke-linecap="round" stroke-linejoin="round" class="icon icon-tabler icons-tabler-outline icon-tabler-car-4wd" id="icon"><path d="M0 0h24v24H0z" stroke="none"/><path d="M5 5a2 2 0 0 1 2-2h0a2 2 0 0 1 2 2v2a2 2 0 0 1-2 2h0a2 2 0 0 1-2-2zM5 17a2 2 0 0 1 2-2h0a2 2 0 0 1 2 2v2a2 2 0 0 1-2 2h0a2 2 0 0 1-2-2zM15 5a2 2 0 0 1 2-2h0a2 2 0 0 1 2 2v2a2 2 0 0 1-2 2h0a2 2 0 0 1-2-2zM15 17a2 2 0 0 1 2-2h0a2 2 0 0 1 2 2v2a2 2 0 0 1-2 2h0a2 2 0 0 1-2-2zM9 18h6M9 6h6M12 6.5V6v12"/></svg>