<svg xmlns="http://www.w3.org/2000/svg" viewBox="0 0 24 24" fill="none" stroke="currentColor" stroke-width="2" stroke-linecap="round" stroke-linejoin="round" class="icon icon-tabler icons-tabler-outline icon-tabler-cardboards-off" id="icon"><path d="M0 0h24v24H0z" stroke="none"/><path d="M20.96 16.953c.026-.147.04-.298.04-.453V8a2 2 0 0 0-2-2h-9M6 6H5a2 2 0 0 0-2 2v8.5A2.5 2.5 0 0 0 5.5 19h1.06a3 3 0 0 0 2.34-1.13l1.54-1.92a2 2 0 0 1 3.12 0l1.54 1.92A3 3 0 0 0 17.44 19h1.06c.155 0 .307-.014.454-.041"/><path d="M7 12a1 1 0 1 0 2 0 1 1 0 1 0-2 0M16.714 12.7a1 1 0 0 0-1.417-1.411l1.417 1.41zM3 3l18 18"/></svg>