<svg xmlns="http://www.w3.org/2000/svg" viewBox="0 0 24 24" fill="none" stroke="currentColor" stroke-width="2" stroke-linecap="round" stroke-linejoin="round" class="icon icon-tabler icons-tabler-outline icon-tabler-cards" id="icon"><path d="M0 0h24v24H0z" stroke="none"/><path d="m3.604 7.197 7.138-3.109a.96.96 0 0 1 1.27.527l4.924 11.902a1 1 0 0 1-.514 1.304L9.285 20.93a.96.96 0 0 1-1.271-.527L3.09 8.5a1 1 0 0 1 .514-1.304zM15 4h1a1 1 0 0 1 1 1v3.5M20 6c.264.112.52.217.768.315a1 1 0 0 1 .53 1.311L19 13"/></svg>