<svg xmlns="http://www.w3.org/2000/svg" viewBox="0 0 24 24" fill="none" stroke="currentColor" stroke-width="2" stroke-linecap="round" stroke-linejoin="round" class="icon icon-tabler icons-tabler-outline icon-tabler-cash-heart" id="icon"><path d="M0 0h24v24H0z" stroke="none"/><path d="M7 15H4a1 1 0 0 1-1-1V6a1 1 0 0 1 1-1h12a1 1 0 0 1 1 1v3"/><path d="M10.25 19H8a1 1 0 0 1-1-1v-8a1 1 0 0 1 1-1h12a1 1 0 0 1 1 1v1.25"/><path d="m18 22 3.35-3.284a2.143 2.143 0 0 0 .005-3.071 2.24 2.24 0 0 0-3.129-.006l-.224.22-.223-.22a2.24 2.24 0 0 0-3.128-.006 2.143 2.143 0 0 0-.006 3.071z"/></svg>