<svg xmlns="http://www.w3.org/2000/svg" viewBox="0 0 24 24" fill="none" stroke="currentColor" stroke-width="2" stroke-linecap="round" stroke-linejoin="round" class="icon icon-tabler icons-tabler-outline icon-tabler-chart-pie-off" id="icon"><path d="M0 0h24v24H0z" stroke="none"/><path d="M5.63 5.643a9 9 0 0 0 12.742 12.715m1.674-2.29A9.03 9.03 0 0 0 20.8 14a1 1 0 0 0-1-1H17m-4 0a2 2 0 0 1-2-2m0-4V4a.9.9 0 0 0-1-.8 9 9 0 0 0-2.057.749M15 3.5A9 9 0 0 1 20.5 9H16a1 1 0 0 1-1-1V3.5M3 3l18 18"/></svg>