<svg xmlns="http://www.w3.org/2000/svg" viewBox="0 0 24 24" fill="none" stroke="currentColor" stroke-width="2" stroke-linecap="round" stroke-linejoin="round" class="icon icon-tabler icons-tabler-outline icon-tabler-chess-queen" id="icon"><path d="M0 0h24v24H0z" stroke="none"/><path d="m16 16 2-11-4 4-2-5-2 5-4-4 2 11M8 16l-1.447.724a1 1 0 0 0-.553.894V20h12v-2.382a1 1 0 0 0-.553-.894L16 16H8z"/><path d="M11 4a1 1 0 1 0 2 0 1 1 0 1 0-2 0M5 5a1 1 0 1 0 2 0 1 1 0 1 0-2 0M17 5a1 1 0 1 0 2 0 1 1 0 1 0-2 0"/></svg>