<svg xmlns="http://www.w3.org/2000/svg" viewBox="0 0 24 24" fill="none" stroke="currentColor" stroke-width="2" stroke-linecap="round" stroke-linejoin="round" class="icon icon-tabler icons-tabler-outline icon-tabler-chess" id="icon"><path d="M0 0h24v24H0z" stroke="none"/><path d="M12 3a3 3 0 0 1 3 3c0 1.113-.6 2.482-1.5 3l1.5 7H9l1.5-7C9.6 8.482 9 7.113 9 6a3 3 0 0 1 3-3zM8 9h8M6.684 16.772a1 1 0 0 0-.684.949V19a1 1 0 0 0 1 1h10a1 1 0 0 0 1-1v-1.28a1 1 0 0 0-.684-.948L15 16H9l-2.316.772z"/></svg>