<svg xmlns="http://www.w3.org/2000/svg" viewBox="0 0 24 24" fill="none" stroke="currentColor" stroke-width="2" stroke-linecap="round" stroke-linejoin="round" class="icon icon-tabler icons-tabler-outline icon-tabler-chess-bishop" id="icon"><path d="M0 0h24v24H0z" stroke="none"/><path d="m8 16-1.447.724a1 1 0 0 0-.553.894V20h12v-2.382a1 1 0 0 0-.553-.894L16 16H8zM11 4a1 1 0 1 0 2 0 1 1 0 1 0-2 0M9.5 16C7.833 16 7 14.331 7 13c0-3.667 1.667-6 5-7 3.333 1 5 3.427 5 7 0 1.284-.775 2.881-2.325 3H9.5zM15 8l-3 3M12 5v1"/></svg>