<svg xmlns="http://www.w3.org/2000/svg" viewBox="0 0 24 24" fill="none" stroke="currentColor" stroke-width="2" stroke-linecap="round" stroke-linejoin="round" class="icon icon-tabler icons-tabler-outline icon-tabler-cloud-lock" id="icon"><path d="M0 0h24v24H0z" stroke="none"/><path d="M19 18a3.5 3.5 0 0 0 0-7h-1c.397-1.768-.285-3.593-1.788-4.787-1.503-1.193-3.6-1.575-5.5-1S7.397 7.232 7 9c-2.199-.088-4.155 1.326-4.666 3.373-.512 2.047.564 4.154 2.566 5.027"/><path d="M8 16a1 1 0 0 1 1-1h6a1 1 0 0 1 1 1v3a1 1 0 0 1-1 1H9a1 1 0 0 1-1-1zM10 15v-2a2 2 0 1 1 4 0v2"/></svg>