<svg xmlns="http://www.w3.org/2000/svg" viewBox="0 0 24 24" fill="none" stroke="currentColor" stroke-width="2" stroke-linecap="round" stroke-linejoin="round" class="icon icon-tabler icons-tabler-outline icon-tabler-cloud-pin" id="icon"><path d="M0 0h24v24H0z" stroke="none"/><path d="M12 18.004H6.657C4.085 18 2 15.993 2 13.517c0-2.475 2.085-4.482 4.657-4.482.393-1.762 1.794-3.2 3.675-3.773 1.88-.572 3.956-.193 5.444 1 1.488 1.19 2.162 3.007 1.77 4.769h.99M21.121 20.121a3 3 0 1 0-4.242 0c.418.419 1.125 1.045 2.121 1.879 1.051-.89 1.759-1.516 2.121-1.879zM19 18v.01"/></svg>