<svg xmlns="http://www.w3.org/2000/svg" viewBox="0 0 24 24" fill="none" stroke="currentColor" stroke-width="2" stroke-linecap="round" stroke-linejoin="round" class="icon icon-tabler icons-tabler-outline icon-tabler-cloud-bitcoin" id="icon"><path d="M0 0h24v24H0z" stroke="none"/><path d="M17 21v-6m2 0v-1.5m0 9V21m-2-3h3m-1 0h.5a1.5 1.5 0 0 1 0 3H16m3-3h.5a1.5 1.5 0 0 0 0-3H16M13.5 18.004H6.657C4.085 18 2 15.993 2 13.517s2.085-4.482 4.657-4.482c.393-1.762 1.794-3.2 3.675-3.773 1.88-.572 3.956-.193 5.444 1 1.28 1.023 1.957 2.51 1.873 4.027"/></svg>