<svg xmlns="http://www.w3.org/2000/svg" viewBox="0 0 24 24" fill="none" stroke="currentColor" stroke-width="2" stroke-linecap="round" stroke-linejoin="round" class="icon icon-tabler icons-tabler-outline icon-tabler-cloud-off" id="icon"><path d="M0 0h24v24H0z" stroke="none"/><path d="M9.58 5.548c.24-.11.492-.207.752-.286 1.88-.572 3.956-.193 5.444 1 1.488 1.19 2.162 3.007 1.77 4.769h.99c1.913 0 3.464 1.56 3.464 3.486 0 .957-.383 1.824-1.003 2.454M18 18.004H6.657C4.085 18 2 15.993 2 13.517c0-2.475 2.085-4.482 4.657-4.482.13-.582.37-1.128.7-1.62M3 3l18 18"/></svg>