<svg xmlns="http://www.w3.org/2000/svg" viewBox="0 0 24 24" fill="none" stroke="currentColor" stroke-width="2" stroke-linecap="round" stroke-linejoin="round" class="icon icon-tabler icons-tabler-outline icon-tabler-cloud-star" id="icon"><path d="M0 0h24v24H0z" stroke="none"/><path d="M9.5 18.004H6.657C4.085 18 2 15.993 2 13.517c0-2.475 2.085-4.482 4.657-4.482.393-1.762 1.794-3.2 3.675-3.773 1.88-.572 3.956-.193 5.444 1 1.209.967 1.88 2.347 1.88 3.776M17.8 20.817l-2.172 1.138a.392.392 0 0 1-.568-.41l.415-2.411-1.757-1.707a.389.389 0 0 1 .217-.665l2.428-.352 1.086-2.193a.392.392 0 0 1 .702 0l1.086 2.193 2.428.352a.39.39 0 0 1 .217.665l-1.757 1.707.414 2.41a.39.39 0 0 1-.567.411L17.8 20.817z"/></svg>