<svg xmlns="http://www.w3.org/2000/svg" viewBox="0 0 24 24" fill="none" stroke="currentColor" stroke-width="2" stroke-linecap="round" stroke-linejoin="round" class="icon icon-tabler icons-tabler-outline icon-tabler-coffee-off" id="icon"><path d="M0 0h24v24H0z" stroke="none"/><path d="M3 14c.83.642 2.077 1.017 3.5 1 1.423.017 2.67-.358 3.5-1 .73-.565 1.783-.923 3-.99M8 3c-.194.14-.364.305-.506.49M12 3a2.4 2.4 0 0 0-1 2 2.4 2.4 0 0 0 1 2"/><path d="M14 10h3v3m-.257 3.743A6 6 0 0 1 11 21H9a6 6 0 0 1-6-6v-5h7"/><path d="M20.116 16.124a3 3 0 0 0-3.118-4.953M3 3l18 18"/></svg>