<svg xmlns="http://www.w3.org/2000/svg" viewBox="0 0 24 24" fill="none" stroke="currentColor" stroke-width="2" stroke-linecap="round" stroke-linejoin="round" class="icon icon-tabler icons-tabler-outline icon-tabler-crutches" id="icon"><path d="M0 0h24v24H0z" stroke="none"/><path d="M8 5a2 2 0 0 1 2-2h4a2 2 0 0 1 2 2v0a2 2 0 0 1-2 2h-4a2 2 0 0 1-2-2zM11 21h2M12 21v-4.092a3 3 0 0 1 .504-1.664l.992-1.488A3 3 0 0 0 14 12.092V7M12 21v-4.092a3 3 0 0 0-.504-1.664l-.992-1.488A3 3 0 0 1 10 12.092V7M10 11h4"/></svg>