<svg xmlns="http://www.w3.org/2000/svg" viewBox="0 0 24 24" fill="none" stroke="currentColor" stroke-width="2" stroke-linecap="round" stroke-linejoin="round" class="icon icon-tabler icons-tabler-outline icon-tabler-cube-spark" id="icon"><path d="M0 0h24v24H0z" stroke="none"/><path d="M21 12V7.99a1.98 1.98 0 0 0-1-1.717l-7-4.008a2.02 2.02 0 0 0-2 0L4 6.273c-.619.355-1 1.01-1 1.718v8.018c0 .709.381 1.363 1 1.717l7 4.008c.62.354 1.38.354 2 0M12 22V12M12 12l8.73-5.04M3.27 6.96 12 12M19 22.5a4.75 4.75 0 0 1 3.5-3.5 4.75 4.75 0 0 1-3.5-3.5 4.75 4.75 0 0 1-3.5 3.5 4.75 4.75 0 0 1 3.5 3.5"/></svg>