<svg xmlns="http://www.w3.org/2000/svg" viewBox="0 0 24 24" fill="none" stroke="currentColor" stroke-width="2" stroke-linecap="round" stroke-linejoin="round" class="icon icon-tabler icons-tabler-outline icon-tabler-cube-off" id="icon"><path d="M0 0h24v24H0z" stroke="none"/><path d="M20.83 16.809c.11-.248.17-.52.17-.801V7.99a1.98 1.98 0 0 0-1-1.717l-7-4.008a2.016 2.016 0 0 0-2 0L7.988 3.99M5.441 5.448 4 6.273c-.619.355-1 1.01-1 1.718v8.018c0 .709.381 1.363 1 1.717l7 4.008a2.016 2.016 0 0 0 2 0l5.544-3.174M12 22V12M14.532 10.538 20.73 6.96M3.27 6.96 12 12M3 3l18 18"/></svg>