<svg xmlns="http://www.w3.org/2000/svg" viewBox="0 0 24 24" fill="none" stroke="currentColor" stroke-width="2" stroke-linecap="round" stroke-linejoin="round" class="icon icon-tabler icons-tabler-outline icon-tabler-cylinder-off" id="icon"><path d="M0 0h24v24H0z" stroke="none"/><path d="M5.23 5.233C5.08 5.478 5 5.735 5 6c0 1.131 1.461 2.117 3.62 2.628m4.357.343C16.381 8.767 19 7.515 19 6c0-1.657-3.134-3-7-3-1.645 0-3.158.243-4.353.65"/><path d="M5 6v12c0 1.657 3.134 3 7 3 3.245 0 5.974-.946 6.767-2.23M19 15V6M3 3l18 18"/></svg>