<svg xmlns="http://www.w3.org/2000/svg" viewBox="0 0 24 24" fill="none" stroke="currentColor" stroke-width="2" stroke-linecap="round" stroke-linejoin="round" class="icon icon-tabler icons-tabler-outline icon-tabler-database-heart" id="icon"><path d="M0 0h24v24H0z" stroke="none"/><path d="M4 6c0 1.657 3.582 3 8 3s8-1.343 8-3-3.582-3-8-3-8 1.343-8 3"/><path d="M4 6v6c0 1.453 2.755 2.665 6.414 2.941M20 11V6"/><path d="M4 12v6c0 1.579 3.253 2.873 7.383 2.991M18 22l3.35-3.284a2.143 2.143 0 0 0 .005-3.071 2.242 2.242 0 0 0-3.129-.006l-.224.22-.223-.22a2.242 2.242 0 0 0-3.128-.006 2.143 2.143 0 0 0-.006 3.071L18 22z"/></svg>