<svg xmlns="http://www.w3.org/2000/svg" viewBox="0 0 24 24" fill="none" stroke="currentColor" stroke-width="2" stroke-linecap="round" stroke-linejoin="round" class="icon icon-tabler icons-tabler-outline icon-tabler-database-star" id="icon"><path d="M0 0h24v24H0z" stroke="none"/><path d="M4 6c0 1.657 3.582 3 8 3s8-1.343 8-3-3.582-3-8-3-8 1.343-8 3"/><path d="M4 6v6c0 1.43 2.67 2.627 6.243 2.927M20 10.5V6"/><path d="M4 12v6c0 1.546 3.12 2.82 7.128 2.982M17.8 20.817l-2.172 1.138a.392.392 0 0 1-.568-.41l.415-2.411-1.757-1.707a.389.389 0 0 1 .217-.665l2.428-.352 1.086-2.193a.392.392 0 0 1 .702 0l1.086 2.193 2.428.352a.39.39 0 0 1 .217.665l-1.757 1.707.414 2.41a.39.39 0 0 1-.567.411L17.8 20.817z"/></svg>