<svg xmlns="http://www.w3.org/2000/svg" viewBox="0 0 24 24" fill="none" stroke="currentColor" stroke-width="2" stroke-linecap="round" stroke-linejoin="round" class="icon icon-tabler icons-tabler-outline icon-tabler-database-edit" id="icon"><path d="M0 0h24v24H0z" stroke="none"/><path d="M4 6c0 1.657 3.582 3 8 3s8-1.343 8-3-3.582-3-8-3-8 1.343-8 3"/><path d="M4 6v6c0 1.657 3.582 3 8 3 .478 0 .947-.016 1.402-.046M20 12V6"/><path d="M4 12v6c0 1.526 3.04 2.786 6.972 2.975M18.42 15.61a2.1 2.1 0 0 1 2.97 2.97L18 22h-3v-3l3.42-3.39z"/></svg>