<svg xmlns="http://www.w3.org/2000/svg" viewBox="0 0 24 24" fill="none" stroke="currentColor" stroke-width="2" stroke-linecap="round" stroke-linejoin="round" class="icon icon-tabler icons-tabler-outline icon-tabler-database-export" id="icon"><path d="M0 0h24v24H0z" stroke="none"/><path d="M4 6c0 1.657 3.582 3 8 3s8-1.343 8-3-3.582-3-8-3-8 1.343-8 3"/><path d="M4 6v6c0 1.657 3.582 3 8 3 1.118 0 2.183-.086 3.15-.241M20 12V6"/><path d="M4 12v6c0 1.657 3.582 3 8 3 .157 0 .312-.002.466-.005M16 19h6M19 16l3 3-3 3"/></svg>