<svg xmlns="http://www.w3.org/2000/svg" viewBox="0 0 24 24" fill="none" stroke="currentColor" stroke-width="2" stroke-linecap="round" stroke-linejoin="round" class="icon icon-tabler icons-tabler-outline icon-tabler-database-dollar" id="icon"><path d="M0 0h24v24H0z" stroke="none"/><path d="M4 6c0 1.657 3.582 3 8 3s8-1.343 8-3-3.582-3-8-3-8 1.343-8 3"/><path d="M4 6v6c0 1.657 3.582 3 8 3 .415 0 .822-.012 1.22-.035M20 10V6"/><path d="M4 12v6c0 1.657 3.582 3 8 3 .352 0 .698-.009 1.037-.025M21 15h-2.5a1.5 1.5 0 0 0 0 3h1a1.5 1.5 0 0 1 0 3H17M19 21v1m0-8v1"/></svg>