<svg xmlns="http://www.w3.org/2000/svg" viewBox="0 0 24 24" fill="none" stroke="currentColor" stroke-width="2" stroke-linecap="round" stroke-linejoin="round" class="icon icon-tabler icons-tabler-outline icon-tabler-database-x" id="icon"><path d="M0 0h24v24H0z" stroke="none"/><path d="M4 6c0 1.657 3.582 3 8 3s8-1.343 8-3-3.582-3-8-3-8 1.343-8 3"/><path d="M4 6v6c0 1.657 3.582 3 8 3 .537 0 1.062-.02 1.57-.058M20 13.5V6"/><path d="M4 12v6c0 1.657 3.582 3 8 3 .384 0 .762-.01 1.132-.03M22 22l-5-5M17 22l5-5"/></svg>