<svg xmlns="http://www.w3.org/2000/svg" viewBox="0 0 24 24" fill="none" stroke="currentColor" stroke-width="2" stroke-linecap="round" stroke-linejoin="round" class="icon icon-tabler icons-tabler-outline icon-tabler-database-plus" id="icon"><path d="M0 0h24v24H0z" stroke="none"/><path d="M4 6c0 1.657 3.582 3 8 3s8-1.343 8-3-3.582-3-8-3-8 1.343-8 3"/><path d="M4 6v6c0 1.657 3.582 3 8 3 1.075 0 2.1-.08 3.037-.224M20 12V6"/><path d="M4 12v6c0 1.657 3.582 3 8 3 .166 0 .331-.002.495-.006M16 19h6M19 16v6"/></svg>