<svg xmlns="http://www.w3.org/2000/svg" viewBox="0 0 24 24" fill="none" stroke="currentColor" stroke-width="2" stroke-linecap="round" stroke-linejoin="round" class="icon icon-tabler icons-tabler-outline icon-tabler-dental" id="icon"><path d="M0 0h24v24H0z" stroke="none"/><path d="M12 5.5C10.926 4.914 9.417 4 8 4 5.9 4 4 5.247 4 9c0 4.899 1.056 8.41 2.671 10.537.573.756 1.97.521 2.567-.236.398-.505.819-1.439 1.262-2.801.292-.771.892-1.504 1.5-1.5.602 0 1.21.737 1.5 1.5.443 1.362.864 2.295 1.262 2.8.597.759 2 .993 2.567.237C18.944 17.41 20 13.9 20 9c0-3.74-1.908-5-4-5-1.423 0-2.92.911-4 1.5zM12 5.5 15 7"/></svg>