<svg xmlns="http://www.w3.org/2000/svg" viewBox="0 0 24 24" fill="none" stroke="currentColor" stroke-width="2" stroke-linecap="round" stroke-linejoin="round" class="icon icon-tabler icons-tabler-outline icon-tabler-device-desktop-heart" id="icon"><path d="M0 0h24v24H0z" stroke="none"/><path d="M10 16H4a1 1 0 0 1-1-1V5a1 1 0 0 1 1-1h16a1 1 0 0 1 1 1v6M7 20h3.5M9 16v4M18 22l3.35-3.284a2.143 2.143 0 0 0 .005-3.071 2.242 2.242 0 0 0-3.129-.006l-.224.22-.223-.22a2.242 2.242 0 0 0-3.128-.006 2.143 2.143 0 0 0-.006 3.071L18 22z"/></svg>