<svg xmlns="http://www.w3.org/2000/svg" viewBox="0 0 24 24" fill="none" stroke="currentColor" stroke-width="" stroke-linecap="round" stroke-linejoin="round" class="icon icon-tabler icons-tabler-outline icon-tabler-device-audio-tape" id="icon"><path d="M0 0h24v24H0z" stroke="none"/><path d="M3 7a2 2 0 0 1 2-2h14a2 2 0 0 1 2 2v10a2 2 0 0 1-2 2H5a2 2 0 0 1-2-2V7"/><path d="m3 17 4-3h10l4 3"/><path d="M7 9.5a.5.5 0 1 0 1 0 .5.5 0 1 0-1 0M16 9.5a.5.5 0 1 0 1 0 .5.5 0 1 0-1 0" fill="currentColor"/></svg>