<svg xmlns="http://www.w3.org/2000/svg" viewBox="0 0 24 24" fill="none" stroke="currentColor" stroke-width="2" stroke-linecap="round" stroke-linejoin="round" class="icon icon-tabler icons-tabler-outline icon-tabler-device-watch-heart" id="icon"><path d="M0 0h24v24H0z" stroke="none"/><path d="M10 18H9a3 3 0 0 1-3-3V9a3 3 0 0 1 3-3h6a3 3 0 0 1 3 3v2M9 18v3h2.5M9 6V3h6v3M18 22l3.35-3.284a2.143 2.143 0 0 0 .005-3.071 2.242 2.242 0 0 0-3.129-.006l-.224.22-.223-.22a2.242 2.242 0 0 0-3.128-.006 2.143 2.143 0 0 0-.006 3.071L18 22z"/></svg>