<svg xmlns="http://www.w3.org/2000/svg" viewBox="0 0 24 24" fill="none" stroke="currentColor" stroke-width="2" stroke-linecap="round" stroke-linejoin="round" class="icon icon-tabler icons-tabler-outline icon-tabler-device-nintendo-off" id="icon"><path d="M0 0h24v24H0z" stroke="none"/><path d="M4.713 4.718A4 4 0 0 0 3 8v8a4 4 0 0 0 4 4h3V10m0-4V4H8M14 10V4h3a4 4 0 0 1 4 4v8c0 .308-.035.608-.1.896m-1.62 2.39A3.982 3.982 0 0 1 17 20h-3v-6"/><path d="M5.5 8.5a1 1 0 1 0 2 0 1 1 0 1 0-2 0M3 3l18 18"/></svg>