<svg xmlns="http://www.w3.org/2000/svg" viewBox="0 0 24 24" fill="none" stroke="currentColor" stroke-width="2" stroke-linecap="round" stroke-linejoin="round" class="icon icon-tabler icons-tabler-outline icon-tabler-devices-question" id="icon"><path d="M0 0h24v24H0z" stroke="none"/><path d="M15 20h-1a1 1 0 0 1-1-1V9a1 1 0 0 1 1-1h6a1 1 0 0 1 1 1v2"/><path d="M18 8V5a1 1 0 0 0-1-1H4a1 1 0 0 0-1 1v12a1 1 0 0 0 1 1h9M19 22v.01M19 19a2.003 2.003 0 0 0 .914-3.782 1.98 1.98 0 0 0-2.414.483M16 9h2"/></svg>