<svg xmlns="http://www.w3.org/2000/svg" viewBox="0 0 24 24" fill="none" stroke="currentColor" stroke-width="2" stroke-linecap="round" stroke-linejoin="round" class="icon icon-tabler icons-tabler-outline icon-tabler-diaper" id="icon"><path d="M0 0h24v24H0z" stroke="none"/><path d="M3 8.323c0-.579 0-.868.044-1.11a2.7 2.7 0 0 1 2.17-2.169C5.453 5 5.743 5 6.323 5h11.353c.579 0 .868 0 1.11.044a2.7 2.7 0 0 1 2.169 2.17c.044.24.044.53.044 1.11V11a9 9 0 0 1-18 0zM17 9h4M3 9h4"/><path d="M14.25 19.7v-1.4a6.3 6.3 0 0 1 6.3-6.3M9.75 19.7v-1.4a6.3 6.3 0 0 0-6.3-6.3"/></svg>