<svg xmlns="http://www.w3.org/2000/svg" viewBox="0 0 24 24" fill="none" stroke="currentColor" stroke-width="" stroke-linecap="round" stroke-linejoin="round" class="icon icon-tabler icons-tabler-outline icon-tabler-dice-3" id="icon"><path d="M0 0h24v24H0z" stroke="none"/><path d="M3 5a2 2 0 0 1 2-2h14a2 2 0 0 1 2 2v14a2 2 0 0 1-2 2H5a2 2 0 0 1-2-2V5"/><path d="M8 8.5a.5.5 0 1 0 1 0 .5.5 0 1 0-1 0M15 15.5a.5.5 0 1 0 1 0 .5.5 0 1 0-1 0M11.5 12a.5.5 0 1 0 1 0 .5.5 0 1 0-1 0" fill="currentColor"/></svg>