<svg xmlns="http://www.w3.org/2000/svg" viewBox="0 0 24 24" fill="none" stroke="currentColor" stroke-width="2" stroke-linecap="round" stroke-linejoin="round" class="icon icon-tabler icons-tabler-outline icon-tabler-dog" id="icon"><path d="M0 0h24v24H0z" stroke="none"/><path d="M11 5h2M19 12c-.667 5.333-2.333 8-5 8h-4c-2.667 0-4.333-2.667-5-8"/><path d="M11 16c0 .667.333 1 1 1s1-.333 1-1h-2zM12 18v2M10 11v.01M14 11v.01M5 4l6 .97-6.238 6.688a1.021 1.021 0 0 1-1.41.111.953.953 0 0 1-.327-.954L5 4zM19 4l-6 .97 6.238 6.688c.358.408.989.458 1.41.111a.953.953 0 0 0 .327-.954L19 4z"/></svg>