<svg xmlns="http://www.w3.org/2000/svg" viewBox="0 0 24 24" fill="none" stroke="currentColor" stroke-width="2" stroke-linecap="round" stroke-linejoin="round" class="icon icon-tabler icons-tabler-outline icon-tabler-droplet-cog" id="icon"><path d="M0 0h24v24H0z" stroke="none"/><path d="M18.421 11.56a6.702 6.702 0 0 0-.357-.683l-4.89-7.26c-.42-.625-1.287-.803-1.936-.397a1.376 1.376 0 0 0-.41.397l-4.893 7.26C4.24 13.715 4.9 17.318 7.502 19.423a7.144 7.144 0 0 0 4.518 1.58M17.001 19a2 2 0 1 0 4 0 2 2 0 1 0-4 0M19.001 15.5V17M19.001 21v1.5M22.032 17.25l-1.299.75M17.27 20l-1.3.75M15.97 17.25l1.3.75M20.733 20l1.3.75"/></svg>