<svg xmlns="http://www.w3.org/2000/svg" viewBox="0 0 24 24" fill="none" stroke="currentColor" stroke-width="2" stroke-linecap="round" stroke-linejoin="round" class="icon icon-tabler icons-tabler-outline icon-tabler-droplet-pin" id="icon"><path d="M0 0h24v24H0z" stroke="none"/><path d="m18.064 10.877-4.89-7.26c-.42-.625-1.287-.803-1.936-.397a1.376 1.376 0 0 0-.41.397l-4.893 7.26C4.24 13.715 4.9 17.318 7.502 19.423a7.163 7.163 0 0 0 5.102 1.554M21.121 20.121a3 3 0 1 0-4.242 0c.418.419 1.125 1.045 2.121 1.879 1.051-.89 1.759-1.516 2.121-1.879zM19 18v.01"/></svg>