<svg xmlns="http://www.w3.org/2000/svg" viewBox="0 0 24 24" fill="none" stroke="currentColor" stroke-width="2" stroke-linecap="round" stroke-linejoin="round" class="icon icon-tabler icons-tabler-outline icon-tabler-droplet-cancel" id="icon"><path d="M0 0h24v24H0z" stroke="none"/><path d="M18.606 12.014a6.659 6.659 0 0 0-.542-1.137l-4.89-7.26c-.42-.625-1.287-.803-1.936-.397a1.376 1.376 0 0 0-.41.397l-4.893 7.26C4.24 13.715 4.9 17.318 7.502 19.423a7.154 7.154 0 0 0 4.826 1.572M16 19a3 3 0 1 0 6 0 3 3 0 1 0-6 0M17 21l4-4"/></svg>