<svg xmlns="http://www.w3.org/2000/svg" viewBox="0 0 24 24" fill="none" stroke="currentColor" stroke-width="2" stroke-linecap="round" stroke-linejoin="round" class="icon icon-tabler icons-tabler-outline icon-tabler-droplet-dollar" id="icon"><path d="M0 0h24v24H0z" stroke="none"/><path d="m17.668 10.29-4.493-6.673c-.421-.625-1.288-.803-1.937-.397a1.376 1.376 0 0 0-.41.397l-4.893 7.26C4.24 13.715 4.9 17.318 7.502 19.423a7.175 7.175 0 0 0 5.493 1.51M21 15h-2.5a1.5 1.5 0 0 0 0 3h1a1.5 1.5 0 0 1 0 3H17M19 21v1m0-8v1"/></svg>