<svg xmlns="http://www.w3.org/2000/svg" viewBox="0 0 24 24" fill="none" stroke="currentColor" stroke-width="2" stroke-linecap="round" stroke-linejoin="round" class="icon icon-tabler icons-tabler-outline icon-tabler-droplet-heart" id="icon"><path d="M0 0h24v24H0z" stroke="none"/><path d="M18.288 11.282a6.734 6.734 0 0 0-.224-.405l-4.89-7.26c-.42-.625-1.287-.803-1.936-.397a1.376 1.376 0 0 0-.41.397l-4.893 7.26C4.24 13.715 4.9 17.318 7.502 19.423a7.117 7.117 0 0 0 3.824 1.548"/><path d="m18 22 3.35-3.284a2.143 2.143 0 0 0 .005-3.071 2.242 2.242 0 0 0-3.129-.006l-.224.22-.223-.22a2.242 2.242 0 0 0-3.128-.006 2.143 2.143 0 0 0-.006 3.071L18 22z"/></svg>