<svg xmlns="http://www.w3.org/2000/svg" viewBox="0 0 24 24" fill="none" stroke="currentColor" stroke-width="2" stroke-linecap="round" stroke-linejoin="round" class="icon icon-tabler icons-tabler-outline icon-tabler-exchange-off" id="icon"><path d="M0 0h24v24H0z" stroke="none"/><path d="M3 18a2 2 0 1 0 4 0 2 2 0 1 0-4 0M17 6a2 2 0 1 0 4 0 2 2 0 1 0-4 0"/><path d="M19 8v5c0 .594-.104 1.164-.294 1.692m-1.692 2.298A4.978 4.978 0 0 1 14 18h-3l3-3M14 21l-3-3M5 16v-5c0-1.632.782-3.082 1.992-4M10 6h3l-3-3M11.501 7.499 13 6M3 3l18 18"/></svg>