<svg xmlns="http://www.w3.org/2000/svg" viewBox="0 0 24 24" fill="none" stroke="currentColor" stroke-width="2" stroke-linecap="round" stroke-linejoin="round" class="icon icon-tabler icons-tabler-outline icon-tabler-eye-bitcoin" id="icon"><path d="M0 0h24v24H0z" stroke="none"/><path d="M10 12a2 2 0 1 0 4 0 2 2 0 0 0-4 0"/><path d="M13.193 17.924q-.585.075-1.193.076-5.4 0-9-6 3.6-6 9-6 4.508 0 7.761 4.181M17 21v-6m2 0v-1.5m0 9V21m-2-3h3m-1 0h.5a1.5 1.5 0 0 1 0 3H16m3-3h.5a1.5 1.5 0 0 0 0-3H16"/></svg>