<svg xmlns="http://www.w3.org/2000/svg" viewBox="0 0 24 24" fill="none" stroke="currentColor" stroke-width="2" stroke-linecap="round" stroke-linejoin="round" class="icon icon-tabler icons-tabler-outline icon-tabler-eye-search" id="icon"><path d="M0 0h24v24H0z" stroke="none"/><path d="M10 12a2 2 0 1 0 4 0 2 2 0 0 0-4 0"/><path d="M12 18c-.328 0-.652-.017-.97-.05C7.858 17.618 5.18 15.635 3 12c2.4-4 5.4-6 9-6 3.465 0 6.374 1.853 8.727 5.558M15 18a3 3 0 1 0 6 0 3 3 0 1 0-6 0M20.2 20.2 22 22"/></svg>