<svg xmlns="http://www.w3.org/2000/svg" viewBox="0 0 24 24" fill="none" stroke="currentColor" stroke-width="2" stroke-linecap="round" stroke-linejoin="round" class="icon icon-tabler icons-tabler-outline icon-tabler-eye-question" id="icon"><path d="M0 0h24v24H0z" stroke="none"/><path d="M10 12a2 2 0 1 0 4 0 2 2 0 0 0-4 0"/><path d="M14.071 17.764A8.989 8.989 0 0 1 12 18c-3.6 0-6.6-2-9-6 2.4-4 5.4-6 9-6 3.346 0 6.173 1.727 8.482 5.182M19 22v.01M19 19a2.003 2.003 0 0 0 .914-3.782 1.98 1.98 0 0 0-2.414.483"/></svg>