<svg xmlns="http://www.w3.org/2000/svg" viewBox="0 0 24 24" fill="none" stroke="currentColor" stroke-width="2" stroke-linecap="round" stroke-linejoin="round" class="icon icon-tabler icons-tabler-outline icon-tabler-eye-heart" id="icon"><path d="M0 0h24v24H0z" stroke="none"/><path d="M13.905 11.39a2 2 0 1 0-2.855 2.37"/><path d="M9.992 17.779C7.27 17.158 4.939 15.232 3 12c2.4-4 5.4-6 9-6 3.332 0 6.15 1.714 8.454 5.14M18 22l3.35-3.284a2.143 2.143 0 0 0 .005-3.071 2.242 2.242 0 0 0-3.129-.006l-.224.22-.223-.22a2.242 2.242 0 0 0-3.128-.006 2.143 2.143 0 0 0-.006 3.071L18 22z"/></svg>