<svg xmlns="http://www.w3.org/2000/svg" viewBox="0 0 24 24" fill="none" stroke="currentColor" stroke-width="2" stroke-linecap="round" stroke-linejoin="round" class="icon icon-tabler icons-tabler-outline icon-tabler-fidget-spinner" id="icon"><path d="M0 0h24v24H0z" stroke="none"/><path d="M18 16v.01M6 16v.01M12 5v.01M12 12v.01M12 1a4 4 0 0 1 2.001 7.464l.001.072a3.998 3.998 0 0 1 1.987 3.758l.22.128a3.978 3.978 0 0 1 1.591-.417L18 12a4 4 0 1 1-3.994 3.77l-.28-.16c-.522.25-1.108.39-1.726.39-.619 0-1.205-.14-1.728-.391l-.279.16L10 16a4 4 0 1 1-2.212-3.579l.222-.129a3.998 3.998 0 0 1 1.988-3.756L10 8.465A4 4 0 0 1 8.005 5.2L8 5a4 4 0 0 1 4-4z"/></svg>