<svg xmlns="http://www.w3.org/2000/svg" viewBox="0 0 24 24" fill="none" stroke="currentColor" stroke-width="2" stroke-linecap="round" stroke-linejoin="round" class="icon icon-tabler icons-tabler-outline icon-tabler-file-vector" id="icon"><path d="M0 0h24v24H0z" stroke="none"/><path d="M14 3v4a1 1 0 0 0 1 1h4M8 16.5a1.5 1.5 0 1 0 3 0 1.5 1.5 0 1 0-3 0M13 12.5a1.5 1.5 0 1 0 3 0 1.5 1.5 0 1 0-3 0"/><path d="M17 21H7a2 2 0 0 1-2-2V5a2 2 0 0 1 2-2h7l5 5v11a2 2 0 0 1-2 2z"/><path d="M9.5 15a2.5 2.5 0 0 1 2.5-2.5h1"/></svg>