<svg xmlns="http://www.w3.org/2000/svg" viewBox="0 0 24 24" fill="none" stroke="currentColor" stroke-width="2" stroke-linecap="round" stroke-linejoin="round" class="icon icon-tabler icons-tabler-outline icon-tabler-file-text-shield" id="icon"><path d="M0 0h24v24H0z" stroke="none"/><path d="M13 3v4a.997.997 0 0 0 1 1h4"/><path d="M11 21H6a2 2 0 0 1-2-2V5a2 2 0 0 1 2-2h7l5 5v3.5M8 9h1M8 12.994h3M8 16.997h2"/><path d="M21 15.994c0 4-2.5 6-3.5 6s-3.5-2-3.5-6c1 0 2.5-.5 3.5-1.5 1 1 2.5 1.5 3.5 1.5"/></svg>