<svg xmlns="http://www.w3.org/2000/svg" viewBox="0 0 24 24" fill="none" stroke="currentColor" stroke-width="" stroke-linecap="round" stroke-linejoin="round" class="icon icon-tabler icons-tabler-outline icon-tabler-firewall-flame" id="icon"><path d="M0 0h24v24H0z" stroke="none"/><path d="M15.5 16q2.5 1.5 2.5-1v-2s4 1.06 4 5c0 1.664-.649 3.338-2 4v-.25c0-.957-1.053-1.75-2-1.75s-2 .793-2 1.75V22c-1.351-.662-2-2-2-3.5s1.5-2.5 1.5-2.5M9 3v13M3 9h18M6 21H5a2 2 0 0 1-2-2V5a2 2 0 0 1 2-2h14a2 2 0 0 1 2 2v4M3 15h7M15 3v7"/></svg>