<svg xmlns="http://www.w3.org/2000/svg" viewBox="0 0 24 24" fill="none" stroke="currentColor" stroke-width="2" stroke-linecap="round" stroke-linejoin="round" class="icon icon-tabler icons-tabler-outline icon-tabler-friends-off" id="icon"><path d="M0 0h24v24H0z" stroke="none"/><path d="M5 5a2 2 0 0 0 2 2m2-2a2 2 0 0 0-2-2M5 22v-5l-1-1v-4a1 1 0 0 1 1-1h4a1 1 0 0 1 1 1v4l-1 1v5M15 5a2 2 0 1 0 4 0 2 2 0 1 0-4 0M15 22v-4h-2l1.254-3.763m1.036-2.942A1 1 0 0 1 16 11h2a1 1 0 0 1 1 1l1.503 4.508M19 19v3M3 3l18 18"/></svg>