<svg xmlns="http://www.w3.org/2000/svg" viewBox="0 0 24 24" fill="none" stroke="currentColor" stroke-width="2" stroke-linecap="round" stroke-linejoin="round" class="icon icon-tabler icons-tabler-outline icon-tabler-frustum" id="icon"><path d="M0 0h24v24H0z" stroke="none"/><path d="m18.402 5.508 2.538 10.158a1.99 1.99 0 0 1-1.064 2.278L12.84 21.31a1.945 1.945 0 0 1-1.682 0l-7.035-3.365a1.99 1.99 0 0 1-1.064-2.278L5.598 5.508a1.98 1.98 0 0 1 1.11-1.328l4.496-2.01a1.95 1.95 0 0 1 1.59 0l4.496 2.01c.554.246.963.736 1.112 1.328z"/><path d="m18 4.82-5.198 2.324a1.963 1.963 0 0 1-1.602 0L6 4.819M12 7.32V21.5"/></svg>