<svg xmlns="http://www.w3.org/2000/svg" viewBox="0 0 24 24" fill="none" stroke="currentColor" stroke-width="2" stroke-linecap="round" stroke-linejoin="round" class="icon icon-tabler icons-tabler-outline icon-tabler-function" id="icon"><path d="M0 0h24v24H0z" stroke="none"/><path d="M4 6.667A2.667 2.667 0 0 1 6.667 4h10.666A2.667 2.667 0 0 1 20 6.667v10.666A2.667 2.667 0 0 1 17.333 20H6.667A2.667 2.667 0 0 1 4 17.333z"/><path d="M9 15.5v.25c0 .69.56 1.25 1.25 1.25a1.38 1.38 0 0 0 1.374-1.244l.752-7.512A1.381 1.381 0 0 1 13.75 7c.69 0 1.25.56 1.25 1.25v.25M9 12h6"/></svg>