<svg xmlns="http://www.w3.org/2000/svg" viewBox="0 0 24 24" fill="none" stroke="currentColor" stroke-width="2" stroke-linecap="round" stroke-linejoin="round" class="icon icon-tabler icons-tabler-outline icon-tabler-garden-cart-off" id="icon"><path d="M0 0h24v24H0z" stroke="none"/><path d="M15.733 15.732a2.5 2.5 0 1 0 3.544 3.527M6 8v11a1 1 0 0 0 1.806.591L11.5 14.5v.055"/><path d="M6 8h2m4 0h9l-3 6.01m-3.319.693-4.276-.45a4 4 0 0 1-3.296-2.493L4.256 4.63A1 1 0 0 0 3.328 4H2.005M3 3l18 18"/></svg>