<svg xmlns="http://www.w3.org/2000/svg" viewBox="0 0 24 24" fill="none" stroke="currentColor" stroke-width="2" stroke-linecap="round" stroke-linejoin="round" class="icon icon-tabler icons-tabler-outline icon-tabler-gift-card" id="icon"><path d="M0 0h24v24H0z" stroke="none"/><path d="M3 8a3 3 0 0 1 3-3h12a3 3 0 0 1 3 3v8a3 3 0 0 1-3 3H6a3 3 0 0 1-3-3z"/><path d="m7 16 3-3 3 3M8 13c-.789 0-2-.672-2-1.5S6.711 10 7.5 10c1.128-.02 2.077 1.17 2.5 3 .423-1.83 1.372-3.02 2.5-3 .789 0 1.5.672 1.5 1.5S12.789 13 12 13H8z"/></svg>