<svg xmlns="http://www.w3.org/2000/svg" viewBox="0 0 24 24" fill="none" stroke="currentColor" stroke-width="2" stroke-linecap="round" stroke-linejoin="round" class="icon icon-tabler icons-tabler-outline icon-tabler-hammer" id="icon"><path d="M0 0h24v24H0z" stroke="none"/><path d="m11.414 10-7.383 7.418a2.091 2.091 0 0 0 0 2.967 2.11 2.11 0 0 0 2.976 0L14.414 13M18.121 15.293l2.586-2.586a1 1 0 0 0 0-1.414l-7.586-7.586a1 1 0 0 0-1.414 0L9.121 6.293a1 1 0 0 0 0 1.414l7.586 7.586a1 1 0 0 0 1.414 0z"/></svg>