<svg xmlns="http://www.w3.org/2000/svg" viewBox="0 0 24 24" fill="none" stroke="currentColor" stroke-width="2" stroke-linecap="round" stroke-linejoin="round" class="icon icon-tabler icons-tabler-outline icon-tabler-hand-finger-left" id="icon"><path d="M0 0h24v24H0z" stroke="none"/><path d="M12 8H3.5a1.5 1.5 0 0 0 0 3H11M10.5 11h-2a1.5 1.5 0 1 0 0 3H11M9.5 14a1.5 1.5 0 0 0 0 3H11"/><path d="M10.5 17a1.5 1.5 0 0 0 0 3H15a6 6 0 0 0 6-6v-2 .208a6 6 0 0 0-2.7-5.012L18 7q-.718-.468-5.728-3.286a1.5 1.5 0 0 0-2.022.536 1.87 1.87 0 0 0 .28 2.28L12 8"/></svg>