<svg xmlns="http://www.w3.org/2000/svg" viewBox="0 0 24 24" fill="none" stroke="currentColor" stroke-width="2" stroke-linecap="round" stroke-linejoin="round" class="icon icon-tabler icons-tabler-outline icon-tabler-hemisphere-off" id="icon"><path d="M0 0h24v24H0z" stroke="none"/><path d="M6.588 6.603C4.41 7.15 3 8.02 3 9c0 1.657 4.03 3 9 3m3.72-.267C18.834 11.26 21 10.215 21 9c0-1.657-4.03-3-9-3-.662 0-1.308.024-1.93.07"/><path d="M3 9a9 9 0 0 0 13.677 7.69m2.165-1.843A8.965 8.965 0 0 0 21 9M3 3l18 18"/></svg>