<svg xmlns="http://www.w3.org/2000/svg" viewBox="0 0 24 24" fill="none" stroke="currentColor" stroke-width="2" stroke-linecap="round" stroke-linejoin="round" class="icon icon-tabler icons-tabler-outline icon-tabler-hexagonal-prism-off" id="icon"><path d="M0 0h24v24H0z" stroke="none"/><path d="m20.792 6.996-3.775 2.643A2.005 2.005 0 0 1 15.87 10H14m-4 0H8.13c-.41 0-.81-.126-1.146-.362L3.21 6.997M8 10v11M16 10v2m0 4v5"/><path d="M20.972 16.968a2.01 2.01 0 0 0 .028-.337V7.369c0-.655-.318-1.268-.853-1.643L16.78 3.363A2 2 0 0 0 15.633 3H8.367a1.99 1.99 0 0 0-1.066.309M4.956 4.952l-1.103.774A2.006 2.006 0 0 0 3 7.37v9.261c0 .655.318 1.269.853 1.644l3.367 2.363A2 2 0 0 0 8.367 21h7.265c.41 0 .811-.126 1.147-.363l2.26-1.587M3 3l18 18"/></svg>