<svg xmlns="http://www.w3.org/2000/svg" viewBox="0 0 24 24" fill="none" stroke="currentColor" stroke-width="2" stroke-linecap="round" stroke-linejoin="round" class="icon icon-tabler icons-tabler-outline icon-tabler-hexagon-number-1" id="icon"><path d="M0 0h24v24H0z" stroke="none"/><path d="M19.875 6.27A2.225 2.225 0 0 1 21 8.218v7.284c0 .809-.443 1.555-1.158 1.948l-6.75 4.27a2.269 2.269 0 0 1-2.184 0l-6.75-4.27A2.225 2.225 0 0 1 3 15.502V8.217c0-.809.443-1.554 1.158-1.947l6.75-3.98a2.33 2.33 0 0 1 2.25 0l6.75 3.98h-.033z"/><path d="m10 10 2-2v8"/></svg>