<svg xmlns="http://www.w3.org/2000/svg" viewBox="0 0 24 24" fill="none" stroke="currentColor" stroke-width="2" stroke-linecap="round" stroke-linejoin="round" class="icon icon-tabler icons-tabler-outline icon-tabler-hierarchy-3" id="icon"><path d="M0 0h24v24H0z" stroke="none"/><path d="M10 5a2 2 0 1 0 4 0 2 2 0 1 0-4 0M6 12a2 2 0 1 0 4 0 2 2 0 1 0-4 0M10 19a2 2 0 1 0 4 0 2 2 0 1 0-4 0M18 19a2 2 0 1 0 4 0 2 2 0 1 0-4 0M2 19a2 2 0 1 0 4 0 2 2 0 1 0-4 0M14 12a2 2 0 1 0 4 0 2 2 0 1 0-4 0M5 17l2-3M9 10l2-3M13 7l2 3M17 14l2 3M15 14l-2 3M9 14l2 3"/></svg>