<svg xmlns="http://www.w3.org/2000/svg" viewBox="0 0 24 24" fill="none" stroke="currentColor" stroke-width="2" stroke-linecap="round" stroke-linejoin="round" class="icon icon-tabler icons-tabler-outline icon-tabler-home-link" id="icon"><path d="M0 0h24v24H0z" stroke="none"/><path d="M20.085 11.085 12 3l-9 9h2v7a2 2 0 0 0 2 2h4.5"/><path d="M9 21v-6a2 2 0 0 1 2-2h2a2 2 0 0 1 1.807 1.143M20 21a1 1 0 1 0 2 0 1 1 0 1 0-2 0M20 16a1 1 0 1 0 2 0 1 1 0 1 0-2 0M15 19a1 1 0 1 0 2 0 1 1 0 1 0-2 0"/><path d="m21 16-5 3 5 2"/></svg>