<svg xmlns="http://www.w3.org/2000/svg" viewBox="0 0 24 24" fill="none" stroke="currentColor" stroke-width="2" stroke-linecap="round" stroke-linejoin="round" class="icon icon-tabler icons-tabler-outline icon-tabler-horse" id="icon"><path d="M0 0h24v24H0z" stroke="none"/><path d="m7 10-.85 8.507A1.357 1.357 0 0 0 7.5 20h.146a2 2 0 0 0 1.857-1.257l.994-2.486A2 2 0 0 1 12.354 15h1.292a2 2 0 0 1 1.857 1.257l.994 2.486A2 2 0 0 0 18.354 20h.146a1.37 1.37 0 0 0 1.364-1.494L19 9h-8c0-3-3-5-6-5l-3 6 2 2 3-2zM22 14v-2a3 3 0 0 0-3-3"/></svg>