<svg xmlns="http://www.w3.org/2000/svg" viewBox="0 0 24 24" fill="none" stroke="currentColor" stroke-width="2" stroke-linecap="round" stroke-linejoin="round" class="icon icon-tabler icons-tabler-outline icon-tabler-irregular-polyhedron-plus" id="icon"><path d="M0 0h24v24H0z" stroke="none"/><path d="m18 12 1.752-6.13a1 1 0 0 0-.592-1.205l-6.282-2.503a2.46 2.46 0 0 0-1.756 0L4.84 4.665a1 1 0 0 0-.592 1.204L6 12l-1.752 6.13a1 1 0 0 0 .592 1.205l6.282 2.503a2.46 2.46 0 0 0 1.756 0l.221-.088"/><path d="m4.5 5.5 6.622 2.33a2.35 2.35 0 0 0 1.756 0L19.5 5.5M6 12l5.21 1.862a2.34 2.34 0 0 0 1.58 0L18 12M12 22V8M16 19h6M19 16v6"/></svg>