<svg xmlns="http://www.w3.org/2000/svg" viewBox="0 0 24 24" fill="none" stroke="currentColor" stroke-width="2" stroke-linecap="round" stroke-linejoin="round" class="icon icon-tabler icons-tabler-outline icon-tabler-joker" id="icon"><path d="M0 0h24v24H0z" stroke="none"/><path d="M5 17.5A1.5 1.5 0 0 1 6.5 16h11a1.5 1.5 0 0 1 1.5 1.5v0a1.5 1.5 0 0 1-1.5 1.5h-11A1.5 1.5 0 0 1 5 17.5zM12 16Q9.5 8 6 8q-2.5 0-3 2c2.953.31 3.308 3.33 4 6M12 16q2.5-8 6-8 2.5 0 3 2c-2.953.31-3.308 3.33-4 6"/><path d="M9 9.5Q11 6 12 6t3 3.5"/></svg>