<svg xmlns="http://www.w3.org/2000/svg" viewBox="0 0 24 24" fill="none" stroke="currentColor" stroke-width="2" stroke-linecap="round" stroke-linejoin="round" class="icon icon-tabler icons-tabler-outline icon-tabler-layers-selected" id="icon"><path d="M0 0h24v24H0z" stroke="none"/><path d="m8 10.5 6.492-6.492M13.496 16 20 9.496zM8.586 15.414 19.413 4.587M8 6a2 2 0 0 1 2-2h8a2 2 0 0 1 2 2v8a2 2 0 0 1-2 2h-8a2 2 0 0 1-2-2z"/><path d="M16 16v2a2 2 0 0 1-2 2H6a2 2 0 0 1-2-2v-8a2 2 0 0 1 2-2h2"/></svg>