<svg xmlns="http://www.w3.org/2000/svg" viewBox="0 0 24 24" fill="none" stroke="currentColor" stroke-width="2" stroke-linecap="round" stroke-linejoin="round" class="icon icon-tabler icons-tabler-outline icon-tabler-layout-dashboard" id="icon"><path d="M0 0h24v24H0z" stroke="none"/><path d="M5 4h4a1 1 0 0 1 1 1v6a1 1 0 0 1-1 1H5a1 1 0 0 1-1-1V5a1 1 0 0 1 1-1M5 16h4a1 1 0 0 1 1 1v2a1 1 0 0 1-1 1H5a1 1 0 0 1-1-1v-2a1 1 0 0 1 1-1M15 12h4a1 1 0 0 1 1 1v6a1 1 0 0 1-1 1h-4a1 1 0 0 1-1-1v-6a1 1 0 0 1 1-1M15 4h4a1 1 0 0 1 1 1v2a1 1 0 0 1-1 1h-4a1 1 0 0 1-1-1V5a1 1 0 0 1 1-1"/></svg>