<svg xmlns="http://www.w3.org/2000/svg" viewBox="0 0 24 24" fill="none" stroke="currentColor" stroke-width="2" stroke-linecap="round" stroke-linejoin="round" class="icon icon-tabler icons-tabler-outline icon-tabler-layout-off" id="icon"><path d="M0 0h24v24H0z" stroke="none"/><path d="M8 4a2 2 0 0 1 2 2M8.838 8.816A1.993 1.993 0 0 1 8 9H6a2 2 0 0 1-2-2V6c0-.549.221-1.046.58-1.407M4 15a2 2 0 0 1 2-2h2a2 2 0 0 1 2 2v3a2 2 0 0 1-2 2H6a2 2 0 0 1-2-2zM14 10V6a2 2 0 0 1 2-2h2a2 2 0 0 1 2 2v10m-.595 3.423A2 2 0 0 1 18 20h-2a2 2 0 0 1-2-2v-4M3 3l18 18"/></svg>