<svg xmlns="http://www.w3.org/2000/svg" viewBox="0 0 24 24" fill="none" stroke="currentColor" stroke-width="2" stroke-linecap="round" stroke-linejoin="round" class="icon icon-tabler icons-tabler-outline icon-tabler-lock-pin" id="icon"><path d="M0 0h24v24H0z" stroke="none"/><path d="M12.5 21H7a2 2 0 0 1-2-2v-6a2 2 0 0 1 2-2h10c.24 0 .47.042.683.12"/><path d="M11 16a1 1 0 1 0 2 0 1 1 0 0 0-2 0M8 11V7a4 4 0 1 1 8 0v4M21.121 20.121a3 3 0 1 0-4.242 0c.418.419 1.125 1.045 2.121 1.879 1.051-.89 1.759-1.516 2.121-1.879zM19 18v.01"/></svg>