<svg xmlns="http://www.w3.org/2000/svg" viewBox="0 0 24 24" fill="none" stroke="currentColor" stroke-width="2" stroke-linecap="round" stroke-linejoin="round" class="icon icon-tabler icons-tabler-outline icon-tabler-lock-heart" id="icon"><path d="M0 0h24v24H0z" stroke="none"/><path d="M11.5 21H7a2 2 0 0 1-2-2v-6a2 2 0 0 1 2-2h10c.38 0 .734.106 1.037.29M8 11V7a4 4 0 1 1 8 0v4"/><path d="m18 22 3.35-3.284a2.143 2.143 0 0 0 .005-3.071 2.242 2.242 0 0 0-3.129-.006l-.224.22-.223-.22a2.242 2.242 0 0 0-3.128-.006 2.143 2.143 0 0 0-.006 3.071L18 22z"/></svg>