<svg xmlns="http://www.w3.org/2000/svg" viewBox="0 0 24 24" fill="none" stroke="currentColor" stroke-width="2" stroke-linecap="round" stroke-linejoin="round" class="icon icon-tabler icons-tabler-outline icon-tabler-magnetic" id="icon"><path d="M0 0h24v24H0z" stroke="none"/><path d="M12 3v18M18 7c-.633-1.255-1.538-2-2.5-2-1.933 0-3.5 3.134-3.5 7s1.567 7 3.5 7 3.5-3.134 3.5-7v-1M6 7c.633-1.255 1.538-2 2.5-2 1.933 0 3.5 3.134 3.5 7s-1.567 7-3.5 7S5 15.866 5 12v-1"/><path d="m3 13 2-2 2 2M17 13l2-2 2 2"/></svg>