<svg xmlns="http://www.w3.org/2000/svg" viewBox="0 0 24 24" fill="none" stroke="currentColor" stroke-width="2" stroke-linecap="round" stroke-linejoin="round" class="icon icon-tabler icons-tabler-outline icon-tabler-manual-gearbox" id="icon"><path d="M0 0h24v24H0z" stroke="none"/><path d="M3 6a2 2 0 1 0 4 0 2 2 0 1 0-4 0M10 6a2 2 0 1 0 4 0 2 2 0 1 0-4 0M17 6a2 2 0 1 0 4 0 2 2 0 1 0-4 0M3 18a2 2 0 1 0 4 0 2 2 0 1 0-4 0M10 18a2 2 0 1 0 4 0 2 2 0 1 0-4 0M5 8v8M12 8v8"/><path d="M19 8v2a2 2 0 0 1-2 2H5"/></svg>