<svg xmlns="http://www.w3.org/2000/svg" viewBox="0 0 24 24" fill="none" stroke="currentColor" stroke-width="" stroke-linecap="round" stroke-linejoin="round" class="icon icon-tabler icons-tabler-outline icon-tabler-mesh" id="icon"><path d="M0 0h24v24H0z" stroke="none"/><path d="M3 9h18M3 15h18M8 4c.485.445 3.5 3.312 3.5 8 0 .663-.07 4.848-3.5 8M15 4a17 17 0 0 1 2.004 8c0 1.51-.201 4.628-2.004 8"/><path d="M18.778 20H5.222A2.22 2.22 0 0 1 3 17.778V6.222C3 4.995 3.995 4 5.222 4h13.556C20.005 4 21 4.995 21 6.222v11.556A2.22 2.22 0 0 1 18.778 20"/></svg>