<svg xmlns="http://www.w3.org/2000/svg" viewBox="0 0 24 24" fill="none" stroke="currentColor" stroke-width="2" stroke-linecap="round" stroke-linejoin="round" class="icon icon-tabler icons-tabler-outline icon-tabler-message-circle-user" id="icon"><path d="M0 0h24v24H0z" stroke="none"/><path d="M17 17a2 2 0 1 0 4 0 2 2 0 1 0-4 0M22 22a2 2 0 0 0-2-2h-2a2 2 0 0 0-2 2M12.454 19.97A9.9 9.9 0 0 1 7.7 19L3 20l1.3-3.9C1.976 12.663 2.874 8.228 6.4 5.726c3.526-2.501 8.59-2.296 11.845.48 1.667 1.423 2.596 3.294 2.747 5.216"/></svg>