<svg xmlns="http://www.w3.org/2000/svg" viewBox="0 0 24 24" fill="none" stroke="currentColor" stroke-width="2" stroke-linecap="round" stroke-linejoin="round" class="icon icon-tabler icons-tabler-outline icon-tabler-microwave" id="icon"><path d="M0 0h24v24H0z" stroke="none"/><path d="M3 7a1 1 0 0 1 1-1h16a1 1 0 0 1 1 1v10a1 1 0 0 1-1 1H4a1 1 0 0 1-1-1zM15 6v12M18 12h.01M18 15h.01M18 9h.01"/><path d="M6.5 10.5c1-.667 1.5-.667 2.5 0 .833.347 1.667.926 2.5 0M6.5 13.5c1-.667 1.5-.667 2.5 0 .833.347 1.667.926 2.5 0"/></svg>