<svg xmlns="http://www.w3.org/2000/svg" viewBox="0 0 24 24" fill="none" stroke="currentColor" stroke-width="2" stroke-linecap="round" stroke-linejoin="round" class="icon icon-tabler icons-tabler-outline icon-tabler-mood-cog" id="icon"><path d="M0 0h24v24H0z" stroke="none"/><path d="M21 12a9 9 0 1 0-8.983 9M16.001 18a2 2 0 1 0 4 0 2 2 0 1 0-4 0M18.001 14.5V16M18.001 20v1.5M21.032 16.25l-1.299.75M16.27 19l-1.3.75M14.97 16.25l1.3.75M19.733 19l1.3.75M9 10h.01M15 10h.01"/><path d="M9.5 15c.658.64 1.56 1 2.5 1"/></svg>