<svg xmlns="http://www.w3.org/2000/svg" viewBox="0 0 24 24" fill="none" stroke="currentColor" stroke-width="2" stroke-linecap="round" stroke-linejoin="round" class="icon icon-tabler icons-tabler-outline icon-tabler-moustache" id="icon"><path d="M0 0h24v24H0z" stroke="none"/><path d="M15 9a3 3 0 0 1 2.599 1.5h0c.933 1.333 2.133 1.556 3.126 1.556h.291l.77-.044h.213c-.963 1.926-3.163 2.925-6.6 3H14.834a3 3 0 0 1 .165-6z"/><path d="M9 9a3 3 0 0 0-2.599 1.5h0c-.933 1.333-2.133 1.556-3.126 1.556h-.291l-.77-.044h-.213c.963 1.926 3.163 2.925 6.6 3H9.166a3 3 0 0 0-.165-6z"/></svg>