<svg xmlns="http://www.w3.org/2000/svg" viewBox="0 0 24 24" fill="none" stroke="currentColor" stroke-width="2" stroke-linecap="round" stroke-linejoin="round" class="icon icon-tabler icons-tabler-outline icon-tabler-network-off" id="icon"><path d="M0 0h24v24H0z" stroke="none"/><path d="M6.528 6.536a6 6 0 0 0 7.942 7.933m2.247-1.76A6 6 0 0 0 8.29 4.284"/><path d="M12 3c1.333.333 2 2.333 2 6 0 .337-.006.66-.017.968m-.55 3.473c-.333.884-.81 1.403-1.433 1.559M12 3c-.936.234-1.544 1.29-1.822 3.167m-.16 3.838C10.134 13.034 10.794 14.7 12 15M6 9h3m4 0h5M3 20h7M14 20h7M10 20a2 2 0 1 0 4 0 2 2 0 0 0-4 0M12 15v3M3 3l18 18"/></svg>