<svg xmlns="http://www.w3.org/2000/svg" viewBox="0 0 24 24" fill="none" stroke="currentColor" stroke-width="2" stroke-linecap="round" stroke-linejoin="round" class="icon icon-tabler icons-tabler-outline icon-tabler-no-creative-commons" id="icon"><path d="M0 0h24v24H0z" stroke="none"/><path d="M3 12a9 9 0 1 0 18 0 9 9 0 1 0-18 0"/><path d="M10.5 10.5a2.187 2.187 0 0 0-2.914.116 1.928 1.928 0 0 0 0 2.768 2.188 2.188 0 0 0 2.914.116M16.5 10.5a2.187 2.187 0 0 0-2.914.116 1.928 1.928 0 0 0 0 2.768 2.188 2.188 0 0 0 2.914.116M6 6l1.5 1.5M16.5 16.5 18 18"/></svg>