<svg xmlns="http://www.w3.org/2000/svg" viewBox="0 0 24 24" fill="none" stroke="currentColor" stroke-width="2" stroke-linecap="round" stroke-linejoin="round" class="icon icon-tabler icons-tabler-outline icon-tabler-number-38-small" id="icon"><path d="M0 0h24v24H0z" stroke="none"/><path d="M16 12h-1a1 1 0 0 1-1-1V9a1 1 0 0 1 1-1h2a1 1 0 0 1 1 1v2a1 1 0 0 1-1 1zh-1a1 1 0 0 0-1 1v2a1 1 0 0 0 1 1h2a1 1 0 0 0 1-1v-2a1 1 0 0 0-1-1M6 8h2.5A1.5 1.5 0 0 1 10 9.5v1A1.5 1.5 0 0 1 8.5 12H7h1.5a1.5 1.5 0 0 1 1.5 1.5v1A1.5 1.5 0 0 1 8.5 16H6"/></svg>