<svg xmlns="http://www.w3.org/2000/svg" viewBox="0 0 24 24" fill="none" stroke="currentColor" stroke-width="2" stroke-linecap="round" stroke-linejoin="round" class="icon icon-tabler icons-tabler-outline icon-tabler-pentagon-number-3" id="icon"><path d="M0 0h24v24H0z" stroke="none"/><path d="m13.163 2.168 8.021 5.828c.694.504.984 1.397.719 2.212l-3.064 9.43a1.978 1.978 0 0 1-1.881 1.367H7.042a1.978 1.978 0 0 1-1.881-1.367l-3.064-9.43a1.978 1.978 0 0 1 .719-2.212l8.021-5.828a1.978 1.978 0 0 1 2.326 0z"/><path d="M10 8h2.5A1.5 1.5 0 0 1 14 9.5v1a1.5 1.5 0 0 1-1.5 1.5H11h1.5a1.5 1.5 0 0 1 1.5 1.5v1a1.5 1.5 0 0 1-1.5 1.5H10"/></svg>