<svg xmlns="http://www.w3.org/2000/svg" viewBox="0 0 24 24" fill="none" stroke="currentColor" stroke-width="2" stroke-linecap="round" stroke-linejoin="round" class="icon icon-tabler icons-tabler-outline icon-tabler-pentagon-off" id="icon"><path d="M0 0h24v24H0z" stroke="none"/><path d="m8.133 4.133 2.704-1.965a1.978 1.978 0 0 1 2.326 0l8.021 5.828c.694.504.984 1.397.719 2.212l-1.887 5.808m-.981 3.02-.196.602a1.978 1.978 0 0 1-1.881 1.367H7.042a1.978 1.978 0 0 1-1.881-1.367l-3.064-9.43a1.978 1.978 0 0 1 .719-2.212L5.81 5.82M3 3l18 18"/></svg>