<svg xmlns="http://www.w3.org/2000/svg" viewBox="0 0 24 24" fill="none" stroke="currentColor" stroke-width="2" stroke-linecap="round" stroke-linejoin="round" class="icon icon-tabler icons-tabler-outline icon-tabler-photo-spark" id="icon"><path d="M0 0h24v24H0z" stroke="none"/><path d="M15 8h.01M12 21H6a3 3 0 0 1-3-3V6a3 3 0 0 1 3-3h12a3 3 0 0 1 3 3v6"/><path d="m3 16 5-5c.928-.893 2.072-.893 3 0l3.993 3.993"/><path d="m14 14 1-1c.47-.452.995-.675 1.52-.67M19 22.5a4.75 4.75 0 0 1 3.5-3.5 4.75 4.75 0 0 1-3.5-3.5 4.75 4.75 0 0 1-3.5 3.5 4.75 4.75 0 0 1 3.5 3.5"/></svg>