<svg xmlns="http://www.w3.org/2000/svg" viewBox="0 0 24 24" fill="none" stroke="currentColor" stroke-width="2" stroke-linecap="round" stroke-linejoin="round" class="icon icon-tabler icons-tabler-outline icon-tabler-photo-off" id="icon"><path d="M0 0h24v24H0z" stroke="none"/><path d="M15 8h.01M7 3h11a3 3 0 0 1 3 3v11m-.856 3.099A2.991 2.991 0 0 1 18 21H6a3 3 0 0 1-3-3V6c0-.845.349-1.608.91-2.153"/><path d="m3 16 5-5c.928-.893 2.072-.893 3 0l5 5M16.33 12.338c.574-.054 1.155.166 1.67.662l3 3M3 3l18 18"/></svg>