<svg xmlns="http://www.w3.org/2000/svg" viewBox="0 0 24 24" fill="none" stroke="currentColor" stroke-width="2" stroke-linecap="round" stroke-linejoin="round" class="icon icon-tabler icons-tabler-outline icon-tabler-photo-video" id="icon"><path d="M0 0h24v24H0z" stroke="none"/><path d="M9 15H6a3 3 0 0 1-3-3V6a3 3 0 0 1 3-3h6a3 3 0 0 1 3 3v3"/><path d="M9 12a3 3 0 0 1 3-3h6a3 3 0 0 1 3 3v6a3 3 0 0 1-3 3h-6a3 3 0 0 1-3-3zM3 12l2.296-2.296a2.41 2.41 0 0 1 3.408 0L9 10"/><path d="M14 13.5v3l2.5-1.5zM7 6v.01"/></svg>