<svg xmlns="http://www.w3.org/2000/svg" viewBox="0 0 24 24" fill="none" stroke="currentColor" stroke-width="2" stroke-linecap="round" stroke-linejoin="round" class="icon icon-tabler icons-tabler-outline icon-tabler-photo-cancel" id="icon"><path d="M0 0h24v24H0z" stroke="none"/><path d="M15 8h.01M12.5 21H6a3 3 0 0 1-3-3V6a3 3 0 0 1 3-3h12a3 3 0 0 1 3 3v6.5"/><path d="m3 16 5-5c.928-.893 2.072-.893 3 0l3 3M14 14l1-1c.616-.593 1.328-.792 2.008-.598M16 19a3 3 0 1 0 6 0 3 3 0 1 0-6 0M17 21l4-4"/></svg>