<svg xmlns="http://www.w3.org/2000/svg" viewBox="0 0 24 24" fill="none" stroke="currentColor" stroke-width="2" stroke-linecap="round" stroke-linejoin="round" class="icon icon-tabler icons-tabler-outline icon-tabler-photo-scan" id="icon"><path d="M0 0h24v24H0z" stroke="none"/><path d="M15 8h.01M6 13l2.644-2.644a1.21 1.21 0 0 1 1.712 0L14 14"/><path d="m13 13 1.644-1.644a1.21 1.21 0 0 1 1.712 0L18 13M4 8V6a2 2 0 0 1 2-2h2M4 16v2a2 2 0 0 0 2 2h2M16 4h2a2 2 0 0 1 2 2v2M16 20h2a2 2 0 0 0 2-2v-2"/></svg>