<svg xmlns="http://www.w3.org/2000/svg" viewBox="0 0 24 24" fill="none" stroke="currentColor" stroke-width="2" stroke-linecap="round" stroke-linejoin="round" class="icon icon-tabler icons-tabler-outline icon-tabler-printer-off" id="icon"><path d="M0 0h24v24H0z" stroke="none"/><path d="M20.412 16.416c.363-.362.588-.863.588-1.416v-4a2 2 0 0 0-2-2h-6M9 9H5a2 2 0 0 0-2 2v4a2 2 0 0 0 2 2h2M17 9V5a2 2 0 0 0-2-2H9c-.551 0-1.05.223-1.412.584M7 7v2"/><path d="M17 17v2a2 2 0 0 1-2 2H9a2 2 0 0 1-2-2v-4a2 2 0 0 1 2-2h4M3 3l18 18"/></svg>