<svg xmlns="http://www.w3.org/2000/svg" viewBox="0 0 24 24" fill="none" stroke="currentColor" stroke-width="2" stroke-linecap="round" stroke-linejoin="round" class="icon icon-tabler icons-tabler-outline icon-tabler-qrcode-off" id="icon"><path d="M0 0h24v24H0z" stroke="none"/><path d="M8 4h1a1 1 0 0 1 1 1v1m-.297 3.711A1 1 0 0 1 9 10H5a1 1 0 0 1-1-1V5c0-.275.11-.524.29-.705M7 17v.01M14 5a1 1 0 0 1 1-1h4a1 1 0 0 1 1 1v4a1 1 0 0 1-1 1h-4a1 1 0 0 1-1-1zM7 7v.01M4 15a1 1 0 0 1 1-1h4a1 1 0 0 1 1 1v4a1 1 0 0 1-1 1H5a1 1 0 0 1-1-1zM17 7v.01M20 14v.01M14 14v3M14 20h3M3 3l18 18"/></svg>