<svg xmlns="http://www.w3.org/2000/svg" viewBox="0 0 24 24" fill="none" stroke="currentColor" stroke-width="2" stroke-linecap="round" stroke-linejoin="round" class="icon icon-tabler icons-tabler-outline icon-tabler-radar-off" id="icon"><path d="M0 0h24v24H0z" stroke="none"/><path d="M11.291 11.295A1 1 0 0 0 12 13v8c2.488 0 4.74-1.01 6.37-2.642m1.675-2.319A8.962 8.962 0 0 0 21 12h-5M16 9a5 5 0 0 0-5.063-1.88M8.471 8.467a5 5 0 0 0 .53 7.535"/><path d="M20.486 9A9 9 0 0 0 7.961 3.968M5.644 5.643a9 9 0 0 0 3.36 14.852M3 3l18 18"/></svg>