<svg xmlns="http://www.w3.org/2000/svg" viewBox="0 0 24 24" fill="none" stroke="currentColor" stroke-width="2" stroke-linecap="round" stroke-linejoin="round" class="icon icon-tabler icons-tabler-outline icon-tabler-rectangular-prism-plus" id="icon"><path d="M0 0h24v24H0z" stroke="none"/><path d="M21 12.5V8.991a1.98 1.98 0 0 0-1-1.717l-4-2.008a2.016 2.016 0 0 0-2 0L4 10.273c-.619.355-1 1.01-1 1.718v5.018c0 .709.381 1.363 1 1.717l4 2.008a2.016 2.016 0 0 0 2 0l2.062-1.032M9 21v-7.5M9 13.5 20.5 8M3.5 11 9 13.5M16 19h6M19 16v6"/></svg>