<svg xmlns="http://www.w3.org/2000/svg" viewBox="0 0 24 24" fill="none" stroke="currentColor" stroke-width="2" stroke-linecap="round" stroke-linejoin="round" class="icon icon-tabler icons-tabler-outline icon-tabler-replace-user" id="icon"><path d="M0 0h24v24H0z" stroke="none"/><path d="M21 11V8a2 2 0 0 0-2-2h-6m0 0 3 3m-3-3 3-3M3 13.013v3a2 2 0 0 0 2 2h6m0 0-3-3m3 3-3 3M16 16.502a2 2 0 1 0 4.001-.001 2 2 0 0 0-4.001.001zM4 4.502a2 2 0 1 0 4.001-.001A2 2 0 0 0 4 4.502zM21 21.499a2 2 0 0 0-2-2h-2a2 2 0 0 0-2 2M9 9.499a2 2 0 0 0-2-2H5a2 2 0 0 0-2 2"/></svg>