<svg xmlns="http://www.w3.org/2000/svg" viewBox="0 0 24 24" fill="none" stroke="currentColor" stroke-width="2" stroke-linecap="round" stroke-linejoin="round" class="icon icon-tabler icons-tabler-outline icon-tabler-replace" id="icon"><path d="M0 0h24v24H0z" stroke="none"/><path d="M3 4a1 1 0 0 1 1-1h4a1 1 0 0 1 1 1v4a1 1 0 0 1-1 1H4a1 1 0 0 1-1-1zM15 16a1 1 0 0 1 1-1h4a1 1 0 0 1 1 1v4a1 1 0 0 1-1 1h-4a1 1 0 0 1-1-1zM21 11V8a2 2 0 0 0-2-2h-6l3 3m0-6-3 3M3 13v3a2 2 0 0 0 2 2h6l-3-3m0 6 3-3"/></svg>