<svg xmlns="http://www.w3.org/2000/svg" viewBox="0 0 24 24" fill="none" stroke="currentColor" stroke-width="2" stroke-linecap="round" stroke-linejoin="round" class="icon icon-tabler icons-tabler-outline icon-tabler-replace-off" id="icon"><path d="M0 0h24v24H0z" stroke="none"/><path d="M7 3h1a1 1 0 0 1 1 1v1m-.303 3.717A1 1 0 0 1 8 9H4a1 1 0 0 1-1-1V4c0-.28.115-.532.3-.714M19 15h1a1 1 0 0 1 1 1v1m-.303 3.717A1 1 0 0 1 20 21h-4a1 1 0 0 1-1-1v-4c0-.28.115-.532.3-.714M21 11V8a2 2 0 0 0-2-2h-6l3 3m0-6-3 3M3 13v3a2 2 0 0 0 2 2h6l-3-3m0 6 3-3M3 3l18 18"/></svg>