<svg xmlns="http://www.w3.org/2000/svg" viewBox="0 0 24 24" fill="none" stroke="currentColor" stroke-width="2" stroke-linecap="round" stroke-linejoin="round" class="icon icon-tabler icons-tabler-outline icon-tabler-report-search" id="icon"><path d="M0 0h24v24H0z" stroke="none"/><path d="M8 5H6a2 2 0 0 0-2 2v12a2 2 0 0 0 2 2h5.697M18 12V7a2 2 0 0 0-2-2h-2"/><path d="M8 5a2 2 0 0 1 2-2h2a2 2 0 0 1 2 2v0a2 2 0 0 1-2 2h-2a2 2 0 0 1-2-2zM8 11h4M8 15h3M14 17.5a2.5 2.5 0 1 0 5 0 2.5 2.5 0 1 0-5 0M18.5 19.5 21 22"/></svg>