<svg xmlns="http://www.w3.org/2000/svg" viewBox="0 0 24 24" fill="none" stroke="currentColor" stroke-width="2" stroke-linecap="round" stroke-linejoin="round" class="icon icon-tabler icons-tabler-outline icon-tabler-rocket-off" id="icon"><path d="M0 0h24v24H0z" stroke="none"/><path d="M9.29 9.275A9.03 9.03 0 0 0 9 10a6 6 0 0 0-5 3 8 8 0 0 1 7 7 6 6 0 0 0 3-5c.241-.085.478-.18.708-.283m2.428-1.61A9 9 0 0 0 20 7a3 3 0 0 0-3-3 9 9 0 0 0-6.107 2.864"/><path d="M7 14a6 6 0 0 0-3 6 6 6 0 0 0 6-3M14 9a1 1 0 1 0 2 0 1 1 0 1 0-2 0M3 3l18 18"/></svg>