<svg xmlns="http://www.w3.org/2000/svg" viewBox="0 0 24 24" fill="none" stroke="currentColor" stroke-width="2" stroke-linecap="round" stroke-linejoin="round" class="icon icon-tabler icons-tabler-outline icon-tabler-roller-skating" id="icon"><path d="M0 0h24v24H0z" stroke="none"/><path d="M5.905 5h3.418a1 1 0 0 1 .928.629l1.143 2.856a3 3 0 0 0 2.207 1.83l4.717.926A2.084 2.084 0 0 1 20 13.286V14a1 1 0 0 1-1 1H5.105a1 1 0 0 1-1-1.1l.8-8a1 1 0 0 1 1-.9z"/><path d="M6 17a2 2 0 1 0 4 0 2 2 0 1 0-4 0M14 17a2 2 0 1 0 4 0 2 2 0 1 0-4 0"/></svg>