<svg xmlns="http://www.w3.org/2000/svg" viewBox="0 0 24 24" fill="none" stroke="currentColor" stroke-width="2" stroke-linecap="round" stroke-linejoin="round" class="icon icon-tabler icons-tabler-outline icon-tabler-sailboat" id="icon"><path d="M0 0h24v24H0z" stroke="none"/><path d="M2 20a2.4 2.4 0 0 0 2 1 2.4 2.4 0 0 0 2-1 2.4 2.4 0 0 1 2-1 2.4 2.4 0 0 1 2 1 2.4 2.4 0 0 0 2 1 2.4 2.4 0 0 0 2-1 2.4 2.4 0 0 1 2-1 2.4 2.4 0 0 1 2 1 2.4 2.4 0 0 0 2 1 2.4 2.4 0 0 0 2-1M4 18l-1-3h18l-1 3M11 12h7l-7-9v9M8 7l-2 5"/></svg>