<svg xmlns="http://www.w3.org/2000/svg" viewBox="0 0 24 24" fill="none" stroke="currentColor" stroke-width="2" stroke-linecap="round" stroke-linejoin="round" class="icon icon-tabler icons-tabler-outline icon-tabler-scale-outline" id="icon"><path d="M0 0h24v24H0z" stroke="none"/><path d="M3 7a4 4 0 0 1 4-4h10a4 4 0 0 1 4 4v10a4 4 0 0 1-4 4H7a4 4 0 0 1-4-4z"/><path d="M12 7c1.956 0 3.724.802 5 2.095l-2.956 2.904a3 3 0 0 0-2.038-.799 3 3 0 0 0-2.038.798L7.012 9.095a6.979 6.979 0 0 1 5-2.095z"/></svg>