<svg xmlns="http://www.w3.org/2000/svg" viewBox="0 0 24 24" fill="none" stroke="currentColor" stroke-width="2" stroke-linecap="round" stroke-linejoin="round" class="icon icon-tabler icons-tabler-outline icon-tabler-scoreboard" id="icon"><path d="M0 0h24v24H0z" stroke="none"/><path d="M3 7a2 2 0 0 1 2-2h14a2 2 0 0 1 2 2v10a2 2 0 0 1-2 2H5a2 2 0 0 1-2-2zM12 5v2M12 10v1M12 14v1M12 18v1M7 3v2M17 3v2"/><path d="M15 10.5v3a1.5 1.5 0 0 0 3 0v-3a1.5 1.5 0 0 0-3 0zM6 9h1.5a1.5 1.5 0 0 1 0 3H7h.5a1.5 1.5 0 0 1 0 3H6"/></svg>