<svg xmlns="http://www.w3.org/2000/svg" viewBox="0 0 24 24" fill="none" stroke="currentColor" stroke-width="2" stroke-linecap="round" stroke-linejoin="round" class="icon icon-tabler icons-tabler-outline icon-tabler-select-all" id="icon"><path d="M0 0h24v24H0z" stroke="none"/><path d="M8 9a1 1 0 0 1 1-1h6a1 1 0 0 1 1 1v6a1 1 0 0 1-1 1H9a1 1 0 0 1-1-1zM12 20v.01M16 20v.01M8 20v.01M4 20v.01M4 16v.01M4 12v.01M4 8v.01M4 4v.01M8 4v.01M12 4v.01M16 4v.01M20 4v.01M20 8v.01M20 12v.01M20 16v.01M20 20v.01"/></svg>