<svg xmlns="http://www.w3.org/2000/svg" viewBox="0 0 24 24" fill="none" stroke="currentColor" stroke-width="2" stroke-linecap="round" stroke-linejoin="round" class="icon icon-tabler icons-tabler-outline icon-tabler-settings-search" id="icon"><path d="M0 0h24v24H0z" stroke="none"/><path d="M11.646 20.965a1.67 1.67 0 0 1-1.321-1.282 1.724 1.724 0 0 0-2.573-1.066c-1.543.94-3.31-.826-2.37-2.37a1.724 1.724 0 0 0-1.065-2.572c-1.756-.426-1.756-2.924 0-3.35a1.724 1.724 0 0 0 1.066-2.573c-.94-1.543.826-3.31 2.37-2.37 1 .608 2.296.07 2.572-1.065.426-1.756 2.924-1.756 3.35 0a1.724 1.724 0 0 0 2.573 1.066c1.543-.94 3.31.826 2.37 2.37a1.724 1.724 0 0 0 1.065 2.572c.728.177 1.154.71 1.279 1.303"/><path d="M14.985 11.694a3 3 0 1 0-3.29 3.29M15 18a3 3 0 1 0 6 0 3 3 0 1 0-6 0M20.2 20.2 22 22"/></svg>