<svg xmlns="http://www.w3.org/2000/svg" viewBox="0 0 24 24" fill="none" stroke="currentColor" stroke-width="2" stroke-linecap="round" stroke-linejoin="round" class="icon icon-tabler icons-tabler-outline icon-tabler-share-off" id="icon"><path d="M0 0h24v24H0z" stroke="none"/><path d="M3 12a3 3 0 1 0 6 0 3 3 0 1 0-6 0M15 6a3 3 0 1 0 6 0 3 3 0 1 0-6 0M15.861 15.896a3 3 0 0 0 4.265 4.22m.578-3.417a3.012 3.012 0 0 0-1.507-1.45M8.7 10.7l1.336-.688M12.66 8.66 15.3 7.3M8.7 13.3l6.6 3.4M3 3l18 18"/></svg>