<svg xmlns="http://www.w3.org/2000/svg" viewBox="0 0 24 24" fill="none" stroke="currentColor" stroke-width="2" stroke-linecap="round" stroke-linejoin="round" class="icon icon-tabler icons-tabler-outline icon-tabler-shield-star" id="icon"><path d="M0 0h24v24H0z" stroke="none"/><path d="M11.143 20.743A12 12 0 0 1 3.5 6 12 12 0 0 0 12 3a12 12 0 0 0 8.5 3c.504 1.716.614 3.505.343 5.237"/><path d="m17.8 20.817-2.172 1.138a.392.392 0 0 1-.568-.41l.415-2.411-1.757-1.707a.389.389 0 0 1 .217-.665l2.428-.352 1.086-2.193a.392.392 0 0 1 .702 0l1.086 2.193 2.428.352a.39.39 0 0 1 .217.665l-1.757 1.707.414 2.41a.39.39 0 0 1-.567.411L17.8 20.817z"/></svg>