<svg xmlns="http://www.w3.org/2000/svg" viewBox="0 0 24 24" fill="none" stroke="currentColor" stroke-width="2" stroke-linecap="round" stroke-linejoin="round" class="icon icon-tabler icons-tabler-outline icon-tabler-shopping-bag-heart" id="icon"><path d="M0 0h24v24H0z" stroke="none"/><path d="M11.5 21H8.574a3 3 0 0 1-2.965-2.544l-1.255-8.152A2 2 0 0 1 6.331 8H17.67a2 2 0 0 1 1.977 2.304c-.057.368-.1.644-.127.828"/><path d="M9 11V6a3 3 0 0 1 6 0v5M18 22l3.35-3.284a2.143 2.143 0 0 0 .005-3.071 2.242 2.242 0 0 0-3.129-.006l-.224.22-.223-.22a2.242 2.242 0 0 0-3.128-.006 2.143 2.143 0 0 0-.006 3.071L18 22z"/></svg>