<svg xmlns="http://www.w3.org/2000/svg" viewBox="0 0 24 24" fill="none" stroke="currentColor" stroke-width="2" stroke-linecap="round" stroke-linejoin="round" class="icon icon-tabler icons-tabler-outline icon-tabler-shopping-cart-heart" id="icon"><path d="M0 0h24v24H0z" stroke="none"/><path d="M4 19a2 2 0 1 0 4 0 2 2 0 0 0-4 0"/><path d="M10 17H6V3H4"/><path d="m6 5 14 1-.717 5.016M11.5 13H6M18 22l3.35-3.284a2.143 2.143 0 0 0 .005-3.071 2.242 2.242 0 0 0-3.129-.006l-.224.22-.223-.22a2.242 2.242 0 0 0-3.128-.006 2.143 2.143 0 0 0-.006 3.071L18 22z"/></svg>