<svg xmlns="http://www.w3.org/2000/svg" viewBox="0 0 24 24" fill="none" stroke="currentColor" stroke-width="2" stroke-linecap="round" stroke-linejoin="round" class="icon icon-tabler icons-tabler-outline icon-tabler-square-f9" id="icon"><path d="M0 0h24v24H0z" stroke="none"/><path d="M3 5a2 2 0 0 1 2-2h14a2 2 0 0 1 2 2v14a2 2 0 0 1-2 2H5a2 2 0 0 1-2-2z"/><path d="M13 14.25c0 .414.336.75.75.75h1.5a.75.75 0 0 0 .75-.75v-4.5a.75.75 0 0 0-.75-.75h-1.5a.75.75 0 0 0-.75.75v1.5c0 .414.336.75.75.75H16M8 12h2M10 9H8v6"/></svg>