<svg xmlns="http://www.w3.org/2000/svg" viewBox="0 0 24 24" fill="none" stroke="currentColor" stroke-width="2" stroke-linecap="round" stroke-linejoin="round" class="icon icon-tabler icons-tabler-outline icon-tabler-swimming" id="icon"><path d="M0 0h24v24H0z" stroke="none"/><path d="M15 9a1 1 0 1 0 2 0 1 1 0 1 0-2 0M6 11l4-2 3.5 3-1.5 2M3 16.75A2.4 2.4 0 0 0 4 17a2.4 2.4 0 0 0 2-1 2.4 2.4 0 0 1 2-1 2.4 2.4 0 0 1 2 1 2.4 2.4 0 0 0 2 1 2.4 2.4 0 0 0 2-1 2.4 2.4 0 0 1 2-1 2.4 2.4 0 0 1 2 1 2.4 2.4 0 0 0 2 1 2.4 2.4 0 0 0 1-.25"/></svg>