<svg xmlns="http://www.w3.org/2000/svg" viewBox="0 0 24 24" fill="none" stroke="currentColor" stroke-width="2" stroke-linecap="round" stroke-linejoin="round" class="icon icon-tabler icons-tabler-outline icon-tabler-tag-plus" id="icon"><path d="M0 0h24v24H0z" stroke="none"/><path d="M6.5 7.5a1 1 0 1 0 2 0 1 1 0 1 0-2 0"/><path d="M21.002 13a2.4 2.4 0 0 0-.706-1.704l-7.71-7.71A2 2 0 0 0 11.172 3H6a3 3 0 0 0-3 3v5.172a2 2 0 0 0 .586 1.414l7.71 7.71c.471.47 1.087.706 1.704.706M16 19h6M19 16v6"/></svg>