<svg xmlns="http://www.w3.org/2000/svg" viewBox="0 0 24 24" fill="none" stroke="currentColor" stroke-width="2" stroke-linecap="round" stroke-linejoin="round" class="icon icon-tabler icons-tabler-outline icon-tabler-tag-off" id="icon"><path d="M0 0h24v24H0z" stroke="none"/><path d="M7.149 7.144A.498.498 0 0 0 7.5 8a.498.498 0 0 0 .341-.135"/><path d="M3.883 3.875A2.99 2.99 0 0 0 3 6v5.172a2 2 0 0 0 .586 1.414l7.71 7.71a2.41 2.41 0 0 0 3.408 0L17.5 17.5m2.005-2.005.79-.79a2.41 2.41 0 0 0 0-3.41l-7.71-7.71A2 2 0 0 0 11.173 3H7M3 3l18 18"/></svg>