<svg xmlns="http://www.w3.org/2000/svg" viewBox="0 0 24 24" fill="none" stroke="currentColor" stroke-width="2" stroke-linecap="round" stroke-linejoin="round" class="icon icon-tabler icons-tabler-outline icon-tabler-tags" id="icon"><path d="M0 0h24v24H0z" stroke="none"/><path d="M3 8v4.172a2 2 0 0 0 .586 1.414l5.71 5.71a2.41 2.41 0 0 0 3.408 0l3.592-3.592a2.41 2.41 0 0 0 0-3.408l-5.71-5.71A2 2 0 0 0 9.172 6H5a2 2 0 0 0-2 2z"/><path d="m18 19 1.592-1.592a4.82 4.82 0 0 0 0-6.816L15 6M7 10h-.01"/></svg>