<svg xmlns="http://www.w3.org/2000/svg" viewBox="0 0 24 24" fill="none" stroke="currentColor" stroke-width="2" stroke-linecap="round" stroke-linejoin="round" class="icon icon-tabler icons-tabler-outline icon-tabler-tax" id="icon"><path d="M0 0h24v24H0z" stroke="none"/><path d="M8.487 21h7.026a4 4 0 0 0 3.808-5.224l-1.706-5.306A5 5 0 0 0 12.855 7h-1.71a5 5 0 0 0-4.76 3.47l-1.706 5.306A4 4 0 0 0 8.487 21M15 3q-1 4-3 4T9 3z"/><path d="M14 11h-2.5a1.5 1.5 0 0 0 0 3h1a1.5 1.5 0 0 1 0 3H10M12 10v1M12 17v1"/></svg>