<svg xmlns="http://www.w3.org/2000/svg" viewBox="0 0 24 24" fill="none" stroke="currentColor" stroke-width="2" stroke-linecap="round" stroke-linejoin="round" class="icon icon-tabler icons-tabler-outline icon-tabler-tip-jar" id="icon"><path d="M0 0h24v24H0z" stroke="none"/><path d="M14 10h-2.5a1.5 1.5 0 0 0 0 3h1a1.5 1.5 0 0 1 0 3H10M12 9v1M12 16v1"/><path d="M17 4v1.882c0 .685.387 1.312 1 1.618s1 .933 1 1.618V18a3 3 0 0 1-3 3H8a3 3 0 0 1-3-3V9.118c0-.685.387-1.312 1-1.618s1-.933 1-1.618V4M6 4h12z"/></svg>