<svg xmlns="http://www.w3.org/2000/svg" viewBox="0 0 24 24" fill="none" stroke="currentColor" stroke-width="" stroke-linecap="round" stroke-linejoin="round" class="icon icon-tabler icons-tabler-outline icon-tabler-topology-full-hierarchy" id="icon"><path d="M0 0h24v24H0z" stroke="none"/><path d="M20 18a2 2 0 1 0-4 0 2 2 0 0 0 4 0M8 18a2 2 0 1 0-4 0 2 2 0 0 0 4 0M8 6a2 2 0 1 0-4 0 2 2 0 0 0 4 0M20 6a2 2 0 1 0-4 0 2 2 0 0 0 4 0M14 12a2 2 0 1 0-4 0 2 2 0 0 0 4 0M6 8v8M18 16V8M8 6h8M16 18H8M7.5 7.5l3 3M13.5 13.5l3 3M16.5 7.5l-3 3M10.5 13.5l-3 3"/></svg>