<svg xmlns="http://www.w3.org/2000/svg" viewBox="0 0 24 24" fill="none" stroke="currentColor" stroke-width="2" stroke-linecap="round" stroke-linejoin="round" class="icon icon-tabler icons-tabler-outline icon-tabler-topology-star-ring" id="icon"><path d="M0 0h24v24H0z" stroke="none"/><path d="M14 20a2 2 0 1 0-4 0 2 2 0 0 0 4 0zM14 4a2 2 0 1 0-4 0 2 2 0 0 0 4 0zM6 12a2 2 0 1 0-4 0 2 2 0 0 0 4 0zM22 12a2 2 0 1 0-4 0 2 2 0 0 0 4 0zM14 12a2 2 0 1 0-4 0 2 2 0 0 0 4 0zM6 12h4M14 12h4M13.5 5.5l5 5M5.5 13.5l5 5M13.5 18.5l5-5M10.5 5.5l-5 5M12 6v4M12 14v4"/></svg>