<svg xmlns="http://www.w3.org/2000/svg" viewBox="0 0 24 24" fill="none" stroke="currentColor" stroke-width="2" stroke-linecap="round" stroke-linejoin="round" class="icon icon-tabler icons-tabler-outline icon-tabler-topology-complex" id="icon"><path d="M0 0h24v24H0z" stroke="none"/><path d="M20 18a2 2 0 1 0-4 0 2 2 0 0 0 4 0zM8 18a2 2 0 1 0-4 0 2 2 0 0 0 4 0zM8 6a2 2 0 1 0-4 0 2 2 0 0 0 4 0zM20 6a2 2 0 1 0-4 0 2 2 0 0 0 4 0zM14 12a2 2 0 1 0-4 0 2 2 0 0 0 4 0zM7.5 7.5l3 3M6 8v8M18 16V8M8 6h8M16 18H8"/></svg>