<svg xmlns="http://www.w3.org/2000/svg" viewBox="0 0 24 24" fill="none" stroke="currentColor" stroke-width="2" stroke-linecap="round" stroke-linejoin="round" class="icon icon-tabler icons-tabler-outline icon-tabler-tournament" id="icon"><path d="M0 0h24v24H0z" stroke="none"/><path d="M2 4a2 2 0 1 0 4 0 2 2 0 1 0-4 0M18 10a2 2 0 1 0 4 0 2 2 0 1 0-4 0M2 12a2 2 0 1 0 4 0 2 2 0 1 0-4 0M2 20a2 2 0 1 0 4 0 2 2 0 1 0-4 0M6 12h3a1 1 0 0 1 1 1v6a1 1 0 0 1-1 1H6"/><path d="M6 4h7a1 1 0 0 1 1 1v10a1 1 0 0 1-1 1h-2M14 10h4"/></svg>