<svg xmlns="http://www.w3.org/2000/svg" viewBox="0 0 24 24" fill="none" stroke="currentColor" stroke-width="2" stroke-linecap="round" stroke-linejoin="round" class="icon icon-tabler icons-tabler-outline icon-tabler-transaction-bitcoin" id="icon"><path d="M0 0h24v24H0z" stroke="none"/><path d="M15 12h4.09c1.055 0 1.91.895 1.91 2s-.855 2-1.91 2c1.055 0 1.91.895 1.91 2s-.855 2-1.91 2H15M16 16h4M16 11v10-9M19 11v1M19 20v1M3 5a2 2 0 1 0 4 0 2 2 0 1 0-4 0M15 5a2 2 0 1 0 4 0 2 2 0 1 0-4 0M7 5h8M7 5v8a3 3 0 0 0 3 3h1"/></svg>