<svg xmlns="http://www.w3.org/2000/svg" viewBox="0 0 24 24" fill="none" stroke="currentColor" stroke-width="2" stroke-linecap="round" stroke-linejoin="round" class="icon icon-tabler icons-tabler-outline icon-tabler-universe" id="icon"><path d="M0 0h24v24H0z" stroke="none"/><path d="M7.027 11.477a5 5 0 1 0 5.496-4.45 4.951 4.951 0 0 0-3.088.681"/><path d="M5.636 5.636a9 9 0 1 0 3.555-2.188"/><path d="M17 5a1 1 0 1 0 2 0 1 1 0 1 0-2 0M11 12a1 1 0 1 0 2 0 1 1 0 1 0-2 0M8 16a1 1 0 1 0 2 0 1 1 0 1 0-2 0"/></svg>