<svg xmlns="http://www.w3.org/2000/svg" viewBox="0 0 24 24" fill="none" stroke="currentColor" stroke-width="2" stroke-linecap="round" stroke-linejoin="round" class="icon icon-tabler icons-tabler-outline icon-tabler-vaccine-bottle" id="icon"><path d="M0 0h24v24H0z" stroke="none"/><path d="M9 4a1 1 0 0 1 1-1h4a1 1 0 0 1 1 1v1a1 1 0 0 1-1 1h-4a1 1 0 0 1-1-1zM10 6v.98c0 .877-.634 1.626-1.5 1.77-.866.144-1.5.893-1.5 1.77V19a2 2 0 0 0 2 2h6a2 2 0 0 0 2-2v-8.48c0-.877-.634-1.626-1.5-1.77A1.795 1.795 0 0 1 14 6.98V6M7 12h10M7 18h10M11 15h2"/></svg>