<svg xmlns="http://www.w3.org/2000/svg" viewBox="0 0 24 24" fill="none" stroke="currentColor" stroke-width="2" stroke-linecap="round" stroke-linejoin="round" class="icon icon-tabler icons-tabler-outline icon-tabler-variable-minus" id="icon"><path d="M0 0h24v24H0z" stroke="none"/><path d="M8 16c1.5 0 3-2 4-3.5S14.5 9 16 9"/><path d="M5 4C2.5 9 2.5 14 5 20M19 4c1.775 3.55 2.29 7.102 1.544 11.01M9 9h1c1 0 1 1 2.016 3.527.782 1.966.943 3 1.478 3.343"/><path d="M8 16c1.5 0 3-2 4-3.5S14.5 9 16 9M16 19h6"/></svg>