<svg xmlns="http://www.w3.org/2000/svg" viewBox="0 0 24 24" fill="none" stroke="currentColor" stroke-width="2" stroke-linecap="round" stroke-linejoin="round" class="icon icon-tabler icons-tabler-outline icon-tabler-vector-bezier-2" id="icon"><path d="M0 0h24v24H0z" stroke="none"/><path d="M3 4a1 1 0 0 1 1-1h2a1 1 0 0 1 1 1v2a1 1 0 0 1-1 1H4a1 1 0 0 1-1-1zM17 18a1 1 0 0 1 1-1h2a1 1 0 0 1 1 1v2a1 1 0 0 1-1 1h-2a1 1 0 0 1-1-1zM7 5h7M10 19h7M8 19a1 1 0 1 0 2 0 1 1 0 1 0-2 0M14 5a1 1 0 1 0 2 0 1 1 0 1 0-2 0"/><path d="M7 5.5a5 6.5 0 0 1 5 6.5 5 6.5 0 0 0 5 6.5"/></svg>