<svg xmlns="http://www.w3.org/2000/svg" viewBox="0 0 24 24" fill="none" stroke="currentColor" stroke-width="2" stroke-linecap="round" stroke-linejoin="round" class="icon icon-tabler icons-tabler-outline icon-tabler-vector-off" id="icon"><path d="M0 0h24v24H0z" stroke="none"/><path d="M6.68 6.733A1 1 0 0 1 6 7H4a1 1 0 0 1-1-1V4a1 1 0 0 1 .293-.708M17 4a1 1 0 0 1 1-1h2a1 1 0 0 1 1 1v2a1 1 0 0 1-1 1h-2a1 1 0 0 1-1-1zM20.72 20.693A1 1 0 0 1 20 21h-2a1 1 0 0 1-1-1v-2c0-.282.116-.536.304-.718M3 18a1 1 0 0 1 1-1h2a1 1 0 0 1 1 1v2a1 1 0 0 1-1 1H4a1 1 0 0 1-1-1zM5 7v10M19 7v8M9 5h8M7 19h10M3 3l18 18"/></svg>