<svg xmlns="http://www.w3.org/2000/svg" viewBox="0 0 24 24" fill="none" stroke="currentColor" stroke-width="2" stroke-linecap="round" stroke-linejoin="round" class="icon icon-tabler icons-tabler-outline icon-tabler-wash-eco" id="icon"><path d="M0 0h24v24H0z" stroke="none"/><path d="m3 6 1.721 10.329A2 2 0 0 0 6.694 18H12m8.162-6.972L21 6"/><path d="M3.486 8.965c.168.02.34.033.514.035.79.009 1.539-.178 2-.5.461-.32 1.21-.507 2-.5.79-.007 1.539.18 2 .5.461.322 1.21.509 2 .5.79.009 1.539-.178 2-.5.461-.32 1.21-.507 2-.5.79-.007 1.539.18 2 .5.461.322 1.21.509 2 .5.17 0 .339-.014.503-.034M16 22s0-2 3-4"/><path d="M19 21a3 3 0 0 1 0-6h3v3a3 3 0 0 1-3 3z"/></svg>