<svg xmlns="http://www.w3.org/2000/svg" viewBox="0 0 24 24" fill="none" stroke="currentColor" stroke-width="2" stroke-linecap="round" stroke-linejoin="round" class="icon icon-tabler icons-tabler-outline icon-tabler-wash-machine" id="icon"><path d="M0 0h24v24H0z" stroke="none"/><path d="M5 5a2 2 0 0 1 2-2h10a2 2 0 0 1 2 2v14a2 2 0 0 1-2 2H7a2 2 0 0 1-2-2z"/><path d="M8 14a4 4 0 1 0 8 0 4 4 0 1 0-8 0M8 6h.01M11 6h.01M14 6h2"/><path d="M8 14c1.333-.667 2.667-.667 4 0 1.333.667 2.667.667 4 0"/></svg>