<svg xmlns="http://www.w3.org/2000/svg" viewBox="0 0 24 24" fill="none" stroke="currentColor" stroke-width="2" stroke-linecap="round" stroke-linejoin="round" class="icon icon-tabler icons-tabler-outline icon-tabler-waterpolo" id="icon"><path d="M0 0h24v24H0z" stroke="none"/><path d="M12 9a1 1 0 1 0 2 0 1 1 0 0 0-2 0"/><path d="m5 8 3 4 4.5 1 7.5-1M3 18.75A2.4 2.4 0 0 0 4 19a2.4 2.4 0 0 0 2-1 2.4 2.4 0 0 1 2-1 2.4 2.4 0 0 1 2 1 2.4 2.4 0 0 0 2 1 2.4 2.4 0 0 0 2-1 2.4 2.4 0 0 1 2-1 2.4 2.4 0 0 1 2 1 2.4 2.4 0 0 0 2 1 2.4 2.4 0 0 0 1-.25M12 16l.5-3"/><path d="M6.5 5a.5.5 0 1 0 0-1 .5.5 0 0 0 0 1z" fill="currentColor"/></svg>