<svg xmlns="http://www.w3.org/2000/svg" viewBox="0 0 24 24" fill="none" stroke="currentColor" stroke-width="2" stroke-linecap="round" stroke-linejoin="round" class="icon icon-tabler icons-tabler-outline icon-tabler-waves-electricity" id="icon"><path d="M0 0h24v24H0z" stroke="none"/><path d="M3 12c.576-.643 1.512-1.017 2.5-1 .988-.017 1.924.357 2.5 1 .576.643 1.512 1.017 2.5 1 .988.017 1.924-.357 2.5-1M3 16c.576-.643 1.512-1.017 2.5-1 .988-.017 1.924.357 2.5 1 .576.643 1.512 1.017 2.5 1 .988.017 1.924-.357 2.5-1M3 8c.576-.643 1.512-1.017 2.5-1 .988-.017 1.924.357 2.5 1 .576.643 1.512 1.017 2.5 1 .988.017 1.924-.357 2.5-1M20 7l-3 5h4l-3 5"/></svg>