<svg xmlns="http://www.w3.org/2000/svg" viewBox="0 0 24 24" fill="none" stroke="currentColor" stroke-width="2" stroke-linecap="round" stroke-linejoin="round" class="icon icon-tabler icons-tabler-outline icon-tabler-wheat-off" id="icon"><path d="M0 0h24v24H0z" stroke="none"/><path d="m3 3 18 18M12 21.5v-3.75M5.916 9.49l-.43 1.604a4.984 4.984 0 0 0 3.524 6.104L12 18v-3.44a4.983 4.983 0 0 0-3.677-4.426L5.916 9.49zM10.249 4.251l.021-.021L12 2.5"/><path d="M10.27 11.15a4.902 4.902 0 0 1-1.246-2.118M14.988 8.988A4.897 4.897 0 0 0 13.73 4.23L12 2.5M16.038 10.037l2.046-.547.431 1.604c.142.53.193 1.063.162 1.583M16.506 16.505c-.45.307-.959.544-1.516.694L12 18v-3.44a4.976 4.976 0 0 1 .582-1.978"/></svg>