<svg xmlns="http://www.w3.org/2000/svg" viewBox="0 0 24 24" fill="none" stroke="currentColor" stroke-width="2" stroke-linecap="round" stroke-linejoin="round" class="icon icon-tabler icons-tabler-outline icon-tabler-wiper-wash" id="icon"><path d="M0 0h24v24H0z" stroke="none"/><path d="M11 20a1 1 0 1 0 2 0 1 1 0 1 0-2 0M3 11l5.5 5.5a5 5 0 0 1 7 0L21 11a12 12 0 0 0-18 0M12 20V6M4 6a4 4 0 0 1 .4-1.8M7 2.1a4 4 0 0 1 2 0"/><path d="M12 6a4 4 0 0 0-.4-1.8"/><path d="M12 6a4 4 0 0 1 .4-1.8M15 2.1a4 4 0 0 1 2 0M20 6a4 4 0 0 0-.4-1.8"/></svg>