<svg xmlns="http://www.w3.org/2000/svg" viewBox="0 0 24 24" fill="none" stroke="currentColor" stroke-width="2" stroke-linecap="round" stroke-linejoin="round" class="icon icon-tabler icons-tabler-outline icon-tabler-world-off" id="icon"><path d="M0 0h24v24H0z" stroke="none"/><path d="M5.657 5.615a9 9 0 1 0 12.717 12.739m1.672-2.322A9 9 0 0 0 7.98 3.948M3.6 9H9m4 0h7.4M3.6 15H15m4 0h1.4"/><path d="M11.5 3a17.001 17.001 0 0 0-1.493 3.022M9.16 9.167c-.68 4.027.1 8.244 2.34 11.833M12.5 3a16.982 16.982 0 0 1 2.549 8.005m-.207 3.818A16.979 16.979 0 0 1 12.5 21M3 3l18 18"/></svg>