<svg xmlns="http://www.w3.org/2000/svg" viewBox="0 0 24 24" fill="none" stroke="currentColor" stroke-width="2" stroke-linecap="round" stroke-linejoin="round" class="icon icon-tabler icons-tabler-outline icon-tabler-world-cog" id="icon"><path d="M0 0h24v24H0z" stroke="none"/><path d="M21 12a9 9 0 1 0-8.979 9M3.6 9h16.8M3.6 15h8.9"/><path d="M11.5 3a17 17 0 0 0 0 18M12.5 3a16.992 16.992 0 0 1 2.522 10.376M17.001 19a2 2 0 1 0 4 0 2 2 0 1 0-4 0M19.001 15.5V17M19.001 21v1.5M22.032 17.25l-1.299.75M17.27 20l-1.3.75M15.97 17.25l1.3.75M20.733 20l1.3.75"/></svg>