<svg xmlns="http://www.w3.org/2000/svg" viewBox="0 0 24 24" fill="none" stroke="currentColor" stroke-width="2" stroke-linecap="round" stroke-linejoin="round" class="icon icon-tabler icons-tabler-outline icon-tabler-world-star" id="icon"><path d="M0 0h24v24H0z" stroke="none"/><path d="M21 12a9 9 0 1 0-9.968 8.948M3.6 9h16.8M3.6 15H10"/><path d="M11.5 3a17.001 17.001 0 0 0-1.886 13.802M12.5 3a16.982 16.982 0 0 1 2.549 8.01M17.8 20.817l-2.172 1.138a.392.392 0 0 1-.568-.41l.415-2.411-1.757-1.707a.389.389 0 0 1 .217-.665l2.428-.352 1.086-2.193a.392.392 0 0 1 .702 0l1.086 2.193 2.428.352a.39.39 0 0 1 .217.665l-1.757 1.707.414 2.41a.39.39 0 0 1-.567.411L17.8 20.817z"/></svg>