<svg xmlns="http://www.w3.org/2000/svg" viewBox="0 0 24 24" fill="none" stroke="currentColor" stroke-width="2" stroke-linecap="round" stroke-linejoin="round" class="icon icon-tabler icons-tabler-outline icon-tabler-world-pin" id="icon"><path d="M0 0h24v24H0z" stroke="none"/><path d="M20.972 11.291a9 9 0 1 0-8.322 9.686M3.6 9h16.8M3.6 15h8.9"/><path d="M11.5 3a17 17 0 0 0 0 18M12.5 3a16.986 16.986 0 0 1 2.578 9.018M21.121 20.121a3 3 0 1 0-4.242 0c.418.419 1.125 1.045 2.121 1.879 1.051-.89 1.759-1.516 2.121-1.879zM19 18v.01"/></svg>