<svg xmlns="http://www.w3.org/2000/svg" viewBox="0 0 24 24" fill="currentColor" class="icon icon-tabler icons-tabler-filled icon-tabler-align-box-right-middle" id="icon"><path d="M0 0h24v24H0z" fill="none"/><path d="M18.333 2c1.96 0 3.56 1.537 3.662 3.472l.005.195v12.666c0 1.96-1.537 3.56-3.472 3.662l-.195.005H5.667a3.667 3.667 0 0 1-3.662-3.472L2 18.333V5.667c0-1.96 1.537-3.56 3.472-3.662L5.667 2h12.666zM18 14h-2l-.117.007a1 1 0 0 0 0 1.986L16 16h2l.117-.007a1 1 0 0 0 0-1.986L18 14zm0-3h-6l-.117.007a1 1 0 0 0 0 1.986L12 13h6l.117-.007a1 1 0 0 0 0-1.986L18 11zm0-3h-4l-.117.007a1 1 0 0 0 0 1.986L14 10h4l.117-.007a1 1 0 0 0 0-1.986L18 8z"/></svg>