<svg xmlns="http://www.w3.org/2000/svg" viewBox="0 0 24 24" fill="currentColor" class="icon icon-tabler icons-tabler-filled icon-tabler-align-box-center-middle" id="icon"><path d="M0 0h24v24H0z" fill="none"/><path d="M19 2a3 3 0 0 1 2.995 2.824L22 5v14a3 3 0 0 1-2.824 2.995L19 22H5a3 3 0 0 1-2.993-2.802L2 19V5a3 3 0 0 1 2.824-2.995L5 2h14zm-6 12h-2l-.117.007a1 1 0 0 0 0 1.986L11 16h2l.117-.007a1 1 0 0 0 0-1.986L13 14zm2-3H9l-.117.007a1 1 0 0 0 0 1.986L9 13h6l.117-.007a1 1 0 0 0 0-1.986L15 11zm-1-3h-4l-.117.007a1 1 0 0 0 0 1.986L10 10h4l.117-.007a1 1 0 0 0 0-1.986L14 8z"/></svg>