<svg xmlns="http://www.w3.org/2000/svg" viewBox="0 0 24 24" fill="currentColor" class="icon icon-tabler icons-tabler-filled icon-tabler-analyze" id="icon"><path d="M0 0h24v24H0z" fill="none"/><path d="M4.99 12.862a7.1 7.1 0 0 0 12.171 3.924 1.956 1.956 0 0 1-.156-.637L17 16l.005-.15a2 2 0 1 1 1.769 2.137 9.099 9.099 0 0 1-15.764-4.85 1 1 0 0 1 1.98-.275z"/><path d="M12 8a4 4 0 1 1-3.995 4.2L8 12l.005-.2A4 4 0 0 1 12 8z"/><path d="M13.142 3.09a9.1 9.1 0 0 1 7.848 7.772 1 1 0 0 1-1.98.276 7.1 7.1 0 0 0-6.125-6.064A7.096 7.096 0 0 0 6.837 7.21a2 2 0 1 1-3.831.939L3 8l.005-.15a2 2 0 0 1 2.216-1.838 9.094 9.094 0 0 1 7.921-2.922z"/></svg>