<svg xmlns="http://www.w3.org/2000/svg" viewBox="0 0 24 24" fill="currentColor" class="icon icon-tabler icons-tabler-filled icon-tabler-apps" id="icon"><path d="M0 0h24v24H0z" fill="none"/><path d="M9 3H5a2 2 0 0 0-2 2v4a2 2 0 0 0 2 2h4a2 2 0 0 0 2-2V5a2 2 0 0 0-2-2zM9 13H5a2 2 0 0 0-2 2v4a2 2 0 0 0 2 2h4a2 2 0 0 0 2-2v-4a2 2 0 0 0-2-2zM19 13h-4a2 2 0 0 0-2 2v4a2 2 0 0 0 2 2h4a2 2 0 0 0 2-2v-4a2 2 0 0 0-2-2zM17 3a1 1 0 0 1 .993.883L18 4v2h2a1 1 0 0 1 .117 1.993L20 8h-2v2a1 1 0 0 1-1.993.117L16 10V8h-2a1 1 0 0 1-.117-1.993L14 6h2V4a1 1 0 0 1 1-1z"/></svg>