<svg xmlns="http://www.w3.org/2000/svg" viewBox="0 0 24 24" fill="currentColor" class="icon icon-tabler icons-tabler-filled icon-tabler-arrow-move-right" id="icon"><path d="M0 0h24v24H0z" fill="none"/><path d="m18.707 8.293 3 3q.054.053.097.112l.071.11.054.114.035.105.03.148L22 12l-.003.075-.017.126-.03.111-.044.111-.052.098-.074.104-.073.082-3 3a1 1 0 0 1-1.414-1.414L18.585 13H11a1 1 0 0 1 0-2h7.585l-1.292-1.293a1 1 0 0 1-.083-1.32l.083-.094a1 1 0 0 1 1.414 0M5 9a3 3 0 1 1 0 6 3 3 0 0 1 0-6"/></svg>