<svg xmlns="http://www.w3.org/2000/svg" viewBox="0 0 24 24" fill="currentColor" class="icon icon-tabler icons-tabler-filled icon-tabler-arrow-big-right-lines" id="icon"><path d="M0 0h24v24H0z" fill="none"/><path d="M12.089 3.634A2 2 0 0 0 11 5.414l-.001 2.585L9 8a1 1 0 0 0-1 1v6l.007.117A1 1 0 0 0 9 16l1.999-.001.001 2.587A2 2 0 0 0 14.414 20L21 13.414a2 2 0 0 0 0-2.828L14.414 4a2 2 0 0 0-2.18-.434l-.145.068zM3 8a1 1 0 0 1 .993.883L4 9v6a1 1 0 0 1-1.993.117L2 15V9a1 1 0 0 1 1-1zM6 8a1 1 0 0 1 .993.883L7 9v6a1 1 0 0 1-1.993.117L5 15V9a1 1 0 0 1 1-1z"/></svg>