<svg xmlns="http://www.w3.org/2000/svg" viewBox="0 0 24 24" fill="currentColor" class="icon icon-tabler icons-tabler-filled icon-tabler-arrow-big-up-lines" id="icon"><path d="M0 0h24v24H0z" fill="none"/><path d="M10.586 3 4 9.586a2 2 0 0 0-.434 2.18l.068.145A2 2 0 0 0 5.414 13H8v2a1 1 0 0 0 1 1h6l.117-.007A1 1 0 0 0 16 15l-.001-2h2.587A2 2 0 0 0 20 9.586L13.414 3a2 2 0 0 0-2.828 0zM15 20a1 1 0 0 1 .117 1.993L15 22H9a1 1 0 0 1-.117-1.993L9 20h6zM15 17a1 1 0 0 1 .117 1.993L15 19H9a1 1 0 0 1-.117-1.993L9 17h6z"/></svg>