<svg xmlns="http://www.w3.org/2000/svg" viewBox="0 0 24 24" fill="currentColor" class="icon icon-tabler icons-tabler-filled icon-tabler-arrow-big-left-lines" id="icon"><path d="M0 0h24v24H0z" fill="none"/><path d="M9.586 4 3 10.586a2 2 0 0 0 0 2.828L9.586 20a2 2 0 0 0 2.18.434l.145-.068A2 2 0 0 0 13 18.586V16h2a1 1 0 0 0 1-1V9l-.007-.117A1 1 0 0 0 15 8l-2-.001V5.414A2 2 0 0 0 9.586 4zM21 8a1 1 0 0 1 .993.883L22 9v6a1 1 0 0 1-1.993.117L20 15V9a1 1 0 0 1 1-1zM18 8a1 1 0 0 1 .993.883L19 9v6a1 1 0 0 1-1.993.117L17 15V9a1 1 0 0 1 1-1z"/></svg>