<svg xmlns="http://www.w3.org/2000/svg" viewBox="0 0 24 24" fill="currentColor" class="icon icon-tabler icons-tabler-filled icon-tabler-arrow-left-rhombus" id="icon"><path d="M0 0h24v24H0z" fill="none"/><path d="M6.707 8.293a1 1 0 0 1 0 1.414L5.415 11h10.169l2.209-2.207a1 1 0 0 1 1.414 0l2.5 2.5a1 1 0 0 1 0 1.414l-2.5 2.5a1 1 0 0 1-1.414 0L15.585 13H5.415l1.292 1.293a1 1 0 0 1 .083 1.32l-.083.094a1 1 0 0 1-1.414 0l-3-3a1 1 0 0 1-.097-.112l-.071-.11-.054-.114-.035-.105-.025-.118-.007-.058L2 12l.003-.075.017-.126.03-.111.044-.111.052-.098.067-.096.08-.09 3-3a1 1 0 0 1 1.414 0"/></svg>