<svg xmlns="http://www.w3.org/2000/svg" viewBox="0 0 24 24" fill="currentColor" class="icon icon-tabler icons-tabler-filled icon-tabler-article" id="icon"><path d="M0 0h24v24H0z" fill="none"/><path d="M19 3a3 3 0 0 1 2.995 2.824L22 6v12a3 3 0 0 1-2.824 2.995L19 21H5a3 3 0 0 1-2.995-2.824L2 18V6a3 3 0 0 1 2.824-2.995L5 3h14zm-2 12H7l-.117.007a1 1 0 0 0 0 1.986L7 17h10l.117-.007a1 1 0 0 0 0-1.986L17 15zm0-4H7l-.117.007a1 1 0 0 0 0 1.986L7 13h10l.117-.007a1 1 0 0 0 0-1.986L17 11zm0-4H7l-.117.007a1 1 0 0 0 0 1.986L7 9h10l.117-.007a1 1 0 0 0 0-1.986L17 7z"/></svg>