<svg xmlns="http://www.w3.org/2000/svg" viewBox="0 0 24 24" fill="currentColor" class="icon icon-tabler icons-tabler-filled icon-tabler-atom-2" id="icon"><path d="M0 0h24v24H0z" fill="none"/><path d="M12 8a4 4 0 1 1-3.995 4.2L8 12l.005-.2A4 4 0 0 1 12 8zM12 20a1 1 0 0 1 .993.883l.007.127a1 1 0 0 1-1.993.117L11 21a1 1 0 0 1 1-1zM3 8a1 1 0 0 1 .993.883L4 9.01a1 1 0 0 1-1.993.117L2 9a1 1 0 0 1 1-1zM21 8a1 1 0 0 1 .993.883L22 9.01a1 1 0 0 1-1.993.117L20 9a1 1 0 0 1 1-1zM2.89 12.006a1 1 0 0 1 1.104.884 8 8 0 0 0 4.444 6.311A1 1 0 1 1 7.562 21a10 10 0 0 1-5.556-7.89 1 1 0 0 1 .884-1.103zM20.993 12l.117.006a1 1 0 0 1 .884 1.104 10 10 0 0 1-5.556 7.889 1 1 0 1 1-.876-1.798 8 8 0 0 0 4.444-6.31 1 1 0 0 1 .987-.891zM5.567 4.226a10 10 0 0 1 12.666 0 1 1 0 1 1-1.266 1.548 8 8 0 0 0-10.134 0 1 1 0 1 1-1.266-1.548z"/></svg>