<svg xmlns="http://www.w3.org/2000/svg" viewBox="0 0 24 24" fill="currentColor" class="icon icon-tabler icons-tabler-filled icon-tabler-bandage" id="icon"><path d="M0 0h24v24H0z" fill="none"/><path d="M20.207 3.793a5.95 5.95 0 0 1 .179 8.228l-.179.186-8 8a5.95 5.95 0 0 1-8.593-8.228l.179-.186 8-8a5.95 5.95 0 0 1 8.414 0zM12 13a1 1 0 0 0-1 1l.007.127A1 1 0 0 0 13 14.01l-.007-.127A1 1 0 0 0 12 13zm2-2a1 1 0 0 0-1 1l.007.127A1 1 0 0 0 15 12.01l-.007-.127A1 1 0 0 0 14 11zm-4 0a1 1 0 0 0-1 1l.007.127A1 1 0 0 0 11 12.01l-.007-.127A1 1 0 0 0 10 11zm2-2a1 1 0 0 0-1 1l.007.127A1 1 0 0 0 13 10.01l-.007-.127A1 1 0 0 0 12 9z"/></svg>