<svg xmlns="http://www.w3.org/2000/svg" viewBox="0 0 24 24" fill="currentColor" class="icon icon-tabler icons-tabler-filled icon-tabler-beer" id="icon"><path d="M0 0h24v24H0z" fill="none"/><path d="M17 2a2 2 0 0 1 1.995 1.85L19 4v4c0 1.335-.229 2.386-.774 3.692l-.157.363-.31.701a8.902 8.902 0 0 0-.751 3.242l-.008.377V20a2 2 0 0 1-1.85 1.995L15 22H9a2 2 0 0 1-1.995-1.85L7 20v-3.625c0-1.132-.21-2.25-.617-3.28l-.142-.34-.31-.699c-.604-1.358-.883-2.41-.925-3.698L5 8V4a2 2 0 0 1 1.85-1.995L7 2h10zm0 2H7v3h10V4z"/></svg>