<svg xmlns="http://www.w3.org/2000/svg" viewBox="0 0 24 24" fill="currentColor" class="icon icon-tabler icons-tabler-filled icon-tabler-box-align-top" id="icon"><path d="M0 0h24v24H0z" fill="none"/><path d="M19 3.005H5a2 2 0 0 0-2 2v5a1 1 0 0 0 1 1h16a1 1 0 0 0 1-1v-5a2 2 0 0 0-2-2zM4 13.995a1 1 0 0 1 .993.883l.007.127a1 1 0 0 1-1.993.117L3 14.995a1 1 0 0 1 1-1zM4 18.995a1 1 0 0 1 .993.883l.007.127a1 1 0 0 1-1.993.117L3 19.995a1 1 0 0 1 1-1zM9 18.995a1 1 0 0 1 .993.883l.007.127a1 1 0 0 1-1.993.117L8 19.995a1 1 0 0 1 1-1zM15 18.995a1 1 0 0 1 .993.883l.007.127a1 1 0 0 1-1.993.117L14 19.995a1 1 0 0 1 1-1zM20 18.995a1 1 0 0 1 .993.883l.007.127a1 1 0 0 1-1.993.117L19 19.995a1 1 0 0 1 1-1zM20 13.995a1 1 0 0 1 .993.883l.007.127a1 1 0 0 1-1.993.117L19 14.995a1 1 0 0 1 1-1z"/></svg>