<svg xmlns="http://www.w3.org/2000/svg" viewBox="0 0 24 24" fill="currentColor" class="icon icon-tabler icons-tabler-filled icon-tabler-box-align-top-left" id="icon"><path d="M0 0h24v24H0z" fill="none"/><path d="M10 3H5a2 2 0 0 0-2 2v5a2 2 0 0 0 2 2h5a2 2 0 0 0 2-2V5a2 2 0 0 0-2-2zM15 3a1 1 0 0 1 .117 1.993L14.99 5a1 1 0 0 1-.117-1.993L15 3zM20 3a1 1 0 0 1 .117 1.993L19.99 5a1 1 0 0 1-.117-1.993L20 3zM20 8a1 1 0 0 1 .117 1.993L19.99 10a1 1 0 0 1-.117-1.993L20 8zM20 14a1 1 0 0 1 .117 1.993L19.99 16a1 1 0 0 1-.117-1.993L20 14zM4 14a1 1 0 0 1 .117 1.993L3.99 16a1 1 0 0 1-.117-1.993L4 14zM20 19a1 1 0 0 1 .117 1.993L19.99 21a1 1 0 0 1-.117-1.993L20 19zM15 19a1 1 0 0 1 .117 1.993L14.99 21a1 1 0 0 1-.117-1.993L15 19zM9 19a1 1 0 0 1 .117 1.993L8.99 21a1 1 0 0 1-.117-1.993L9 19zM4 19a1 1 0 0 1 .117 1.993L3.99 21a1 1 0 0 1-.117-1.993L4 19z"/></svg>