<svg xmlns="http://www.w3.org/2000/svg" viewBox="0 0 24 24" fill="currentColor" class="icon icon-tabler icons-tabler-filled icon-tabler-butterfly" id="icon"><path d="M0 0h24v24H0z" fill="none"/><path d="m17.117 6.244.228.076a5.5 5.5 0 0 1 1.24 9.738l-.063.039.02.034a4 4 0 0 1 .101 3.533l-.093.19A4 4 0 0 1 13 21.462V6.605a5.5 5.5 0 0 1 4.118-.36M8.505 6c.885 0 1.736.21 2.495.597v14.87a4 4 0 0 1-1.012.41l-.196.045a4 4 0 0 1-4.424-5.587l.118-.238-.035-.023a5.5 5.5 0 0 1-2.397-5.258l.034-.233A5.5 5.5 0 0 1 8.505 6M14.445 2.168a1 1 0 0 1 1.11 1.664l-3 2a1 1 0 0 1-1.11 0l-3-2a1 1 0 0 1 1.11-1.664l2.444 1.63z"/></svg>