<svg xmlns="http://www.w3.org/2000/svg" viewBox="0 0 24 24" fill="currentColor" class="icon icon-tabler icons-tabler-filled icon-tabler-campfire" id="icon"><path d="M0 0h24v24H0z" fill="none"/><path d="M19.757 16.03a1 1 0 0 1 .597 1.905l-.111.035-16 4a1 1 0 0 1-.597-1.905l.111-.035 16-4z"/><path d="M3.03 16.757a1 1 0 0 1 1.098-.749l.115.022 16 4a1 1 0 0 1-.37 1.962l-.116-.022-16-4a1 1 0 0 1-.727-1.213zM13.553 2.106C9.379 4.192 7 7.464 7 11a5 5 0 0 0 10 0c0-1.047-.188-1.808-.606-2.705l-.169-.345-.33-.647C15.274 6.063 15 4.965 15 3a1 1 0 0 0-1.447-.894z"/></svg>