<svg xmlns="http://www.w3.org/2000/svg" viewBox="0 0 24 24" fill="currentColor" class="icon icon-tabler icons-tabler-filled icon-tabler-chart-grid-dots" id="icon"><path d="M0 0h24v24H0z" fill="none"/><path d="M18 2a1 1 0 0 1 1 1v.171a3.008 3.008 0 0 1 1.83 1.83L21 5a1 1 0 0 1 0 2h-.171a3.008 3.008 0 0 1-1.828 1.829L19 11h2a1 1 0 0 1 0 2h-2v2.171a3.008 3.008 0 0 1 1.83 1.83L21 17a1 1 0 0 1 0 2h-.171a3.008 3.008 0 0 1-1.828 1.829L19 21a1 1 0 0 1-2 0v-.17A3.008 3.008 0 0 1 15.171 19H13v2a1 1 0 0 1-2 0v-2H8.829a3.008 3.008 0 0 1-1.828 1.829L7 21a1 1 0 0 1-2 0v-.17A3.008 3.008 0 0 1 3.171 19H3a1 1 0 0 1 0-2h.17A3.008 3.008 0 0 1 5 15.17v-.34A3.008 3.008 0 0 1 3.171 13H3a1 1 0 0 1 0-2h.17A3.008 3.008 0 0 1 5 9.17V7H3a1 1 0 1 1 0-2h2V3a1 1 0 1 1 2 0v2h4V3a1 1 0 0 1 2 0v2h2.17A3.008 3.008 0 0 1 17 3.17V3a1 1 0 0 1 1-1zm-7 11H8.829a3.008 3.008 0 0 1-1.828 1.829v.342A3.008 3.008 0 0 1 8.829 17H11v-4zm6 0h-4v4h2.17A3.008 3.008 0 0 1 17 15.17V13zm-6-6H7v2.171a3.008 3.008 0 0 1 1.83 1.83L11 11V7zm4.171 0H13v4h4V8.83A3.008 3.008 0 0 1 15.171 7z"/></svg>