<svg xmlns="http://www.w3.org/2000/svg" viewBox="0 0 24 24" fill="currentColor" class="icon icon-tabler icons-tabler-filled icon-tabler-chess" id="icon"><path d="M0 0h24v24H0z" fill="none"/><path d="M12 2a4 4 0 0 1 4 4 5.03 5.03 0 0 1-.438 2.001L16 8a1 1 0 0 1 .117 1.993L16 10h-1.263l1.24 5.79a1 1 0 0 1-.747 1.184l-.113.02L15 17H9a1 1 0 0 1-.996-1.093l.018-.117L9.262 10H8a1 1 0 0 1-.117-1.993L8 8h.438a5.154 5.154 0 0 1-.412-1.525l-.02-.259L8 6a4 4 0 0 1 4-4zM18 18H6a1 1 0 0 0-1 1 2 2 0 0 0 2 2h10a2 2 0 0 0 1.987-1.768l.011-.174A1 1 0 0 0 18 18z"/></svg>