<svg xmlns="http://www.w3.org/2000/svg" viewBox="0 0 24 24" fill="currentColor" class="icon icon-tabler icons-tabler-filled icon-tabler-circle-arrow-right" id="icon"><path d="M0 0h24v24H0z" fill="none"/><path d="m12 2 .324.005a10 10 0 1 1-.648 0L12 2zm.613 5.21a1 1 0 0 0-1.32 1.497L13.584 11H8l-.117.007A1 1 0 0 0 8 13h5.584l-2.291 2.293-.083.094a1 1 0 0 0 1.497 1.32l4-4 .073-.082.064-.089.062-.113.044-.11.03-.112.017-.126L17 12l-.007-.118-.029-.148-.035-.105-.054-.113-.071-.111a1.008 1.008 0 0 0-.097-.112l-4-4z"/></svg>