<svg xmlns="http://www.w3.org/2000/svg" viewBox="0 0 24 24" fill="currentColor" class="icon icon-tabler icons-tabler-filled icon-tabler-circle-arrow-down-left" id="icon"><path d="M0 0h24v24H0z" fill="none"/><path d="M17 3.34a10 10 0 1 1-14.995 8.984L2 12l.005-.324A10 10 0 0 1 17 3.34zM9 8a1 1 0 0 0-1 1v6l.007.117.029.149.035.105.054.113.071.111c.03.04.061.077.097.112l.09.08.096.067.098.052.11.044.112.03.126.017L15 16l.117-.007A1 1 0 0 0 16 15l-.007-.117A1 1 0 0 0 15 14h-3.586l4.293-4.293.083-.094a1 1 0 0 0-1.497-1.32L10 12.584V9l-.007-.117A1 1 0 0 0 9 8z"/></svg>