<svg xmlns="http://www.w3.org/2000/svg" viewBox="0 0 24 24" fill="currentColor" class="icon icon-tabler icons-tabler-filled icon-tabler-circle-arrow-down" id="icon"><path d="M0 0h24v24H0z" fill="none"/><path d="M17 3.34a10 10 0 1 1-14.995 8.984L2 12l.005-.324A10 10 0 0 1 17 3.34zM12 7a1 1 0 0 0-1 1v5.585l-2.293-2.292-.094-.083a1 1 0 0 0-1.32 1.497l4 4c.028.028.057.054.094.083l.092.064.098.052.081.034.113.034.112.02L12 17l.115-.007.114-.02.142-.044.113-.054.111-.071a.939.939 0 0 0 .112-.097l4-4 .083-.094a1 1 0 0 0-1.497-1.32L13 13.584V8l-.007-.117A1 1 0 0 0 12 7z"/></svg>