<svg xmlns="http://www.w3.org/2000/svg" viewBox="0 0 24 24" fill="currentColor" class="icon icon-tabler icons-tabler-filled icon-tabler-circle-x" id="icon"><path d="M0 0h24v24H0z" fill="none"/><path d="M17 3.34a10 10 0 1 1-14.995 8.984L2 12l.005-.324A10 10 0 0 1 17 3.34zm-6.489 5.8a1 1 0 0 0-1.218 1.567L10.585 12l-1.292 1.293-.083.094a1 1 0 0 0 1.497 1.32L12 13.415l1.293 1.292.094.083a1 1 0 0 0 1.32-1.497L13.415 12l1.292-1.293.083-.094a1 1 0 0 0-1.497-1.32L12 10.585l-1.293-1.292-.094-.083z"/></svg>