<svg xmlns="http://www.w3.org/2000/svg" viewBox="0 0 24 24" fill="currentColor" class="icon icon-tabler icons-tabler-filled icon-tabler-coin-yuan" id="icon"><path d="M0 0h24v24H0z" fill="none"/><path d="M17 3.34A10 10 0 1 1 2 12l.005-.324A10 10 0 0 1 17 3.34zm-1.445 3.828a1 1 0 0 0-1.387.277L12 10.696l-2.168-3.25a1 1 0 0 0-1.286-.337l-.1.059a1 1 0 0 0-.278 1.387L10.464 12H9a1 1 0 0 0-.993.883L8 13a1 1 0 0 0 1 1h2v3a1 1 0 0 0 .883.993L12 18l.117-.007A1 1 0 0 0 13 17v-3h2a1 1 0 0 0 .993-.883L16 13a1 1 0 0 0-1-1h-1.465l2.297-3.445a1 1 0 0 0-.184-1.317l-.093-.07z"/></svg>