<svg xmlns="http://www.w3.org/2000/svg" viewBox="0 0 24 24" fill="currentColor" class="icon icon-tabler icons-tabler-filled icon-tabler-coin" id="icon"><path d="M0 0h24v24H0z" fill="none"/><path d="M17 3.34A10 10 0 1 1 2 12l.005-.324A10 10 0 0 1 17 3.34zM12 6a1 1 0 0 0-1 1 3 3 0 1 0 0 6v2a1.024 1.024 0 0 1-.866-.398l-.068-.101a1 1 0 0 0-1.732.998 3 3 0 0 0 2.505 1.5H11a1 1 0 0 0 .883.994L12 18a1 1 0 0 0 1-1l.176-.005A3 3 0 0 0 13 11V9c.358-.012.671.14.866.398l.068.101a1 1 0 0 0 1.732-.998A3 3 0 0 0 13.161 7H13a1 1 0 0 0-1-1zm1 7a1 1 0 0 1 0 2v-2zm-2-4v2a1 1 0 0 1 0-2z"/></svg>