<svg xmlns="http://www.w3.org/2000/svg" viewBox="0 0 24 24" fill="currentColor" class="icon icon-tabler icons-tabler-filled icon-tabler-container" id="icon"><path d="M0 0h24v24H0z" fill="none"/><path d="M20 3a1 1 0 0 1 1 1v.01a1 1 0 0 1-2 0V4a1 1 0 0 1 1-1M20 19a1 1 0 0 1 1 1v.01a1 1 0 0 1-2 0V20a1 1 0 0 1 1-1M20 15a1 1 0 0 1 1 1v.01a1 1 0 0 1-2 0V16a1 1 0 0 1 1-1M20 11a1 1 0 0 1 1 1v.01a1 1 0 0 1-2 0V12a1 1 0 0 1 1-1M20 7a1 1 0 0 1 1 1v.01a1 1 0 0 1-2 0V8a1 1 0 0 1 1-1M15 3a2 2 0 0 1 2 2v14a2 2 0 0 1-2 2H9a2 2 0 0 1-2-2V5a2 2 0 0 1 2-2zM4 3a1 1 0 0 1 1 1v.01a1 1 0 1 1-2 0V4a1 1 0 0 1 1-1M4 19a1 1 0 0 1 1 1v.01a1 1 0 0 1-2 0V20a1 1 0 0 1 1-1M4 15a1 1 0 0 1 1 1v.01a1 1 0 0 1-2 0V16a1 1 0 0 1 1-1M4 11a1 1 0 0 1 1 1v.01a1 1 0 0 1-2 0V12a1 1 0 0 1 1-1M4 7a1 1 0 0 1 1 1v.01a1 1 0 1 1-2 0V8a1 1 0 0 1 1-1"/></svg>