<svg xmlns="http://www.w3.org/2000/svg" viewBox="0 0 24 24" fill="currentColor" class="icon icon-tabler icons-tabler-filled icon-tabler-device-mobile" id="icon"><path d="M0 0h24v24H0z" fill="none"/><path d="M16 2a3 3 0 0 1 2.995 2.824L19 5v14a3 3 0 0 1-2.824 2.995L16 22H8a3 3 0 0 1-2.995-2.824L5 19V5a3 3 0 0 1 2.824-2.995L8 2h8zm-4 14a1 1 0 0 0-.993.883L11 17l.007.127a1 1 0 0 0 1.986 0L13 17.01l-.007-.127A1 1 0 0 0 12 16zm1-12h-2l-.117.007a1 1 0 0 0 0 1.986L11 6h2l.117-.007a1 1 0 0 0 0-1.986L13 4z"/></svg>