<svg xmlns="http://www.w3.org/2000/svg" viewBox="0 0 24 24" fill="currentColor" class="icon icon-tabler icons-tabler-filled icon-tabler-download" id="icon" stroke-width=""><path d="M0 0h24v24H0z" fill="none"/><path d="M20 16a1 1 0 0 1 1 1v2a3 3 0 0 1-3 3H6a3 3 0 0 1-3-3v-2a1 1 0 0 1 2 0v2a1 1 0 0 0 1 1h12a1 1 0 0 0 1-1v-2a1 1 0 0 1 1-1M12 3a1 1 0 0 1 1 1v9.585l3.293-3.292a1 1 0 0 1 1.414 1.414l-5 5a1 1 0 0 1-.09.08l.09-.08a1 1 0 0 1-.674.292L12 17h-.032l-.054-.004L12 17a1 1 0 0 1-.617-.213 1 1 0 0 1-.09-.08l-5-5a1 1 0 0 1 1.414-1.414L11 13.585V4a1 1 0 0 1 1-1"/></svg>