<svg xmlns="http://www.w3.org/2000/svg" viewBox="0 0 24 24" fill="currentColor" class="icon icon-tabler icons-tabler-filled icon-tabler-folder-open" id="icon" stroke-width=""><path d="M0 0h24v24H0z" fill="none"/><path d="M2 6a2.998 2.998 0 0 1 3-3h4l.099.005a1 1 0 0 1 .608.288L12.414 6H19a2.998 2.998 0 0 1 2.828 2H7.305a2.005 2.005 0 0 0-1.814 1.157l-.058.141-1.379 3.676a1 1 0 1 0 1.873.702l1.134-3.027A1 1 0 0 1 7.998 10H21l.217.012a2.028 2.028 0 0 1 .783.256 2.015 2.015 0 0 1 .928 1.201c.077.28.092.573.045.859l-.005.024-.995 5.21a2.999 2.999 0 0 1-2.686 2.426l-.261.012H5a2.998 2.998 0 0 1-3-3V6z"/></svg>