<svg xmlns="http://www.w3.org/2000/svg" viewBox="0 0 24 24" fill="currentColor" class="icon icon-tabler icons-tabler-filled icon-tabler-gas-station" id="icon"><path d="M0 0h24v24H0z" fill="none"/><path d="M3 21a1 1 0 0 1 0-2V6a3 3 0 0 1 3-3h6a3 3 0 0 1 3 3v4a3 3 0 0 1 3 3v3a.5.5 0 1 0 1 0v-6a2 2 0 0 1-2-2v-.585l-.707-.708a1 1 0 0 1-.083-1.32l.083-.094a1 1 0 0 1 1.414 0l3.003 3.002.095.112.028.04.044.073.052.11.031.09.02.076.012.078L21 9v7a2.5 2.5 0 1 1-5 0v-3a1 1 0 0 0-1-1v7a1 1 0 0 1 0 2zm9-16H6a1 1 0 0 0-1 1v4h8V6a1 1 0 0 0-1-1"/></svg>