<svg xmlns="http://www.w3.org/2000/svg" viewBox="0 0 24 24" fill="currentColor" class="icon icon-tabler icons-tabler-filled icon-tabler-hexagon-number-4" id="icon"><path d="M0 0h24v24H0z" fill="none"/><path d="M10.425 1.414a3.33 3.33 0 0 1 3.216 0l6.775 3.995c.067.04.127.084.18.133l.008.007.107.076a3.223 3.223 0 0 1 1.284 2.39l.005.203v7.284c0 1.175-.643 2.256-1.623 2.793l-6.804 4.302c-.98.538-2.166.538-3.2-.032l-6.695-4.237A3.226 3.226 0 0 1 2 15.502V8.217a3.21 3.21 0 0 1 1.65-2.808zM14 7a1 1 0 0 0-.993.883L13 8v3h-2V8l-.007-.117a1 1 0 0 0-1.986 0L9 8v3l.005.15a2 2 0 0 0 1.838 1.844L11 13h2v3l.007.117a1 1 0 0 0 1.986 0L15 16V8l-.007-.117A1 1 0 0 0 14 7z"/></svg>