<svg xmlns="http://www.w3.org/2000/svg" viewBox="0 0 24 24" fill="currentColor" class="icon icon-tabler icons-tabler-filled icon-tabler-hexagon-number-7" id="icon"><path d="M0 0h24v24H0z" fill="none"/><path d="M10.425 1.414a3.33 3.33 0 0 1 3.216 0l6.775 3.995c.067.04.127.084.18.133l.008.007.107.076a3.223 3.223 0 0 1 1.284 2.39l.005.203v7.284c0 1.175-.643 2.256-1.623 2.793l-6.804 4.302c-.98.538-2.166.538-3.2-.032l-6.695-4.237A3.226 3.226 0 0 1 2 15.502V8.217a3.21 3.21 0 0 1 1.65-2.808zM14 7h-4l-.117.007a1 1 0 0 0-.876.876L9 8l.007.117a1 1 0 0 0 .876.876L10 9h2.718l-1.688 6.757-.022.115a1 1 0 0 0 1.927.482l.035-.111 2-8 .021-.112a1 1 0 0 0-.878-1.125L14 7z"/></svg>