<svg xmlns="http://www.w3.org/2000/svg" viewBox="0 0 24 24" fill="currentColor" class="icon icon-tabler icons-tabler-filled icon-tabler-info-circle" id="icon"><path d="M0 0h24v24H0z" fill="none"/><path d="M12 2c5.523 0 10 4.477 10 10a10 10 0 0 1-19.995.324L2 12l.004-.28C2.152 6.327 6.57 2 12 2zm0 9h-1l-.117.007a1 1 0 0 0 0 1.986L11 13v3l.007.117a1 1 0 0 0 .876.876L12 17h1l.117-.007a1 1 0 0 0 .876-.876L14 16l-.007-.117a1 1 0 0 0-.764-.857l-.112-.02L13 15v-3l-.007-.117a1 1 0 0 0-.876-.876L12 11zm.01-3-.127.007a1 1 0 0 0 0 1.986L12 10l.127-.007a1 1 0 0 0 0-1.986L12.01 8z"/></svg>