<svg xmlns="http://www.w3.org/2000/svg" viewBox="0 0 24 24" fill="currentColor" class="icon icon-tabler icons-tabler-filled icon-tabler-keyframe-align-horizontal" id="icon"><path d="M0 0h24v24H0z" fill="none"/><path d="M12 6c-.629 0-1.214.301-1.606.807l-2.908 3.748a2.395 2.395 0 0 0-.011 2.876l2.919 3.762c.39.505.977.807 1.606.807.629 0 1.214-.301 1.606-.807l2.908-3.748a2.395 2.395 0 0 0 .011-2.876l-2.919-3.762A2.032 2.032 0 0 0 12 6zM5 11a1 1 0 0 1 .117 1.993L5 13H3a1 1 0 0 1-.117-1.993L3 11h2zM21 11a1 1 0 0 1 .117 1.993L21 13h-2a1 1 0 0 1-.117-1.993L19 11h2z"/></svg>