<svg xmlns="http://www.w3.org/2000/svg" viewBox="0 0 24 24" fill="currentColor" class="icon icon-tabler icons-tabler-filled icon-tabler-keyframe-align-vertical" id="icon"><path d="M0 0h24v24H0z" fill="none"/><path d="M12 1a1 1 0 0 1 .993.883L13 2v2a1 1 0 0 1-1.993.117L11 4V2a1 1 0 0 1 1-1zM12 6c-.629 0-1.214.301-1.606.807l-2.908 3.748a2.395 2.395 0 0 0-.011 2.876l2.919 3.762c.39.505.977.807 1.606.807.629 0 1.214-.301 1.606-.807l2.908-3.748a2.395 2.395 0 0 0 .011-2.876l-2.919-3.762A2.032 2.032 0 0 0 12 6zM12 19a1 1 0 0 1 .993.883L13 20v2a1 1 0 0 1-1.993.117L11 22v-2a1 1 0 0 1 1-1z"/></svg>