<svg xmlns="http://www.w3.org/2000/svg" viewBox="0 0 24 24" fill="currentColor" class="icon icon-tabler icons-tabler-filled icon-tabler-layout-board-split" id="icon"><path d="M0 0h24v24H0z" fill="none"/><path d="M5 3h5a1 1 0 0 1 1 1v6a1 1 0 0 1-1 1H4a1 1 0 0 1-1-1V5a2 2 0 0 1 2-2M14 3h5a2 2 0 0 1 2 2v2a1 1 0 0 1-1 1h-6a1 1 0 0 1-1-1V4a1 1 0 0 1 1-1M13 11a1 1 0 0 1 1-1h6a1 1 0 0 1 1 1v2a1 1 0 0 1-1 1h-6a1 1 0 0 1-1-1zM14 16h6a1 1 0 0 1 1 1v2a2 2 0 0 1-2 2h-5a1 1 0 0 1-1-1v-3a1 1 0 0 1 1-1M4 13h6a1 1 0 0 1 1 1v6a1 1 0 0 1-1 1H5a2 2 0 0 1-2-2v-5a1 1 0 0 1 1-1"/></svg>