<svg xmlns="http://www.w3.org/2000/svg" viewBox="0 0 24 24" fill="currentColor" class="icon icon-tabler icons-tabler-filled icon-tabler-list-check" id="icon" stroke-width=""><path d="M0 0h24v24H0z" fill="none"/><path d="M8.207 3.793a1 1 0 0 1 0 1.414l-2.5 2.5a1 1 0 0 1-1.414 0l-1.5-1.5a1 1 0 0 1 1.414-1.414L5 5.586l1.793-1.793a1 1 0 0 1 1.414 0M8.207 9.793a1 1 0 0 1 0 1.414l-2.5 2.5a1 1 0 0 1-1.414 0l-1.5-1.5a1 1 0 0 1 1.414-1.414l.793.793 1.793-1.793a1 1 0 0 1 1.414 0M8.207 15.793a1 1 0 0 1 0 1.414l-2.5 2.5a1 1 0 0 1-1.414 0l-1.5-1.5a1 1 0 0 1 1.414-1.414l.793.793 1.793-1.793a1 1 0 0 1 1.414 0M21 6a1 1 0 0 1-1 1h-9a1 1 0 0 1 0-2h9a1 1 0 0 1 1 1M21 12a1 1 0 0 1-1 1h-9a1 1 0 0 1 0-2h9a1 1 0 0 1 1 1M21 18a1 1 0 0 1-1 1h-9a1 1 0 0 1 0-2h9a1 1 0 0 1 1 1"/></svg>