<svg xmlns="http://www.w3.org/2000/svg" viewBox="0 0 24 24" fill="currentColor" class="icon icon-tabler icons-tabler-filled icon-tabler-list" id="icon" stroke-width=""><path d="M0 0h24v24H0z" fill="none"/><path d="M21 6a1 1 0 0 1-1 1H10a1 1 0 1 1 0-2h10a1 1 0 0 1 1 1M21 12a1 1 0 0 1-1 1H10a1 1 0 0 1 0-2h10a1 1 0 0 1 1 1M21 18a1 1 0 0 1-1 1H10a1 1 0 0 1 0-2h10a1 1 0 0 1 1 1M7 5.995v.02c0 1.099-.895 1.99-2 1.99s-2-.891-2-1.99v-.02c0-1.099.895-1.99 2-1.99s2 .891 2 1.99M7 11.995v.02c0 1.099-.895 1.99-2 1.99s-2-.891-2-1.99v-.02c0-1.099.895-1.99 2-1.99s2 .891 2 1.99M7 17.995v.02c0 1.099-.895 1.99-2 1.99s-2-.891-2-1.99v-.02c0-1.099.895-1.99 2-1.99s2 .891 2 1.99"/></svg>