<svg xmlns="http://www.w3.org/2000/svg" viewBox="0 0 24 24" fill="currentColor" class="icon icon-tabler icons-tabler-filled icon-tabler-mail-opened" id="icon"><path d="M0 0h24v24H0z" fill="none"/><path d="m14.872 14.287 6.522 6.52a2.996 2.996 0 0 1-2.218 1.188L19 22H5a2.995 2.995 0 0 1-2.394-1.191l6.521-6.522 2.318 1.545.116.066a1 1 0 0 0 .878 0l.116-.066 2.317-1.545zM2 9.535l5.429 3.62L2 18.585zM22 9.535v9.05l-5.43-5.43zM12.44 2.102l.115.066 8.444 5.629-8.999 6-9-6 8.445-5.63a1 1 0 0 1 .994-.065z"/></svg>