<svg xmlns="http://www.w3.org/2000/svg" viewBox="0 0 24 24" fill="currentColor" class="icon icon-tabler icons-tabler-filled icon-tabler-message-chatbot" id="icon"><path d="M0 0h24v24H0z" fill="none"/><path d="M18 3a4 4 0 0 1 4 4v8a4 4 0 0 1-4 4h-4.724l-4.762 2.857a1 1 0 0 1-1.508-.743L7 21v-2H6a4 4 0 0 1-3.995-3.8L2 15V7a4 4 0 0 1 4-4zm-2.8 9.286a1 1 0 0 0-1.414.014 2.5 2.5 0 0 1-3.572 0 1 1 0 0 0-1.428 1.4 4.5 4.5 0 0 0 6.428 0 1 1 0 0 0-.014-1.414M9.51 8H9.5a1 1 0 1 0 0 2h.01a1 1 0 0 0 0-2m5 0h-.01a1 1 0 0 0 0 2h.01a1 1 0 0 0 0-2"/></svg>