<svg xmlns="http://www.w3.org/2000/svg" viewBox="0 0 24 24" fill="currentColor" class="icon icon-tabler icons-tabler-filled icon-tabler-microscope" id="icon"><path d="M0 0h24v24H0z" fill="none"/><path d="m15.707 4.293 3 3a1 1 0 0 1 0 1.414l-1.553 1.555a7 7 0 0 1-.256 9.74L19 20a1 1 0 0 1 0 2H5a1 1 0 0 1 0-2h1v-1a1 1 0 0 1 0-2h2a1 1 0 0 1 0 2v1h4a5 5 0 0 0 3.737-8.323l-3.03 3.03a1 1 0 0 1-1.414 0l-.793-.792-.793.792a1 1 0 1 1-1.414-1.414l.792-.793-.792-.793a1 1 0 0 1 0-1.414l6-6a1 1 0 0 1 1.414 0m2-2 3 3a1 1 0 1 1-1.414 1.414l-3-3a1 1 0 1 1 1.414-1.414"/></svg>