<svg xmlns="http://www.w3.org/2000/svg" viewBox="0 0 24 24" fill="currentColor" class="icon icon-tabler icons-tabler-filled icon-tabler-mood-confuzed" id="icon"><path d="M0 0h24v24H0z" fill="none"/><path d="M17 3.34a10 10 0 1 1-14.995 8.984L2 12l.005-.324A10 10 0 0 1 17 3.34zm-1.43 10.162a11 11 0 0 0-6.6 1.65 1 1 0 0 0 1.06 1.696 9 9 0 0 1 5.4-1.35 1 1 0 0 0 .14-1.996zM9.01 9l-.127.007a1 1 0 0 0 0 1.986L9 11l.127-.007a1 1 0 0 0 0-1.986L9.01 9zm6 0-.127.007a1 1 0 0 0 0 1.986L15 11l.127-.007a1 1 0 0 0 0-1.986L15.01 9z"/></svg>