<svg xmlns="http://www.w3.org/2000/svg" viewBox="0 0 24 24" fill="currentColor" class="icon icon-tabler icons-tabler-filled icon-tabler-mood-happy" id="icon"><path d="M0 0h24v24H0z" fill="none"/><path d="M17 3.34a10 10 0 1 1-14.995 8.984L2 12l.005-.324A10 10 0 0 1 17 3.34zM15 13H9a1 1 0 0 0-1 1v.05a3.975 3.975 0 0 0 3.777 3.97l.227.005a4.026 4.026 0 0 0 3.99-3.79l.006-.206A1 1 0 0 0 15 13zM9.01 8l-.127.007A1 1 0 0 0 9 10l.127-.007A1 1 0 0 0 9.01 8zm6 0-.127.007A1 1 0 0 0 15 10l.127-.007A1 1 0 0 0 15.01 8z"/></svg>