<svg xmlns="http://www.w3.org/2000/svg" viewBox="0 0 24 24" fill="currentColor" class="icon icon-tabler icons-tabler-filled icon-tabler-phone-check" id="icon" stroke-width=""><path d="M0 0h24v24H0z" fill="none"/><path d="m9.928 3.629 2 5a1 1 0 0 1-.414 1.228l-1.67 1.003a9.9 9.9 0 0 0 3.296 3.297l1.003-1.671a1 1 0 0 1 1.228-.414l5 2A1 1 0 0 1 21 15v4c0 1.657-1.343 3-3.06 2.998C9.361 21.477 2.522 14.638 2 6a3 3 0 0 1 3-3h4a1 1 0 0 1 .928.629M21.707 3.293a1 1 0 0 1 0 1.414l-4 4a1 1 0 0 1-1.414 0l-2-2a1 1 0 1 1 1.414-1.414L17 6.586l3.293-3.293a1 1 0 0 1 1.414 0"/></svg>