<svg xmlns="http://www.w3.org/2000/svg" viewBox="0 0 24 24" fill="currentColor" class="icon icon-tabler icons-tabler-filled icon-tabler-plane-departure" id="icon" stroke-width=""><path d="M0 0h24v24H0z" fill="none"/><path d="m9.674 3.827 5.267 5.315 4.25-1.139a3 3 0 1 1 1.572 5.79l-14.49 3.883a1 1 0 0 1-1.006-.303l-4.45-5.02a1 1 0 0 1 .49-1.629l2.896-.776a1 1 0 0 1 .759.1l2.091 1.207 1.217-.326-3.062-5.107a1 1 0 0 1 .599-1.48l2.898-.777a1 1 0 0 1 .97.262M22 21a1 1 0 0 1-1 1H3a1 1 0 0 1 0-2h18a1 1 0 0 1 1 1"/></svg>