<svg xmlns="http://www.w3.org/2000/svg" viewBox="0 0 24 24" fill="currentColor" class="icon icon-tabler icons-tabler-filled icon-tabler-relation-one-to-one" id="icon"><path d="M0 0h24v24H0z" fill="none"/><path d="M19 4a3 3 0 0 1 3 3v10a3 3 0 0 1-3 3H5a3 3 0 0 1-3-3V7a3 3 0 0 1 3-3zM9 9H8a1 1 0 1 0 0 2v3a1 1 0 0 0 2 0v-4a1 1 0 0 0-1-1m7 0h-1a1 1 0 0 0 0 2v3a1 1 0 0 0 2 0v-4a1 1 0 0 0-1-1m-4 3.5a1 1 0 0 0-1 1v.01a1 1 0 0 0 2 0v-.01a1 1 0 0 0-1-1m0-3a1 1 0 0 0-1 1v.01a1 1 0 0 0 2 0v-.01a1 1 0 0 0-1-1"/></svg>