<svg xmlns="http://www.w3.org/2000/svg" viewBox="0 0 24 24" fill="currentColor" class="icon icon-tabler icons-tabler-filled icon-tabler-shield-check" id="icon"><path d="M0 0h24v24H0z" fill="none"/><path d="m11.998 2 .118.007.059.008.061.013.111.034a.993.993 0 0 1 .217.112l.104.082.255.218a11 11 0 0 0 7.189 2.537l.342-.01a1 1 0 0 1 1.005.717 13 13 0 0 1-9.208 16.25 1 1 0 0 1-.502 0A13 13 0 0 1 2.54 5.718a1 1 0 0 1 1.005-.717 11 11 0 0 0 7.531-2.527l.263-.225.096-.075a.993.993 0 0 1 .217-.112l.112-.034a.97.97 0 0 1 .119-.021L11.998 2zm3.71 7.293a1 1 0 0 0-1.415 0L11 12.585l-1.293-1.292-.094-.083a1 1 0 0 0-1.32 1.497l2 2 .094.083a1 1 0 0 0 1.32-.083l4-4 .083-.094a1 1 0 0 0-.083-1.32z"/></svg>