<svg xmlns="http://www.w3.org/2000/svg" viewBox="0 0 24 24" fill="currentColor" class="icon icon-tabler icons-tabler-filled icon-tabler-shield" id="icon"><path d="M0 0h24v24H0z" fill="none"/><path d="M11.884 2.007 11.998 2l.118.007.059.008.061.013.111.034a.993.993 0 0 1 .217.112l.104.082.255.218a11 11 0 0 0 7.189 2.537l.342-.01a1 1 0 0 1 1.005.717 13 13 0 0 1-9.208 16.25 1 1 0 0 1-.502 0A13 13 0 0 1 2.54 5.718a1 1 0 0 1 1.005-.717 11 11 0 0 0 7.531-2.527l.263-.225.096-.075a.993.993 0 0 1 .217-.112l.112-.034a.97.97 0 0 1 .119-.021z"/></svg>