<svg xmlns="http://www.w3.org/2000/svg" viewBox="0 0 24 24" fill="currentColor" class="icon icon-tabler icons-tabler-filled icon-tabler-sort-descending-2" id="icon"><path d="M0 0h24v24H0z" fill="none"/><path d="M9.5 4A1.5 1.5 0 0 1 11 5.5v4A1.5 1.5 0 0 1 9.5 11h-4A1.5 1.5 0 0 1 4 9.5v-4A1.5 1.5 0 0 1 5.5 4zM9.5 13a1.5 1.5 0 0 1 1.5 1.5v4A1.5 1.5 0 0 1 9.5 20h-4A1.5 1.5 0 0 1 4 18.5v-4A1.5 1.5 0 0 1 5.5 13zM17 5a1 1 0 0 1 1 1v9.584l1.293-1.291a1 1 0 0 1 1.32-.083l.094.083a1 1 0 0 1 0 1.414l-3 3a1 1 0 0 1-.112.097l-.11.071-.114.054-.105.035-.149.03L17 19l-.075-.003-.126-.017-.111-.03-.111-.044-.098-.052-.096-.067-.09-.08-3-3a1 1 0 0 1 1.414-1.414L16 15.586V6a1 1 0 0 1 1-1"/></svg>