<svg xmlns="http://www.w3.org/2000/svg" viewBox="0 0 24 24" fill="currentColor" class="icon icon-tabler icons-tabler-filled icon-tabler-square-number-7" id="icon"><path d="M0 0h24v24H0z" fill="none"/><path d="M18.333 2c1.96 0 3.56 1.537 3.662 3.472l.005.195v12.666c0 1.96-1.537 3.56-3.472 3.662l-.195.005H5.667a3.667 3.667 0 0 1-3.662-3.472L2 18.333V5.667c0-1.96 1.537-3.56 3.472-3.662L5.667 2h12.666zM14 7h-4l-.117.007a1 1 0 0 0-.876.876L9 8l.007.117a1 1 0 0 0 .876.876L10 9h2.718l-1.688 6.757-.022.115a1 1 0 0 0 1.927.482l.035-.111 2-8 .021-.112a1 1 0 0 0-.878-1.125L14 7z"/></svg>