<svg xmlns="http://www.w3.org/2000/svg" viewBox="0 0 24 24" fill="currentColor" class="icon icon-tabler icons-tabler-filled icon-tabler-square-rounded-arrow-up" id="icon"><path d="M0 0h24v24H0z" fill="none"/><path d="M12 2c-.218 0-.432.002-.642.005l-.616.017-.299.013-.579.034-.553.046c-4.785.464-6.732 2.411-7.196 7.196l-.046.553-.034.579c-.005.098-.01.198-.013.299l-.017.616-.004.318L2 12c0 .218.002.432.005.642l.017.616.013.299.034.579.046.553c.464 4.785 2.411 6.732 7.196 7.196l.553.046.579.034c.098.005.198.01.299.013l.616.017L12 22l.642-.005.616-.017.299-.013.579-.034.553-.046c4.785-.464 6.732-2.411 7.196-7.196l.046-.553.034-.579c.005-.098.01-.198.013-.299l.017-.616L22 12l-.005-.642-.017-.616-.013-.299-.034-.579-.046-.553c-.464-4.785-2.411-6.732-7.196-7.196l-.553-.046-.579-.034a28.058 28.058 0 0 0-.299-.013l-.616-.017-.318-.004L12 2zm-.148 5.011.058-.007L12 7l.075.003.126.017.111.03.111.044.098.052.104.074.082.073 4 4a1 1 0 0 1-1.32 1.497l-.094-.083L13 10.415V16a1 1 0 0 1-1.993.117L11 16v-5.585l-2.293 2.292a1 1 0 0 1-1.32.083l-.094-.083a1 1 0 0 1-.083-1.32l.083-.094 4-4a.927.927 0 0 1 .112-.097l.11-.071.114-.054.105-.035.118-.025z"/></svg>