<svg xmlns="http://www.w3.org/2000/svg" viewBox="0 0 24 24" fill="currentColor" class="icon icon-tabler icons-tabler-filled icon-tabler-square-rounded-number-1" id="icon"><path d="M0 0h24v24H0z" fill="none"/><path d="m12 2 .642.005.616.017.299.013.579.034.553.046c4.687.455 6.65 2.333 7.166 6.906l.03.29.046.553.041.727.006.15.017.617L22 12l-.005.642-.017.616-.013.299-.034.579-.046.553c-.455 4.687-2.333 6.65-6.906 7.166l-.29.03-.553.046-.727.041-.15.006-.617.017L12 22l-.642-.005-.616-.017-.299-.013-.579-.034-.553-.046c-4.687-.455-6.65-2.333-7.166-6.906l-.03-.29-.046-.553-.041-.727-.006-.15-.017-.617-.004-.318v-.648l.004-.318.017-.616.013-.299.034-.579.046-.553c.455-4.687 2.333-6.65 6.906-7.166l.29-.03.553-.046.727-.041.15-.006.617-.017c.21-.003.424-.005.642-.005zm.994 5.886c-.083-.777-1.008-1.16-1.617-.67l-.084.077-2 2-.083.094a1 1 0 0 0 0 1.226l.083.094.094.083a1 1 0 0 0 1.226 0l.094-.083.293-.293V16l.007.117a1 1 0 0 0 1.986 0L13 16V8l-.006-.114z"/></svg>