<svg xmlns="http://www.w3.org/2000/svg" viewBox="0 0 24 24" fill="currentColor" class="icon icon-tabler icons-tabler-filled icon-tabler-square-f4" id="icon"><path d="M0 0h24v24H0z" fill="none"/><path d="M18.333 2c1.96 0 3.56 1.537 3.662 3.472l.005.195v12.666c0 1.96-1.537 3.56-3.472 3.662l-.195.005H5.667a3.667 3.667 0 0 1-3.662-3.472L2 18.333V5.667c0-1.96 1.537-3.56 3.472-3.662L5.667 2h12.666zM16 8a1 1 0 0 0-.993.883L15 9v2h-1V9l-.007-.117a1 1 0 0 0-1.986 0L12 9v2l.005.15a2 2 0 0 0 1.838 1.844L14 13h1v2l.007.117a1 1 0 0 0 1.986 0L17 15V9l-.007-.117A1 1 0 0 0 16 8zm-6 0H8l-.117.007a1 1 0 0 0-.876.876L7 9v6l.007.117a1 1 0 0 0 .876.876L8 16l.117-.007a1 1 0 0 0 .876-.876L9 15v-2h1l.117-.007a1 1 0 0 0 0-1.986L10 11H9v-1h1l.117-.007a1 1 0 0 0 0-1.986L10 8z"/></svg>