<svg xmlns="http://www.w3.org/2000/svg" viewBox="0 0 24 24" fill="currentColor" class="icon icon-tabler icons-tabler-filled icon-tabler-table" id="icon"><path d="M0 0h24v24H0z" fill="none"/><path d="M4 11h4a1 1 0 0 1 1 1v8a1 1 0 0 1-1 1H6a3 3 0 0 1-2.995-2.824L3 18v-6a1 1 0 0 1 1-1zM21 12v6a3 3 0 0 1-2.824 2.995L18 21h-6a1 1 0 0 1-1-1v-8a1 1 0 0 1 1-1h8a1 1 0 0 1 1 1zM18 3a3 3 0 0 1 2.995 2.824L21 6v2a1 1 0 0 1-1 1h-8a1 1 0 0 1-1-1V4a1 1 0 0 1 1-1h6zM9 4v4a1 1 0 0 1-1 1H4a1 1 0 0 1-1-1V6a3 3 0 0 1 2.824-2.995L6 3h2a1 1 0 0 1 1 1z"/></svg>