<svg xmlns="http://www.w3.org/2000/svg" viewBox="0 0 24 24" fill="currentColor" class="icon icon-tabler icons-tabler-filled icon-tabler-ticket" id="icon" stroke-width=""><path d="M0 0h24v24H0z" fill="none"/><path d="M14 4v2a1 1 0 0 0 2 0V4h3a3 3 0 0 1 3 3v3a1 1 0 0 1-.883.993L21 11a1 1 0 0 0-.117 1.993L21 13a1 1 0 0 1 1 1v3a3 3 0 0 1-3 3h-3v-2a1 1 0 0 0-.883-.993L15 17a1 1 0 0 0-1 1v2H5a3 3 0 0 1-3-3v-3a1 1 0 0 1 .883-.993L3 13a1 1 0 0 0 .117-1.993L3 11a1 1 0 0 1-1-1V7a2.995 2.995 0 0 1 2.727-2.985l.222-.014zm1 6a1 1 0 0 0-1 1v2a1 1 0 0 0 2 0v-2a1 1 0 0 0-1-1"/></svg>