<svg class="svg-stroke svg-fill" viewBox="0 0 76 17.699" xmlns="http://www.w3.org/2000/svg"><g id="svgGroup" stroke-linecap="round" fill-rule="evenodd" font-size="9pt" stroke-width="0.2mm" style="stroke-width:0.2mm"><path d="M 74.261 4.744 L 72.443 4.744 A 5.505 5.505 0 0 0 72.042 3.808 A 4.809 4.809 0 0 0 71.829 3.455 A 4.088 4.088 0 0 0 70.927 2.479 A 3.831 3.831 0 0 0 69.744 1.861 A 4.42 4.42 0 0 0 68.782 1.669 A 5.414 5.414 0 0 0 68.295 1.648 Q 67.003 1.648 65.945 2.315 A 4.329 4.329 0 0 0 64.653 3.593 A 5.623 5.623 0 0 0 64.261 4.283 Q 63.636 5.582 63.636 7.472 Q 63.636 9.095 64.103 10.282 A 5.26 5.26 0 0 0 64.268 10.661 Q 64.901 11.96 65.98 12.628 A 4.497 4.497 0 0 0 68.283 13.294 A 5.38 5.38 0 0 0 68.409 13.296 Q 69.659 13.296 70.614 12.759 A 3.778 3.778 0 0 0 72.106 11.239 A 4.321 4.321 0 0 0 72.567 9.873 A 5.773 5.773 0 0 0 72.642 8.921 L 73.182 9.034 L 68.807 9.034 L 68.807 7.472 L 74.347 7.472 L 74.347 9.034 A 7.135 7.135 0 0 1 74.179 10.616 A 5.534 5.534 0 0 1 73.583 12.159 A 5.305 5.305 0 0 1 71.481 14.215 A 5.979 5.979 0 0 1 69.353 14.886 A 7.532 7.532 0 0 1 68.409 14.943 A 6.952 6.952 0 0 1 66.542 14.702 A 5.805 5.805 0 0 1 65.018 14.034 A 5.982 5.982 0 0 1 62.958 11.856 A 7.281 7.281 0 0 1 62.745 11.449 Q 61.932 9.773 61.932 7.472 A 11.027 11.027 0 0 1 62.056 5.783 A 8.532 8.532 0 0 1 62.397 4.364 Q 62.862 2.983 63.715 2.01 A 5.776 5.776 0 0 1 65.732 0.519 A 6.061 6.061 0 0 1 67.779 0.018 A 7.217 7.217 0 0 1 68.295 0 A 6.787 6.787 0 0 1 69.868 0.178 A 6.039 6.039 0 0 1 70.444 0.345 A 5.911 5.911 0 0 1 72.227 1.318 Q 73.011 1.946 73.537 2.816 A 5.728 5.728 0 0 1 74.248 4.674 A 6.482 6.482 0 0 1 74.261 4.744 Z M 37.955 9.688 L 37.955 0.199 L 39.716 0.199 L 39.716 9.83 A 5.431 5.431 0 0 1 39.482 11.446 A 4.776 4.776 0 0 1 39.016 12.489 A 4.898 4.898 0 0 1 37.124 14.286 A 5.797 5.797 0 0 1 37.045 14.329 A 5.708 5.708 0 0 1 35.284 14.906 A 7.603 7.603 0 0 1 34.063 15 A 7.363 7.363 0 0 1 32.555 14.853 A 5.592 5.592 0 0 1 31.08 14.329 A 5.025 5.025 0 0 1 29.521 13.075 A 4.827 4.827 0 0 1 29.109 12.489 Q 28.409 11.321 28.409 9.83 L 28.409 0.199 L 30.17 0.199 L 30.17 9.688 A 4.14 4.14 0 0 0 30.303 10.752 A 3.484 3.484 0 0 0 30.639 11.58 A 3.324 3.324 0 0 0 31.978 12.88 A 3.788 3.788 0 0 0 33.099 13.268 A 5.257 5.257 0 0 0 34.063 13.352 A 5.236 5.236 0 0 0 35.06 13.262 A 3.799 3.799 0 0 0 36.151 12.88 A 3.295 3.295 0 0 0 37.489 11.58 A 3.633 3.633 0 0 0 37.929 10.174 A 4.528 4.528 0 0 0 37.955 9.688 Z M 8.011 3.636 L 6.392 3.636 A 2.978 2.978 0 0 0 6.315 2.943 A 2.18 2.18 0 0 0 5.927 2.113 Q 5.494 1.549 4.599 1.509 A 3.122 3.122 0 0 0 4.46 1.506 Q 3.96 1.506 3.601 1.649 A 1.489 1.489 0 0 0 3.413 1.74 A 1.773 1.773 0 0 0 3.077 1.986 A 1.394 1.394 0 0 0 2.809 2.33 A 1.632 1.632 0 0 0 2.659 2.696 A 1.331 1.331 0 0 0 2.614 3.04 A 1.444 1.444 0 0 0 2.855 3.839 A 2.947 2.947 0 0 0 3.452 4.506 A 5.767 5.767 0 0 0 3.847 4.808 A 4.558 4.558 0 0 0 4.148 5 L 6.903 6.619 Q 7.18 6.776 7.536 7.038 A 3.935 3.935 0 0 1 7.989 7.434 A 4.775 4.775 0 0 1 8.217 7.681 A 3.243 3.243 0 0 1 8.645 8.325 A 3.841 3.841 0 0 1 8.761 8.573 A 2.683 2.683 0 0 1 8.942 9.232 A 3.527 3.527 0 0 1 8.977 9.744 Q 8.977 10.27 8.704 10.796 A 3.271 3.271 0 0 1 7.979 11.726 A 2.754 2.754 0 0 1 7.253 12.201 A 2.551 2.551 0 0 1 6.989 12.301 L 6.989 12.33 A 2.849 2.849 0 0 1 7.584 13.044 A 2.634 2.634 0 0 1 7.741 13.363 A 3.25 3.25 0 0 1 7.98 14.483 A 3.765 3.765 0 0 1 7.983 14.631 A 3.545 3.545 0 0 1 7.905 15.395 A 2.461 2.461 0 0 1 7.472 16.36 A 3.062 3.062 0 0 1 6.136 17.369 A 4.675 4.675 0 0 1 4.433 17.699 A 5.295 5.295 0 0 1 4.375 17.699 A 4.842 4.842 0 0 1 3.268 17.577 A 3.936 3.936 0 0 1 2.379 17.255 Q 1.506 16.811 1.009 15.991 Q 0.511 15.171 0.511 14.034 L 2.159 14.034 A 2.771 2.771 0 0 0 2.23 14.681 A 1.802 1.802 0 0 0 2.788 15.636 Q 3.416 16.193 4.375 16.193 A 2.72 2.72 0 0 0 5.176 16.079 A 2.348 2.348 0 0 0 5.764 15.806 A 1.252 1.252 0 0 0 6.345 14.896 A 1.82 1.82 0 0 0 6.364 14.631 A 1.993 1.993 0 0 0 6.324 14.222 Q 6.266 13.944 6.122 13.729 A 2.288 2.288 0 0 0 5.526 13.118 A 10.386 10.386 0 0 0 5.001 12.773 A 9.02 9.02 0 0 0 4.83 12.671 L 2.074 11.08 Q 1.862 10.955 1.604 10.771 A 10.568 10.568 0 0 1 1.442 10.653 Q 1.087 10.391 0.76 10.004 A 3.36 3.36 0 0 1 0.32 9.328 A 3.952 3.952 0 0 1 0.217 9.102 A 2.726 2.726 0 0 1 0.033 8.42 A 3.556 3.556 0 0 1 0 7.926 A 2.234 2.234 0 0 1 0.115 7.229 A 2.846 2.846 0 0 1 0.256 6.882 Q 0.511 6.35 0.959 5.93 Q 1.406 5.511 1.989 5.341 L 1.989 5.284 A 3.746 3.746 0 0 1 1.268 4.279 A 2.698 2.698 0 0 1 1.004 3.291 A 3.237 3.237 0 0 1 0.994 3.04 A 2.95 2.95 0 0 1 1.158 2.045 A 2.688 2.688 0 0 1 1.442 1.474 A 3.072 3.072 0 0 1 2.562 0.451 A 3.66 3.66 0 0 1 2.67 0.394 A 3.661 3.661 0 0 1 3.852 0.039 A 4.666 4.666 0 0 1 4.46 0 A 4.324 4.324 0 0 1 5.39 0.096 A 3.283 3.283 0 0 1 6.349 0.465 A 3.181 3.181 0 0 1 7.578 1.751 A 3.721 3.721 0 0 1 7.969 2.995 A 4.729 4.729 0 0 1 8.011 3.636 Z M 19.034 3.636 L 17.415 3.636 A 2.978 2.978 0 0 0 17.338 2.943 A 2.18 2.18 0 0 0 16.95 2.113 Q 16.517 1.549 15.621 1.509 A 3.122 3.122 0 0 0 15.483 1.506 Q 14.983 1.506 14.624 1.649 A 1.489 1.489 0 0 0 14.435 1.74 A 1.773 1.773 0 0 0 14.099 1.986 A 1.394 1.394 0 0 0 13.832 2.33 A 1.632 1.632 0 0 0 13.682 2.696 A 1.331 1.331 0 0 0 13.636 3.04 A 1.444 1.444 0 0 0 13.878 3.839 A 2.947 2.947 0 0 0 14.474 4.506 A 5.767 5.767 0 0 0 14.869 4.808 A 4.558 4.558 0 0 0 15.17 5 L 17.926 6.619 Q 18.203 6.776 18.558 7.038 A 3.935 3.935 0 0 1 19.012 7.434 A 4.775 4.775 0 0 1 19.24 7.681 A 3.243 3.243 0 0 1 19.668 8.325 A 3.841 3.841 0 0 1 19.783 8.573 A 2.683 2.683 0 0 1 19.964 9.232 A 3.527 3.527 0 0 1 20 9.744 Q 20 10.27 19.727 10.796 A 3.271 3.271 0 0 1 19.002 11.726 A 2.754 2.754 0 0 1 18.276 12.201 A 2.551 2.551 0 0 1 18.011 12.301 L 18.011 12.33 A 2.849 2.849 0 0 1 18.607 13.044 A 2.634 2.634 0 0 1 18.764 13.363 A 3.25 3.25 0 0 1 19.003 14.483 A 3.765 3.765 0 0 1 19.006 14.631 A 3.545 3.545 0 0 1 18.928 15.395 A 2.461 2.461 0 0 1 18.494 16.36 A 3.062 3.062 0 0 1 17.159 17.369 A 4.675 4.675 0 0 1 15.456 17.699 A 5.295 5.295 0 0 1 15.398 17.699 A 4.842 4.842 0 0 1 14.291 17.577 A 3.936 3.936 0 0 1 13.402 17.255 Q 12.528 16.811 12.031 15.991 Q 11.534 15.171 11.534 14.034 L 13.182 14.034 A 2.771 2.771 0 0 0 13.253 14.681 A 1.802 1.802 0 0 0 13.81 15.636 Q 14.439 16.193 15.398 16.193 A 2.72 2.72 0 0 0 16.198 16.079 A 2.348 2.348 0 0 0 16.786 15.806 A 1.252 1.252 0 0 0 17.368 14.896 A 1.82 1.82 0 0 0 17.386 14.631 A 1.993 1.993 0 0 0 17.347 14.222 Q 17.288 13.944 17.145 13.729 A 2.288 2.288 0 0 0 16.548 13.118 A 10.386 10.386 0 0 0 16.024 12.773 A 9.02 9.02 0 0 0 15.852 12.671 L 13.097 11.08 Q 12.885 10.955 12.627 10.771 A 10.568 10.568 0 0 1 12.465 10.653 Q 12.109 10.391 11.783 10.004 A 3.36 3.36 0 0 1 11.343 9.328 A 3.952 3.952 0 0 1 11.239 9.102 A 2.726 2.726 0 0 1 11.056 8.42 A 3.556 3.556 0 0 1 11.023 7.926 A 2.234 2.234 0 0 1 11.138 7.229 A 2.846 2.846 0 0 1 11.278 6.882 Q 11.534 6.35 11.982 5.93 Q 12.429 5.511 13.011 5.341 L 13.011 5.284 A 3.746 3.746 0 0 1 12.29 4.279 A 2.698 2.698 0 0 1 12.027 3.291 A 3.237 3.237 0 0 1 12.017 3.04 A 2.95 2.95 0 0 1 12.181 2.045 A 2.688 2.688 0 0 1 12.465 1.474 A 3.072 3.072 0 0 1 13.585 0.451 A 3.66 3.66 0 0 1 13.693 0.394 A 3.661 3.661 0 0 1 14.875 0.039 A 4.666 4.666 0 0 1 15.483 0 A 4.324 4.324 0 0 1 16.413 0.096 A 3.283 3.283 0 0 1 17.372 0.465 A 3.181 3.181 0 0 1 18.601 1.751 A 3.721 3.721 0 0 1 18.992 2.995 A 4.729 4.729 0 0 1 19.034 3.636 Z M 52.131 8.182 L 52.131 14.744 L 50.455 14.744 L 50.455 0.199 L 52.131 0.199 L 52.131 5.54 L 52.273 5.54 A 3.099 3.099 0 0 1 53.427 4.194 A 2.833 2.833 0 0 1 54.231 3.843 Q 54.591 3.745 55.018 3.711 A 5.896 5.896 0 0 1 55.483 3.693 A 4.758 4.758 0 0 1 56.467 3.791 A 3.684 3.684 0 0 1 57.436 4.137 A 3.01 3.01 0 0 1 58.649 5.327 A 3.724 3.724 0 0 1 58.739 5.494 A 3.898 3.898 0 0 1 59.057 6.387 Q 59.205 7.022 59.205 7.813 L 59.205 14.744 L 57.528 14.744 L 57.528 7.926 A 4.052 4.052 0 0 0 57.456 7.136 Q 57.362 6.663 57.145 6.296 A 2.176 2.176 0 0 0 56.857 5.913 A 2.207 2.207 0 0 0 55.663 5.263 A 3.274 3.274 0 0 0 55 5.199 A 3.337 3.337 0 0 0 54.129 5.309 A 2.833 2.833 0 0 0 53.526 5.547 A 2.514 2.514 0 0 0 52.504 6.563 A 2.838 2.838 0 0 0 52.202 7.404 Q 52.133 7.754 52.131 8.156 A 4.835 4.835 0 0 0 52.131 8.182 Z M 44.688 14.744 L 43.011 14.744 L 43.011 3.835 L 44.631 3.835 L 44.631 5.483 L 44.744 5.483 A 2.585 2.585 0 0 1 45.693 4.258 A 3.228 3.228 0 0 1 45.824 4.169 A 3.172 3.172 0 0 1 47.555 3.665 A 3.789 3.789 0 0 1 47.585 3.665 A 11.505 11.505 0 0 1 47.683 3.665 Q 47.839 3.667 48.047 3.672 A 12.041 12.041 0 0 1 48.177 3.676 Q 48.359 3.683 48.466 3.693 L 48.466 5.398 Q 48.399 5.381 48.201 5.349 A 17.802 17.802 0 0 0 48.079 5.33 A 4.082 4.082 0 0 0 47.588 5.286 A 4.679 4.679 0 0 0 47.443 5.284 A 3.279 3.279 0 0 0 46.647 5.377 A 2.722 2.722 0 0 0 46.026 5.614 A 2.52 2.52 0 0 0 45.046 6.524 A 2.404 2.404 0 0 0 44.693 7.659 A 2.925 2.925 0 0 0 44.688 7.841 L 44.688 14.744 Z M 6.08 7.898 L 3.295 6.278 A 0.664 0.664 0 0 0 2.952 6.184 Q 2.78 6.184 2.586 6.266 A 1.339 1.339 0 0 0 2.575 6.271 A 1.517 1.517 0 0 0 2.106 6.596 A 2.061 2.061 0 0 0 1.864 6.889 A 1.721 1.721 0 0 0 1.575 7.69 A 2.185 2.185 0 0 0 1.563 7.926 A 1.829 1.829 0 0 0 1.635 8.453 A 1.451 1.451 0 0 0 1.978 9.045 Q 2.393 9.482 2.926 9.801 L 5.568 11.335 A 0.654 0.654 0 0 0 5.878 11.42 Q 6.052 11.425 6.257 11.353 A 1.575 1.575 0 0 0 6.303 11.335 A 1.752 1.752 0 0 0 6.874 10.967 A 2.243 2.243 0 0 0 7.077 10.746 A 1.523 1.523 0 0 0 7.412 9.852 A 1.935 1.935 0 0 0 7.415 9.744 Q 7.415 9.332 7.223 8.988 A 2.38 2.38 0 0 0 6.726 8.37 Q 6.42 8.097 6.08 7.898 Z M 17.102 7.898 L 14.318 6.278 A 0.664 0.664 0 0 0 13.975 6.184 Q 13.803 6.184 13.609 6.266 A 1.339 1.339 0 0 0 13.597 6.271 A 1.517 1.517 0 0 0 13.128 6.596 A 2.061 2.061 0 0 0 12.887 6.889 A 1.721 1.721 0 0 0 12.598 7.69 A 2.185 2.185 0 0 0 12.585 7.926 A 1.829 1.829 0 0 0 12.658 8.453 A 1.451 1.451 0 0 0 13.001 9.045 Q 13.416 9.482 13.949 9.801 L 16.591 11.335 A 0.654 0.654 0 0 0 16.901 11.42 Q 17.074 11.425 17.279 11.353 A 1.575 1.575 0 0 0 17.326 11.335 A 1.752 1.752 0 0 0 17.897 10.967 A 2.243 2.243 0 0 0 18.1 10.746 A 1.523 1.523 0 0 0 18.435 9.852 A 1.935 1.935 0 0 0 18.438 9.744 Q 18.438 9.332 18.246 8.988 A 2.38 2.38 0 0 0 17.749 8.37 Q 17.443 8.097 17.102 7.898 Z" vector-effect="non-scaling-stroke"/></g></svg>