<svg viewBox="242.94 194.859 14.487 30.318" xmlns="http://www.w3.org/2000/svg">
  <path class="paragraph-svg-path" d="M 255.327 197.688 L 251.475 197.688 Q 251.465 196.895 250.924 196.364 Q 250.384 195.834 249.313 195.834 Q 248.767 195.834 248.303 195.994 Q 247.84 196.153 247.557 196.478 Q 247.274 196.802 247.274 197.296 Q 247.274 197.791 247.593 198.192 Q 247.912 198.594 248.365 198.887 Q 248.818 199.181 249.23 199.346 L 253.174 201.168 Q 253.586 201.354 254.173 201.704 Q 254.76 202.054 255.311 202.61 Q 255.862 203.166 256.197 203.985 Q 256.532 204.804 256.429 205.926 Q 256.357 206.791 255.904 207.378 Q 255.45 207.965 254.879 208.31 Q 254.307 208.655 253.844 208.789 L 253.792 208.83 Q 254.657 209.592 255.105 210.54 Q 255.553 211.487 255.553 212.661 Q 255.553 214.288 254.75 215.437 Q 253.947 216.585 252.567 217.198 Q 251.187 217.81 249.457 217.81 Q 247.562 217.81 246.115 217.11 Q 244.668 216.41 243.855 215.138 Q 243.041 213.866 243.041 212.146 L 246.913 212.146 Q 246.913 213.125 247.608 213.65 Q 248.303 214.175 249.508 214.113 Q 250.291 214.093 250.971 213.758 Q 251.65 213.423 251.65 212.661 Q 251.65 212.126 251.331 211.74 Q 251.012 211.353 250.574 211.081 Q 250.136 210.808 249.745 210.612 L 245.801 208.83 Q 245.379 208.635 244.787 208.29 Q 244.194 207.945 243.643 207.378 Q 243.092 206.812 242.763 205.988 Q 242.433 205.164 242.526 204.031 Q 242.598 203.166 243.026 202.579 Q 243.453 201.992 244.035 201.642 Q 244.617 201.292 245.132 201.148 L 245.132 201.117 Q 244.349 200.355 243.87 199.418 Q 243.391 198.481 243.401 197.296 Q 243.401 195.813 244.153 194.66 Q 244.905 193.507 246.244 192.837 Q 247.583 192.168 249.313 192.168 Q 251.125 192.168 252.469 192.883 Q 253.813 193.599 254.57 194.845 Q 255.327 196.091 255.327 197.688 Z M 252.835 206.153 Q 252.876 205.803 252.701 205.468 Q 252.526 205.133 252.145 204.835 Q 251.764 204.536 251.166 204.289 L 247.727 202.734 Q 247.356 202.559 247.001 202.662 Q 246.645 202.765 246.398 203.068 Q 246.151 203.372 246.1 203.805 Q 246.017 204.351 246.465 204.835 Q 246.913 205.319 247.778 205.689 L 251.218 207.224 Q 251.537 207.368 251.887 207.27 Q 252.237 207.172 252.51 206.879 Q 252.783 206.585 252.835 206.153 Z" transform="matrix(0.988997, 0, 0, 1, 3.404046, 4.879865)" style="white-space: pre;"/>
</svg>