<svg viewBox="233.663 193.245 32.739 32.839" xmlns="http://www.w3.org/2000/svg">
  <ellipse style="fill: rgb(255, 255, 255); stroke: rgb(0, 0, 0); stroke-width: 3px;" cx="250.032" cy="209.669" rx="14.736" ry="14.736"/>
  <path d="M 250.84 202.609 L 248.183 202.609 Q 248.176 202.063 247.803 201.697 Q 247.43 201.331 246.692 201.331 Q 246.315 201.331 245.996 201.441 Q 245.676 201.551 245.481 201.775 Q 245.286 201.999 245.286 202.34 Q 245.286 202.681 245.506 202.958 Q 245.726 203.234 246.038 203.437 Q 246.351 203.639 246.635 203.753 L 249.355 205.01 Q 249.639 205.138 250.044 205.379 Q 250.449 205.621 250.829 206.004 Q 251.209 206.388 251.44 206.953 Q 251.671 207.517 251.6 208.291 Q 251.55 208.888 251.237 209.293 Q 250.925 209.698 250.531 209.935 Q 250.136 210.173 249.817 210.266 L 249.781 210.294 Q 250.378 210.82 250.687 211.473 Q 250.996 212.127 250.996 212.936 Q 250.996 214.058 250.442 214.85 Q 249.888 215.642 248.936 216.065 Q 247.984 216.487 246.791 216.487 Q 245.484 216.487 244.487 216.004 Q 243.489 215.521 242.928 214.644 Q 242.367 213.767 242.367 212.581 L 245.037 212.581 Q 245.037 213.256 245.516 213.618 Q 245.996 213.98 246.827 213.938 Q 247.367 213.923 247.835 213.693 Q 248.304 213.462 248.304 212.936 Q 248.304 212.567 248.084 212.301 Q 247.864 212.034 247.562 211.846 Q 247.26 211.658 246.99 211.523 L 244.27 210.294 Q 243.979 210.159 243.57 209.921 Q 243.162 209.683 242.782 209.293 Q 242.402 208.902 242.175 208.334 Q 241.948 207.766 242.011 206.984 Q 242.061 206.388 242.356 205.983 Q 242.651 205.578 243.052 205.337 Q 243.453 205.095 243.808 204.996 L 243.808 204.975 Q 243.269 204.449 242.938 203.803 Q 242.608 203.156 242.615 202.34 Q 242.615 201.317 243.134 200.521 Q 243.652 199.726 244.575 199.264 Q 245.499 198.803 246.692 198.803 Q 247.942 198.803 248.869 199.296 Q 249.796 199.79 250.318 200.649 Q 250.84 201.509 250.84 202.609 Z M 249.121 208.448 Q 249.149 208.206 249.029 207.975 Q 248.908 207.744 248.645 207.538 Q 248.382 207.333 247.97 207.162 L 245.598 206.09 Q 245.342 205.969 245.097 206.04 Q 244.852 206.111 244.682 206.32 Q 244.511 206.53 244.476 206.828 Q 244.419 207.205 244.728 207.538 Q 245.037 207.872 245.634 208.128 L 248.006 209.186 Q 248.226 209.286 248.467 209.218 Q 248.709 209.151 248.897 208.948 Q 249.085 208.746 249.121 208.448 Z" transform="matrix(0.988997, 0, 0, 1, 5.949216, 2.15721)" style="white-space: pre;"/>
</svg>