<?xml version="1.0" encoding="utf-8"?>
<svg viewBox="234.369 195.061 31.428 29.511" xmlns="http://www.w3.org/2000/svg">
  <path d="M 255.327 197.688 L 251.475 197.688 Q 251.465 196.895 250.924 196.364 Q 250.384 195.834 249.313 195.834 Q 248.767 195.834 248.303 195.994 Q 247.84 196.153 247.557 196.478 Q 247.274 196.802 247.274 197.296 Q 247.274 197.791 247.593 198.192 Q 247.912 198.594 248.365 198.887 Q 248.818 199.181 249.23 199.346 L 253.174 201.168 Q 253.586 201.354 254.173 201.704 Q 254.76 202.054 255.311 202.61 Q 255.862 203.166 256.197 203.985 Q 256.532 204.804 256.429 205.926 Q 256.357 206.791 255.903 207.378 Q 255.45 207.965 254.879 208.31 Q 254.307 208.655 253.844 208.789 L 253.792 208.83 Q 254.657 209.592 255.105 210.54 Q 255.553 211.487 255.553 212.661 Q 255.553 214.288 254.75 215.437 Q 253.947 216.585 252.567 217.198 Q 251.187 217.81 249.457 217.81 Q 247.562 217.81 246.115 217.11 Q 244.668 216.41 243.854 215.138 Q 243.041 213.866 243.041 212.146 L 246.913 212.146 Q 246.913 213.125 247.608 213.65 Q 248.303 214.175 249.508 214.113 Q 250.291 214.093 250.971 213.758 Q 251.65 213.423 251.65 212.661 Q 251.65 212.126 251.331 211.74 Q 251.012 211.353 250.574 211.081 Q 250.136 210.808 249.745 210.612 L 245.801 208.83 Q 245.379 208.635 244.786 208.29 Q 244.194 207.945 243.643 207.378 Q 243.092 206.812 242.763 205.988 Q 242.433 205.164 242.526 204.031 Q 242.598 203.166 243.025 202.579 Q 243.453 201.992 244.035 201.642 Q 244.617 201.292 245.131 201.148 L 245.131 201.117 Q 244.349 200.355 243.87 199.418 Q 243.391 198.481 243.401 197.296 Q 243.401 195.813 244.153 194.66 Q 244.905 193.506 246.244 192.837 Q 247.582 192.168 249.313 192.168 Q 251.125 192.168 252.469 192.883 Q 253.813 193.599 254.57 194.845 Q 255.327 196.091 255.327 197.688 Z M 252.835 206.153 Q 252.876 205.803 252.701 205.468 Q 252.526 205.133 252.145 204.835 Q 251.764 204.536 251.166 204.289 L 247.727 202.734 Q 247.356 202.559 247.001 202.662 Q 246.645 202.765 246.398 203.068 Q 246.151 203.372 246.1 203.805 Q 246.017 204.351 246.465 204.835 Q 246.913 205.319 247.778 205.689 L 251.218 207.224 Q 251.537 207.368 251.887 207.27 Q 252.237 207.172 252.51 206.879 Q 252.783 206.585 252.835 206.153 Z" transform="matrix(0.988997, 0, 0, 1, -5.066434, 4.779026)" style="white-space: pre;"/>
  <path d="M 272.521 197.688 L 268.67 197.688 Q 268.659 196.895 268.119 196.364 Q 267.578 195.834 266.507 195.834 Q 265.961 195.834 265.498 195.994 Q 265.034 196.153 264.751 196.478 Q 264.468 196.802 264.468 197.296 Q 264.468 197.791 264.787 198.192 Q 265.106 198.594 265.56 198.887 Q 266.013 199.181 266.425 199.346 L 270.369 201.168 Q 270.781 201.354 271.368 201.704 Q 271.955 202.054 272.506 202.61 Q 273.057 203.166 273.391 203.985 Q 273.726 204.804 273.623 205.926 Q 273.551 206.791 273.098 207.378 Q 272.645 207.965 272.073 208.31 Q 271.502 208.655 271.038 208.789 L 270.987 208.83 Q 271.852 209.592 272.3 210.54 Q 272.748 211.487 272.748 212.661 Q 272.748 214.288 271.945 215.437 Q 271.141 216.585 269.761 217.198 Q 268.381 217.81 266.651 217.81 Q 264.756 217.81 263.309 217.11 Q 261.862 216.41 261.049 215.138 Q 260.235 213.866 260.235 212.146 L 264.108 212.146 Q 264.108 213.125 264.803 213.65 Q 265.498 214.175 266.703 214.113 Q 267.485 214.093 268.165 213.758 Q 268.845 213.423 268.845 212.661 Q 268.845 212.126 268.525 211.74 Q 268.206 211.353 267.769 211.081 Q 267.331 210.808 266.94 210.612 L 262.995 208.83 Q 262.573 208.635 261.981 208.29 Q 261.389 207.945 260.838 207.378 Q 260.287 206.812 259.957 205.988 Q 259.628 205.164 259.72 204.031 Q 259.793 203.166 260.22 202.579 Q 260.647 201.992 261.229 201.642 Q 261.811 201.292 262.326 201.148 L 262.326 201.117 Q 261.543 200.355 261.064 199.418 Q 260.585 198.481 260.596 197.296 Q 260.596 195.813 261.348 194.66 Q 262.099 193.506 263.438 192.837 Q 264.777 192.168 266.507 192.168 Q 268.32 192.168 269.663 192.883 Q 271.007 193.599 271.764 194.845 Q 272.521 196.091 272.521 197.688 Z M 270.029 206.153 Q 270.07 205.803 269.895 205.468 Q 269.72 205.133 269.339 204.835 Q 268.958 204.536 268.361 204.289 L 264.921 202.734 Q 264.55 202.559 264.195 202.662 Q 263.84 202.765 263.593 203.068 Q 263.345 203.372 263.294 203.805 Q 263.212 204.351 263.66 204.835 Q 264.108 205.319 264.973 205.689 L 268.412 207.224 Q 268.731 207.368 269.082 207.27 Q 269.432 207.172 269.705 206.879 Q 269.978 206.585 270.029 206.153 Z" transform="matrix(0.988997, 0, 0, 1, -5.066434, 4.779026)" style="white-space: pre;"/>
</svg>