<svg viewBox="233.663 193.245 32.739 32.839" xmlns="http://www.w3.org/2000/svg">
  <ellipse style="fill: rgb(255, 255, 255); stroke: rgb(0, 0, 0); stroke-width: 3px;" cx="250.032" cy="209.669" rx="14.736" ry="14.736"/>
  <path d="M 248.097 205.617 L 246.172 205.617 Q 246.166 205.221 245.896 204.956 Q 245.626 204.69 245.09 204.69 Q 244.817 204.69 244.586 204.77 Q 244.354 204.85 244.212 205.012 Q 244.071 205.174 244.071 205.422 Q 244.071 205.669 244.23 205.87 Q 244.39 206.07 244.617 206.217 Q 244.843 206.364 245.049 206.446 L 247.021 207.358 Q 247.227 207.45 247.521 207.625 Q 247.814 207.801 248.09 208.079 Q 248.365 208.357 248.533 208.766 Q 248.7 209.175 248.648 209.737 Q 248.612 210.169 248.386 210.463 Q 248.159 210.756 247.873 210.929 Q 247.588 211.101 247.356 211.168 L 247.33 211.189 Q 247.763 211.57 247.987 212.043 Q 248.211 212.517 248.211 213.104 Q 248.211 213.918 247.809 214.492 Q 247.407 215.066 246.717 215.372 Q 246.027 215.679 245.162 215.679 Q 244.215 215.679 243.491 215.329 Q 242.768 214.978 242.361 214.343 Q 241.954 213.707 241.954 212.847 L 243.891 212.847 Q 243.891 213.336 244.238 213.598 Q 244.586 213.861 245.188 213.83 Q 245.579 213.82 245.919 213.653 Q 246.259 213.485 246.259 213.104 Q 246.259 212.836 246.1 212.643 Q 245.94 212.45 245.721 212.314 Q 245.502 212.177 245.307 212.079 L 243.334 211.189 Q 243.123 211.091 242.827 210.918 Q 242.531 210.746 242.256 210.463 Q 241.98 210.179 241.815 209.768 Q 241.651 209.356 241.697 208.789 Q 241.733 208.357 241.947 208.063 Q 242.16 207.77 242.451 207.595 Q 242.742 207.42 243 207.347 L 243 207.332 Q 242.608 206.951 242.369 206.482 Q 242.13 206.014 242.135 205.422 Q 242.135 204.68 242.511 204.103 Q 242.886 203.527 243.556 203.192 Q 244.225 202.857 245.09 202.857 Q 245.997 202.857 246.669 203.215 Q 247.34 203.573 247.719 204.196 Q 248.097 204.819 248.097 205.617 Z M 246.851 209.85 Q 246.872 209.675 246.784 209.507 Q 246.697 209.34 246.506 209.191 Q 246.316 209.041 246.017 208.918 L 244.297 208.14 Q 244.112 208.053 243.934 208.104 Q 243.757 208.156 243.633 208.308 Q 243.51 208.46 243.484 208.676 Q 243.443 208.949 243.667 209.191 Q 243.891 209.433 244.323 209.618 L 246.043 210.385 Q 246.203 210.458 246.378 210.409 Q 246.553 210.36 246.689 210.213 Q 246.826 210.066 246.851 209.85 Z" transform="matrix(0.988997, 0, 0, 1, 3.839427, 0.128186)" style="white-space: pre;"/>
  <path d="M 256.679 205.617 L 254.753 205.617 Q 254.748 205.221 254.477 204.956 Q 254.207 204.69 253.671 204.69 Q 253.399 204.69 253.167 204.77 Q 252.935 204.85 252.794 205.012 Q 252.652 205.174 252.652 205.422 Q 252.652 205.669 252.812 205.87 Q 252.971 206.07 253.198 206.217 Q 253.424 206.364 253.63 206.446 L 255.602 207.358 Q 255.808 207.45 256.102 207.625 Q 256.395 207.801 256.671 208.079 Q 256.946 208.357 257.114 208.766 Q 257.281 209.175 257.23 209.737 Q 257.193 210.169 256.967 210.463 Q 256.74 210.756 256.455 210.929 Q 256.169 211.101 255.937 211.168 L 255.911 211.189 Q 256.344 211.57 256.568 212.043 Q 256.792 212.517 256.792 213.104 Q 256.792 213.918 256.39 214.492 Q 255.989 215.066 255.299 215.372 Q 254.609 215.679 253.744 215.679 Q 252.796 215.679 252.073 215.329 Q 251.349 214.978 250.942 214.343 Q 250.536 213.707 250.536 212.847 L 252.472 212.847 Q 252.472 213.336 252.819 213.598 Q 253.167 213.861 253.769 213.83 Q 254.161 213.82 254.5 213.653 Q 254.84 213.485 254.84 213.104 Q 254.84 212.836 254.681 212.643 Q 254.521 212.45 254.302 212.314 Q 254.083 212.177 253.888 212.079 L 251.916 211.189 Q 251.704 211.091 251.408 210.918 Q 251.112 210.746 250.837 210.463 Q 250.561 210.179 250.397 209.768 Q 250.232 209.356 250.278 208.789 Q 250.314 208.357 250.528 208.063 Q 250.742 207.77 251.033 207.595 Q 251.323 207.42 251.581 207.347 L 251.581 207.332 Q 251.19 206.951 250.95 206.482 Q 250.711 206.014 250.716 205.422 Q 250.716 204.68 251.092 204.103 Q 251.468 203.527 252.137 203.192 Q 252.806 202.857 253.671 202.857 Q 254.578 202.857 255.25 203.215 Q 255.922 203.573 256.3 204.196 Q 256.679 204.819 256.679 205.617 Z M 255.432 209.85 Q 255.453 209.675 255.366 209.507 Q 255.278 209.34 255.087 209.191 Q 254.897 209.041 254.598 208.918 L 252.878 208.14 Q 252.693 208.053 252.515 208.104 Q 252.338 208.156 252.214 208.308 Q 252.091 208.46 252.065 208.676 Q 252.024 208.949 252.248 209.191 Q 252.472 209.433 252.904 209.618 L 254.624 210.385 Q 254.784 210.458 254.959 210.409 Q 255.134 210.36 255.27 210.213 Q 255.407 210.066 255.432 209.85 Z" transform="matrix(0.988997, 0, 0, 1, 3.839427, 0.128186)" style="white-space: pre;"/>
</svg>