<svg viewBox="234.369 195.061 31 31" xmlns="http://www.w3.org/2000/svg">
  <path class="paragraph-svg-path" d="M 247.208 203.416 L 243.481 203.416 C 243.474 202.899 243.296 202.467 242.947 202.121 C 242.599 201.775 242.079 201.602 241.388 201.602 C 241.036 201.602 240.71 201.654 240.411 201.759 C 240.112 201.862 239.871 202.02 239.689 202.232 C 239.506 202.444 239.415 202.71 239.415 203.033 C 239.415 203.356 239.518 203.648 239.723 203.909 C 239.929 204.172 240.178 204.398 240.471 204.59 C 240.763 204.781 241.042 204.931 241.308 205.039 L 245.125 206.822 C 245.391 206.943 245.713 207.118 246.092 207.346 C 246.47 207.575 246.838 207.87 247.193 208.233 C 247.549 208.595 247.834 209.044 248.05 209.578 C 248.267 210.113 248.341 210.746 248.275 211.478 C 248.229 212.042 248.059 212.516 247.766 212.899 C 247.474 213.282 247.143 213.586 246.775 213.811 C 246.406 214.036 246.072 214.192 245.773 214.279 L 245.723 214.319 C 246.281 214.817 246.705 215.374 246.994 215.993 C 247.283 216.611 247.427 217.302 247.427 218.068 C 247.427 219.13 247.168 220.035 246.65 220.785 C 246.132 221.534 245.428 222.108 244.537 222.508 C 243.647 222.907 242.644 223.107 241.527 223.107 C 240.305 223.107 239.227 222.879 238.293 222.422 C 237.359 221.965 236.63 221.322 236.105 220.492 C 235.58 219.662 235.318 218.687 235.318 217.564 L 239.065 217.564 C 239.065 218.203 239.29 218.694 239.738 219.036 C 240.186 219.379 240.799 219.53 241.577 219.489 C 242.082 219.476 242.554 219.36 242.993 219.142 C 243.431 218.923 243.65 218.566 243.65 218.068 C 243.65 217.719 243.547 217.419 243.341 217.167 C 243.135 216.915 242.891 216.7 242.609 216.522 C 242.326 216.344 242.058 216.191 241.806 216.063 L 237.989 214.319 C 237.717 214.192 237.389 214.016 237.007 213.791 C 236.625 213.566 236.256 213.268 235.901 212.899 C 235.545 212.529 235.261 212.076 235.049 211.538 C 234.836 211.001 234.76 210.362 234.82 209.623 C 234.866 209.059 235.027 208.585 235.303 208.202 C 235.579 207.819 235.905 207.514 236.28 207.286 C 236.656 207.057 237.009 206.896 237.341 206.802 L 237.341 206.772 C 236.836 206.275 236.429 205.72 236.12 205.109 C 235.811 204.498 235.66 203.806 235.666 203.033 C 235.666 202.065 235.909 201.205 236.394 200.453 C 236.879 199.7 237.554 199.106 238.418 198.669 C 239.281 198.233 240.271 198.015 241.388 198.015 C 242.557 198.015 243.575 198.248 244.443 198.714 C 245.31 199.181 245.987 199.821 246.476 200.634 C 246.964 201.447 247.208 202.374 247.208 203.416 Z M 244.797 211.7 C 244.823 211.472 244.78 211.248 244.667 211.03 C 244.554 210.811 244.375 210.605 244.129 210.41 C 243.883 210.215 243.567 210.037 243.181 209.876 L 239.853 208.354 C 239.614 208.24 239.38 208.216 239.151 208.284 C 238.921 208.351 238.726 208.483 238.567 208.681 C 238.408 208.879 238.311 209.12 238.279 209.402 C 238.225 209.758 238.343 210.094 238.632 210.41 C 238.921 210.726 239.344 211.004 239.903 211.246 L 243.232 212.748 C 243.438 212.842 243.653 212.857 243.879 212.793 C 244.105 212.729 244.306 212.601 244.482 212.41 C 244.658 212.218 244.763 211.982 244.797 211.7 Z" style="white-space: pre;"/>
  <path class="paragraph-svg-path" d="M 263.849 203.416 L 260.122 203.416 C 260.115 202.899 259.937 202.467 259.589 202.121 C 259.24 201.775 258.72 201.602 258.029 201.602 C 257.676 201.602 257.351 201.654 257.052 201.759 C 256.753 201.862 256.512 202.02 256.329 202.232 C 256.146 202.444 256.055 202.71 256.055 203.033 C 256.055 203.356 256.158 203.648 256.364 203.909 C 256.57 204.172 256.819 204.398 257.112 204.59 C 257.404 204.781 257.683 204.931 257.949 205.039 L 261.766 206.822 C 262.032 206.943 262.354 207.118 262.733 207.346 C 263.112 207.575 263.479 207.87 263.834 208.233 C 264.19 208.595 264.475 209.044 264.691 209.578 C 264.907 210.113 264.982 210.746 264.915 211.478 C 264.869 212.042 264.7 212.516 264.407 212.899 C 264.115 213.282 263.784 213.586 263.415 213.811 C 263.047 214.036 262.713 214.192 262.414 214.279 L 262.364 214.319 C 262.922 214.817 263.346 215.374 263.635 215.993 C 263.924 216.611 264.069 217.302 264.069 218.068 C 264.069 219.13 263.81 220.035 263.291 220.785 C 262.773 221.534 262.068 222.108 261.178 222.508 C 260.287 222.907 259.284 223.107 258.168 223.107 C 256.945 223.107 255.867 222.879 254.934 222.422 C 254 221.965 253.271 221.322 252.746 220.492 C 252.221 219.662 251.958 218.687 251.958 217.564 L 255.707 217.564 C 255.707 218.203 255.931 218.694 256.379 219.036 C 256.828 219.379 257.441 219.53 258.218 219.489 C 258.723 219.476 259.194 219.36 259.633 219.142 C 260.072 218.923 260.291 218.566 260.291 218.068 C 260.291 217.719 260.188 217.419 259.982 217.167 C 259.776 216.915 259.532 216.7 259.25 216.522 C 258.967 216.344 258.7 216.191 258.448 216.063 L 254.63 214.319 C 254.357 214.192 254.03 214.016 253.648 213.791 C 253.266 213.566 252.898 213.268 252.542 212.899 C 252.187 212.529 251.902 212.076 251.689 211.538 C 251.477 211.001 251.401 210.362 251.46 209.623 C 251.507 209.059 251.668 208.585 251.944 208.202 C 252.219 207.819 252.545 207.514 252.92 207.286 C 253.296 207.057 253.65 206.896 253.982 206.802 L 253.982 206.772 C 253.477 206.275 253.07 205.72 252.761 205.109 C 252.452 204.498 252.301 203.806 252.308 203.033 C 252.308 202.065 252.55 201.205 253.036 200.453 C 253.52 199.7 254.194 199.106 255.058 198.669 C 255.922 198.233 256.912 198.015 258.029 198.015 C 259.198 198.015 260.216 198.248 261.083 198.714 C 261.95 199.181 262.628 199.821 263.116 200.634 C 263.605 201.447 263.849 202.374 263.849 203.416 Z M 261.437 211.7 C 261.464 211.472 261.42 211.248 261.307 211.03 C 261.195 210.811 261.015 210.605 260.769 210.41 C 260.524 210.215 260.208 210.037 259.823 209.876 L 256.494 208.354 C 256.254 208.24 256.02 208.216 255.791 208.284 C 255.562 208.351 255.368 208.483 255.208 208.681 C 255.048 208.879 254.952 209.12 254.919 209.402 C 254.866 209.758 254.984 210.094 255.273 210.41 C 255.562 210.726 255.986 211.004 256.544 211.246 L 259.872 212.748 C 260.078 212.842 260.294 212.857 260.521 212.793 C 260.746 212.729 260.947 212.601 261.124 212.41 C 261.3 212.218 261.404 211.982 261.437 211.7 Z" style="white-space: pre;"/>
</svg>