<svg version="1.1" id="Layer_1" xmlns="http://www.w3.org/2000/svg" xmlns:xlink="http://www.w3.org/1999/xlink" x="0px" y="0px" viewBox="0 0 512 512" style="enable-background:new 0 0 512 512;" xml:space="preserve">
<g>
	<g>
		<path d="M437.019,74.981C388.667,26.629,324.38,0,256,0S123.332,26.629,74.981,74.981C26.629,123.332,0,187.62,0,256    s26.629,132.667,74.981,181.019C123.332,485.371,187.62,512,256,512s132.667-26.629,181.019-74.981S512,324.38,512,256    S485.371,123.332,437.019,74.981z M426.266,426.266c-45.48,45.48-105.948,70.526-170.266,70.526s-124.786-25.046-170.266-70.527    C40.254,380.786,15.208,320.318,15.208,256S40.254,131.214,85.735,85.735C131.214,40.254,191.682,15.208,256,15.208    s124.786,25.046,170.266,70.527c45.48,45.479,70.526,105.946,70.526,170.265S471.746,380.786,426.266,426.266z"/>
	</g>
</g>
<g>
	<g>
		<path d="M451.242,319.408c-10.028,31.057-26.875,58.567-50.073,81.765l10.755,10.752c24.917-24.917,43.014-54.473,53.788-87.844    L451.242,319.408z"/>
	</g>
</g>
<g>
	<g>
		<path d="M468.172,196.061c-10.148-36.148-29.598-69.342-56.246-95.99l-10.754,10.754c49.816,49.815,70.435,120.783,55.156,189.841    l14.85,3.285C479.043,268.393,478.004,231.085,468.172,196.061z"/>
	</g>
</g>
<g>
	<g>
		<path d="M256,232.083c-13.188,0-23.917,10.729-23.917,23.917s10.729,23.917,23.917,23.917s23.917-10.729,23.917-23.917    S269.188,232.083,256,232.083z M256,264.709c-4.802,0-8.709-3.907-8.709-8.709s3.907-8.709,8.709-8.709s8.709,3.907,8.709,8.709    S260.802,264.709,256,264.709z"/>
	</g>
</g>
<g>
	<g>
		<path d="M126.371,232.083c-13.188,0-23.917,10.729-23.917,23.917s10.729,23.917,23.917,23.917s23.917-10.729,23.917-23.917    C150.287,242.812,139.558,232.083,126.371,232.083z M126.371,264.709c-4.802,0-8.709-3.907-8.709-8.709s3.907-8.709,8.709-8.709    s8.709,3.907,8.709,8.709S131.172,264.709,126.371,264.709z"/>
	</g>
</g>
<g>
	<g>
		<path d="M320.815,102.454c-13.188,0-23.917,10.729-23.917,23.917s10.729,23.917,23.917,23.917s23.917-10.729,23.917-23.917    S334.002,102.454,320.815,102.454z M320.815,135.079c-4.802,0-8.709-3.907-8.709-8.709s3.907-8.709,8.709-8.709    s8.709,3.907,8.709,8.709C329.524,131.172,325.617,135.079,320.815,135.079z"/>
	</g>
</g>
<g>
	<g>
		<path d="M385.629,232.083c-13.188,0-23.917,10.729-23.917,23.917s10.729,23.917,23.917,23.917s23.917-10.729,23.917-23.917    S398.818,232.083,385.629,232.083z M385.629,264.709c-4.802,0-8.709-3.907-8.709-8.709s3.906-8.709,8.709-8.709    c4.802,0,8.709,3.907,8.709,8.709S390.432,264.709,385.629,264.709z"/>
	</g>
</g>
<g>
	<g>
		<path d="M191.185,102.454c-13.188,0-23.917,10.729-23.917,23.917s10.729,23.917,23.917,23.917s23.917-10.729,23.917-23.917    S204.373,102.454,191.185,102.454z M191.185,135.079c-4.802,0-8.709-3.907-8.709-8.709s3.907-8.709,8.709-8.709    s8.709,3.907,8.709,8.709C199.894,131.172,195.988,135.079,191.185,135.079z"/>
	</g>
</g>
<g>
	<g>
		<path d="M320.815,361.713c-13.188,0-23.917,10.729-23.917,23.917s10.729,23.917,23.917,23.917s23.917-10.729,23.917-23.917    C344.732,372.442,334.002,361.713,320.815,361.713z M320.815,394.338c-4.802,0-8.709-3.906-8.709-8.709    c0-4.802,3.907-8.709,8.709-8.709s8.709,3.906,8.709,8.709S325.617,394.338,320.815,394.338z"/>
	</g>
</g>
<g>
	<g>
		<path d="M191.185,361.713c-13.188,0-23.917,10.729-23.917,23.917s10.729,23.917,23.917,23.917s23.917-10.729,23.917-23.917    S204.373,361.713,191.185,361.713z M191.185,394.338c-4.802,0-8.709-3.906-8.709-8.709c0-4.802,3.907-8.709,8.709-8.709    s8.709,3.906,8.709,8.709S195.988,394.338,191.185,394.338z"/>
	</g>
</g>
</svg>