<svg xmlns="http://www.w3.org/2000/svg" width="17" height="17" viewBox="0 0 17 17">
<title>#{msg.returnToHitlist}</title>
  <defs>
    <style>
      .cls-1 {
        fill: none;
        stroke: #a7a7a7;
        stroke-width: 1px;
      }

      .cls-2 {
        fill: #a7a7a7;
        fill-rule: evenodd;
      }
    </style>
  </defs>
  <rect id="Rechteck_1" data-name="Rechteck 1" class="cls-1" width="17" height="17"/>
  <path id="_" data-name="ï " class="cls-2" d="M13.888,7.331a0.862,0.862,0,0,0-.676-0.292H7.582L9.925,4.754a0.981,0.981,0,0,0,0-1.42l-0.6-.577a1.032,1.032,0,0,0-1.448,0L2.671,7.827a0.986,0.986,0,0,0-.3.71,0.943,0.943,0,0,0,.3.7l5.206,5.085a1.038,1.038,0,0,0,.728.289,0.993,0.993,0,0,0,.72-0.289l0.6-.593a0.963,0.963,0,0,0,0-1.4L7.582,10.034h5.63a0.862,0.862,0,0,0,.676-0.292,1.026,1.026,0,0,0,.26-0.706v-1A1.026,1.026,0,0,0,13.888,7.331Z"/>
</svg>
