<!-- Generated by IcoMoon.io -->
<svg version="1.1" xmlns="http://www.w3.org/2000/svg" width="64" height="64" viewBox="0 0 64 64">
<title>uniE90B</title>
<path d="M0 0v64h31.938v-64h-31.938zM30.75 60.75h-26.938v-57.563h26.938v57.563zM6.438 16h21.438v2.938h-21.438v-2.938zM6.438 30.25h21.438v2.938h-21.438v-2.938zM6.438 44.125h21.438v2.938h-21.438v-2.938zM31.938 0v64h31.938v-64h-31.938zM33.188 3.188h26.875v57.563h-26.875v-57.563zM57.438 18.938h-21.438v-2.938h21.438v2.938zM57.438 33.188h-21.438v-2.938h21.438v2.938zM57.438 47.063h-21.438v-2.938h21.438v2.938z"></path>
</svg>
